<?xml version="1.0" standalone="no"?>
<!DOCTYPE svg PUBLIC "-//W3C//DTD SVG 1.1//EN" "http://www.w3.org/Graphics/SVG/1.1/DTD/svg11.dtd" >
<svg xmlns="http://www.w3.org/2000/svg" xmlns:xlink="http://www.w3.org/1999/xlink" version="1.1">
<metadata>
Created by FontForge 20170731 at Fri Feb 23 20:57:39 2007
 By Aleksey,,,
Copyright (c) 2006 by Dino dos Santos _DSType. All rights reserved.
</metadata>
<defs>
<font id="LeituraNews-Italic2" horiz-adv-x="400" >
  <font-face 
    font-family="Leitura News Italic 2"
    font-weight="400"
    font-style="italic"
    font-stretch="normal"
    units-per-em="1000"
    panose-1="2 0 5 3 0 0 0 2 0 4"
    ascent="800"
    descent="-200"
    x-height="510"
    cap-height="700"
    bbox="-153.154 -335 1313.66 1056"
    underline-thickness="50"
    underline-position="-200"
    unicode-range="U+000D-FB04"
  />
<missing-glyph horiz-adv-x="590" 
d="M140 500h450l-70 -500h-450zM321 249l-172 236l-66 -469zM338 249l173 -231l65 465zM161 488l171 -229l234 229h-405zM329 240l-233 -228h401z" />
    <glyph glyph-name="ff" unicode="ff" horiz-adv-x="661" 
d="M483 460h-220l-58 -415q-17 -123 -91 -219t-132 -96q-47 0 -51 35q-3 29 20 45q15 11 31 5q27 -10 46 -10.5t31 9.5t18.5 23t10.5 38t5.5 48t4.5 58.5t7 63.5l58 415h-65l5 35l66 5q27 108 114.5 189t143.5 81q45 0 48 -33q3 -28 -21 -46q-17 -12 -34 -6q-31 11 -52.5 14
t-37 -7t-24 -17.5t-16 -38.5t-10 -47.5t-8.5 -65.5q-2 -15 -3 -23h220q27 108 114.5 189t143.5 81q45 0 48 -33q3 -28 -21 -46q-17 -12 -34 -6q-31 11 -52.5 14t-37 -7t-24 -17.5t-16 -38.5t-10 -47.5t-8.5 -65.5q-2 -15 -3 -23h122l-6 -40h-122l-58 -415q-17 -123 -91 -219
t-132 -96q-47 0 -51 35q-3 29 20 45q15 11 31 5q27 -10 46 -10.5t31 9.5t18.5 23t10.5 38t5.5 48t4.5 58.5t7 63.5z" />
    <glyph glyph-name="fi" unicode="fi" horiz-adv-x="638" 
d="M600 510l-56 -408q-7 -55 24 -55q40 0 82 95l23 -11q-49 -141 -153 -141q-90 0 -76 112l40 295q4 33 -8 48t-56 15h-157l-58 -415q-17 -123 -91 -219t-132 -96q-47 0 -51 35q-3 29 20 45q15 11 31 5q27 -10 46 -10.5t31 9.5t18.5 23t10.5 38t5.5 48t4.5 58.5t7 63.5
l58 415h-65l5 35l66 5q27 108 114.5 189t143.5 81q45 0 48 -33q3 -28 -21 -46q-17 -12 -34 -6q-31 11 -52.5 14t-37 -7t-24 -17.5t-16 -38.5t-10 -47.5t-8.5 -65.5q-2 -15 -3 -23h157l164 10h10z" />
    <glyph glyph-name="fl" unicode="fl" horiz-adv-x="637" 
d="M637 770l-94 -668q-7 -55 24 -55q40 0 82 95l23 -11q-49 -141 -153 -141q-92 0 -76 112l79 563q-74 31 -119.5 38t-74 -14t-41 -65t-18.5 -124h122l-6 -40h-122l-58 -415q-17 -123 -91 -219t-132 -96q-47 0 -51 35q-3 29 20 45q15 11 31 5q27 -10 46 -10.5t31 9.5
t18.5 23t10.5 38t5.5 48t4.5 58.5t7 63.5l58 415h-65l5 35l66 5q29 115 117.5 192.5t180.5 77.5q61 0 114 -31l46 31h10z" />
    <glyph glyph-name="ffi" unicode="ffi" horiz-adv-x="958" 
d="M483 460h-220l-58 -415q-17 -123 -91 -219t-132 -96q-47 0 -51 35q-3 29 20 45q15 11 31 5q27 -10 46 -10.5t31 9.5t18.5 23t10.5 38t5.5 48t4.5 58.5t7 63.5l58 415h-65l5 35l66 5q27 108 114.5 189t143.5 81q45 0 48 -33q3 -28 -21 -46q-17 -12 -34 -6q-31 11 -52.5 14
t-37 -7t-24 -17.5t-16 -38.5t-10 -47.5t-8.5 -65.5q-2 -15 -3 -23h220q27 108 114.5 189t143.5 81q45 0 48 -33q3 -28 -21 -46q-17 -12 -34 -6q-31 11 -52.5 14t-37 -7t-24 -17.5t-16 -38.5t-10 -47.5t-8.5 -65.5q-2 -15 -3 -23h157l164 10h10l-56 -408q-7 -55 24 -55
q40 0 82 95l23 -11q-49 -141 -153 -141q-90 0 -76 112l40 295q4 33 -8 48t-56 15h-157l-58 -415q-17 -123 -91 -219t-132 -96q-47 0 -51 35q-3 29 20 45q15 11 31 5q27 -10 46 -10.5t31 9.5t18.5 23t10.5 38t5.5 48t4.5 58.5t7 63.5z" />
    <glyph glyph-name="ffl" unicode="ffl" horiz-adv-x="957" 
d="M483 460h-220l-58 -415q-17 -123 -91 -219t-132 -96q-47 0 -51 35q-3 29 20 45q15 11 31 5q27 -10 46 -10.5t31 9.5t18.5 23t10.5 38t5.5 48t4.5 58.5t7 63.5l58 415h-65l5 35l66 5q27 108 114.5 189t143.5 81q45 0 48 -33q3 -28 -21 -46q-17 -12 -34 -6q-31 11 -52.5 14
t-37 -7t-24 -17.5t-16 -38.5t-10 -47.5t-8.5 -65.5q-2 -15 -3 -23h220q29 115 117.5 192.5t180.5 77.5q61 0 114 -31l46 31h10l-94 -668q-7 -55 24 -55q40 0 82 95l23 -11q-49 -141 -153 -141q-92 0 -76 112l79 563q-74 31 -119.5 38t-74 -14t-41 -65t-18.5 -124h122l-6 -40
h-122l-58 -415q-17 -123 -91 -219t-132 -96q-47 0 -51 35q-3 29 20 45q15 11 31 5q27 -10 46 -10.5t31 9.5t18.5 23t10.5 38t5.5 48t4.5 58.5t7 63.5z" />
    <glyph glyph-name="T_h" unicode="Th" horiz-adv-x="1089" 
d="M719 0h-100l83 591q6 40 -6 55.5t-56 15.5h-198l-78 -560q-6 -42 7 -57.5t64 -22.5q-1 -8 -3 -22h-265q2 14 3 22q53 7 70.5 22.5t23.5 57.5l78 560h-70q-53 0 -90 -32t-53 -93h-27l28 163h515l169 45h10l-58 -402h2q42 74 92.5 120.5t101.5 46.5q107 0 87 -150l-36 -258
q-7 -55 25 -55q39 0 81 95l24 -11q-51 -141 -154 -141q-92 0 -76 112l36 255q11 83 -38 83q-39 0 -95 -72.5t-67 -152.5z" />
    <glyph glyph-name="T_h.caron" unicode="&#x164;h" horiz-adv-x="1089" 
d="M719 0h-100l83 591q6 40 -6 55.5t-56 15.5h-198l-78 -560q-6 -42 7 -57.5t64 -22.5q-1 -8 -3 -22h-265q2 14 3 22q53 7 70.5 22.5t23.5 57.5l78 560h-70q-53 0 -90 -32t-53 -93h-27l28 163h515l169 45h10l-58 -402h2q42 74 92.5 120.5t101.5 46.5q107 0 87 -150l-36 -258
q-7 -55 25 -55q39 0 81 95l24 -11q-51 -141 -154 -141q-92 0 -76 112l36 255q11 83 -38 83q-39 0 -95 -72.5t-67 -152.5zM418 840l-101 90h-27l100 -180h30l150 180h-28z" />
    <glyph glyph-name="T_h.commaaccent" unicode="&#x162;h" horiz-adv-x="1089" 
d="M719 0h-100l83 591q6 40 -6 55.5t-56 15.5h-198l-78 -560q-6 -42 7 -57.5t64 -22.5q-1 -8 -3 -22h-265q2 14 3 22q53 7 70.5 22.5t23.5 57.5l78 560h-70q-53 0 -90 -32t-53 -93h-27l28 163h515l169 45h10l-58 -402h2q42 74 92.5 120.5t101.5 46.5q107 0 87 -150l-36 -258
q-7 -55 25 -55q39 0 81 95l24 -11q-51 -141 -154 -141q-92 0 -76 112l36 255q11 83 -38 83q-39 0 -95 -72.5t-67 -152.5zM281 -46q24 0 40.5 -10.5t22 -26t7.5 -33.5t-1 -33q-10 -65 -57 -116t-98 -68l-10 23q65 28 92 82q21 40 0 53l-14 3q-26 0 -41.5 18.5t-11.5 45.5
q4 25 25 43.5t46 18.5z" />
    <glyph glyph-name="f_f_j" unicode="ffj" horiz-adv-x="930" 
d="M757 45l47 352q4 33 -8 48t-56 15h-157l-58 -415q-17 -123 -91 -219t-132 -96q-47 0 -51 35q-3 29 20 45q15 11 31 5q27 -10 46 -10.5t31 9.5t18.5 23t10.5 38t5.5 48t4.5 58.5t7 63.5l58 415h-220l-58 -415q-17 -123 -91 -219t-132 -96q-47 0 -51 35q-3 29 20 45
q15 11 31 5q27 -10 46 -10.5t31 9.5t18.5 23t10.5 38t5.5 48t4.5 58.5t7 63.5l58 415h-65l5 35l66 5q27 108 114.5 189t143.5 81q45 0 48 -33q3 -28 -21 -46q-17 -12 -34 -6q-31 11 -52.5 14t-37 -7t-24 -17.5t-16 -38.5t-10 -47.5t-8.5 -65.5q-2 -15 -3 -23h220
q27 108 114.5 189t143.5 81q45 0 48 -33q3 -28 -21 -46q-17 -12 -34 -6q-31 11 -52.5 14t-37 -7t-24 -17.5t-16 -38.5t-10 -47.5t-8.5 -65.5q-2 -15 -3 -23h157l164 10h10l-63 -465q-17 -123 -91 -219t-132 -96q-47 0 -51 35q-3 29 20 45q15 10 31 5q27 -10 46 -10.5t31 9.5
t19 23t10.5 38.5t5.5 48t4.5 58t6.5 63.5z" />
    <glyph glyph-name="f_j" unicode="fj" horiz-adv-x="610" 
d="M437 45l47 352q4 33 -8 48t-56 15h-157l-58 -415q-17 -123 -91 -219t-132 -96q-47 0 -51 35q-3 29 20 45q15 11 31 5q27 -10 46 -10.5t31 9.5t18.5 23t10.5 38t5.5 48t4.5 58.5t7 63.5l58 415h-65l5 35l66 5q27 108 114.5 189t143.5 81q45 0 48 -33q3 -28 -21 -46
q-17 -12 -34 -6q-31 11 -52.5 14t-37 -7t-24 -17.5t-16 -38.5t-10 -47.5t-8.5 -65.5q-2 -15 -3 -23h157l164 10h10l-63 -465q-17 -123 -91 -219t-132 -96q-47 0 -51 35q-3 29 20 45q15 11 31 5q27 -10 46 -10.5t31 9.5t19 23t10.5 38.5t5.5 48t4.5 58t6.5 63.5z" />
    <glyph glyph-name=".notdef" horiz-adv-x="590" 
d="M140 500h450l-70 -500h-450zM321 249l-172 236l-66 -469zM338 249l173 -231l65 465zM161 488l171 -229l234 229h-405zM329 240l-233 -228h401z" />
    <glyph glyph-name=".notdef" horiz-adv-x="590" 
d="M140 500h450l-70 -500h-450zM321 249l-172 236l-66 -469zM338 249l173 -231l65 465zM161 488l171 -229l234 229h-405zM329 240l-233 -228h401z" />
    <glyph glyph-name=".null" horiz-adv-x="0" 
 />
    <glyph glyph-name="nonmarkingreturn" horiz-adv-x="333" 
 />
    <glyph glyph-name="CR" unicode="&#xd;" horiz-adv-x="230" 
 />
    <glyph glyph-name="space" unicode=" " horiz-adv-x="230" 
 />
    <glyph glyph-name="exclam" unicode="!" horiz-adv-x="320" 
d="M103 53q4 26 25.5 44.5t47.5 18.5t42 -18.5t12 -44.5t-25 -44.5t-47 -18.5t-42.5 18.5t-12.5 44.5zM201 200h-25l22 497q2 29 19.5 51t51.5 22t43 -21.5t2 -51.5z" />
    <glyph glyph-name="quotedbl" unicode="&#x22;" horiz-adv-x="416" 
d="M424 760h-71l-8 -198h31zM274 760h-71l-8 -198h31z" />
    <glyph glyph-name="numbersign" unicode="#" horiz-adv-x="560" 
d="M66 207h142l16 120h-142l6 40h142l20 143h40l-20 -143h120l20 143h40l-20 -143h143l-6 -40h-143l-16 -120h143l-6 -40h-143l-20 -142h-40l20 142h-120l-20 -142h-40l20 142h-142zM264 327l-16 -120h120l16 120h-120z" />
    <glyph glyph-name="dollar" unicode="$" horiz-adv-x="535" 
d="M359 800h40l-13 -91q95 -3 164 -44l-14 -168h-27q-3 166 -128 172l-36 -254q192 -79 172 -220q-13 -88 -76 -142.5t-156 -60.5l-13 -92h-40l13 90q-106 3 -185 50l15 177h27q-8 -183 149 -187l40 284q-87 38 -131.5 87t-34.5 125q11 75 70.5 125.5t150.5 57.5zM409 163
q11 78 -81 131l-37 -260q49 8 80 42.5t38 86.5zM235 560q-10 -79 72 -126l33 231q-91 -12 -105 -105z" />
    <glyph glyph-name="percent" unicode="%" horiz-adv-x="980" 
d="M794 770h-44l-458 -830h45zM608 145q10 65 59 110t114 45q62 0 96.5 -45t23.5 -110q-10 -65 -59 -110t-114 -45q-62 0 -96.5 45t-23.5 110zM673 145q-10 -67 6.5 -101.5t56.5 -34.5q80 0 100 136q10 66 -6.5 100.5t-55.5 34.5q-82 0 -101 -135zM176 555q10 66 58.5 110.5
t113.5 44.5q62 0 97 -45t24 -110q-11 -66 -59.5 -110.5t-113.5 -44.5q-62 0 -96.5 45t-23.5 110zM241 555q-20 -136 62 -136q81 0 101 136q18 135 -63 135q-82 0 -100 -135z" />
    <glyph glyph-name="ampersand" unicode="&#x26;" horiz-adv-x="784" 
d="M279 345q33 0 43 29q10 28 -12 43q-21 14 -58 -1q-14 63 -7 121t45 99t97 41q53 0 75 -26t13 -71q-7 -34 26 -44q32 -9 57 15q14 14 17 34q6 51 -37 88t-124 37q-77 0 -134 -25.5t-84 -64.5t-35.5 -84.5t3.5 -87.5t40 -71q-42 -22 -70.5 -60t-38.5 -80.5t0.5 -86.5
t40 -79.5t87 -58t135.5 -22.5q69 0 132 24.5t104.5 65.5t65 90t17.5 103t-42 100q91 7 135 43.5t53 79.5q19 87 -36 120q-36 22 -69 6q-13 -6 -18 -17q-10 -22 1.5 -37.5t33.5 -15.5t39 18q12 13 22 -5q15 -25 -9 -54q-45 -54 -192 -54q-81 0 -141.5 -39.5t-67.5 -104.5
q-8 -86 48 -123q39 -25 73 -8q13 7 19 20q10 21 0 38.5t-26.5 17t-28.5 -18.5q-15 -28 -37 -9q-24 21 -21 58q4 54 71 71q26 7 59 7q70 0 92 -61q23 -60 -17 -129q-50 -87 -163 -108q-29 -5 -60 -5q-69 0 -117 29.5t-67.5 73.5t-16.5 96.5t31 98.5q22 -16 54 -16z" />
    <glyph glyph-name="quotesingle" unicode="'" horiz-adv-x="266" 
d="M274 760h-71l-8 -198h31z" />
    <glyph glyph-name="parenleft" unicode="(" horiz-adv-x="375" 
d="M241 295q-22 -125 -11 -284.5t62 -275.5h-25q-178 226 -131 560t289 560h25q-83 -116 -135.5 -264.5t-73.5 -295.5z" />
    <glyph glyph-name="parenright" unicode=")" horiz-adv-x="375" 
d="M216 295q-21 -146 -73.5 -295t-135.5 -265h25q242 226 289 560t-131 560h-25q50 -116 61.5 -275.5t-10.5 -284.5z" />
    <glyph glyph-name="asterisk" unicode="*" horiz-adv-x="442" 
d="M212 648q18 18 34 1q2 -3 5 -9.5t12.5 -23.5t25.5 -41q1 32 1 54t-0.5 25t0.5 12q2 11 9.5 17.5t17.5 6.5q11 0 17 -6.5t5 -17.5q0 -4 -2.5 -11t-9 -29t-14.5 -51q22 24 37 41t20 23.5t8 9.5q19 17 34 0q14 -18 -5 -35q-3 -3 -9 -6.5t-25.5 -16.5t-47.5 -33q32 3 52.5 7
t28 6t11.5 2q10 0 16.5 -7t5.5 -18q-1 -10 -9.5 -17t-19.5 -7q-4 0 -10.5 1t-27 4.5t-49.5 6.5q21 -19 36 -30.5t21 -15.5t8 -6q6 -7 4.5 -17.5t-9.5 -17.5q-21 -17 -35 0q-2 3 -5 8t-13 21.5t-25 39.5q-1 -29 -0.5 -50t1.5 -24t0 -11q-2 -11 -10 -18t-18 -7t-16.5 7
t-4.5 18q1 3 3 10t8 27t14 51q-23 -25 -37 -41.5t-18.5 -22.5t-6.5 -8q-9 -7 -19.5 -7t-16.5 7q-15 17 6 35q2 2 8 5.5t24 16t44 30.5q-30 -3 -51 -6.5t-28 -4.5t-10 -1q-23 0 -20 24q1 10 8.5 17.5t18.5 7.5q4 0 10.5 -1.5t26.5 -5.5t50 -7q-21 19 -36.5 32t-20.5 16.5
t-7 6.5q-15 17 5 34z" />
    <glyph glyph-name="plus" unicode="+" horiz-adv-x="560" 
d="M362 450l-23 -163h163l-6 -40h-163l-23 -162h-40l23 162h-162l6 40h162l23 163h40z" />
    <glyph glyph-name="comma" unicode="," horiz-adv-x="340" 
d="M176 123q46 0 60 -31t8 -71q-9 -65 -56.5 -116t-97.5 -68l-10 23q65 28 92 82q21 40 0 53q-6 3 -14 3q-26 0 -41.5 18t-11.5 45q4 25 25 43.5t46 18.5z" />
    <glyph glyph-name="hyphen" unicode="-" horiz-adv-x="560" 
d="M137 287h365l-6 -40h-365z" />
    <glyph glyph-name="period" unicode="." horiz-adv-x="320" 
d="M103 53q4 26 25.5 44.5t47.5 18.5t42 -18.5t12 -44.5t-25 -44.5t-47 -18.5t-42.5 18.5t-12.5 44.5z" />
    <glyph glyph-name="slash" unicode="/" horiz-adv-x="480" 
d="M490 770h-44l-358 -830h45z" />
    <glyph glyph-name="zero" unicode="0" horiz-adv-x="600" 
d="M100 325q9 66 32 124.5t58.5 106.5t88 76t113.5 28t106 -28.5t66 -75.5t29 -107t-3 -124q-9 -66 -32 -124.5t-58.5 -106.5t-88 -76t-113.5 -28q-81 0 -131 48.5t-65 122.5t-2 164zM210 325q-10 -86 -10 -152t25.5 -105.5t77.5 -39.5q75 0 116.5 79t60.5 218
q43 296 -93 296q-75 0 -116 -78t-61 -218z" />
    <glyph glyph-name="one" unicode="1" horiz-adv-x="420" 
d="M352 660l-78 -558q-6 -43 13 -58t98 -22l-3 -22h-345l3 22q81 7 104.5 22t29.5 58l59 420q6 39 -14.5 47t-100.5 8l3 23l221 60h10z" />
    <glyph glyph-name="two" unicode="2" horiz-adv-x="510" 
d="M344 621q51 0 69.5 -42.5t9.5 -108.5q-6 -42 -20 -77.5t-50 -89.5t-112.5 -121t-190.5 -142l-5 -40h420l11 82h-315q111 69 186 131.5t111 112.5t50 84t19 71q10 72 -35 125.5t-135 53.5q-93 0 -150 -37t-64 -88q-4 -26 10.5 -40.5t39.5 -14.5q21 0 35.5 11t16.5 27
q5 56 27 79.5t72 23.5z" />
    <glyph glyph-name="three" unicode="3" horiz-adv-x="535" 
d="M243 28q65 0 105 41.5t51 116.5q9 62 -23 100t-99 37h-34l5 38h27q61 0 99.5 39t48.5 108q7 51 -17 82t-69 31q-46 0 -66.5 -23t-25.5 -80q-2 -16 -16.5 -27t-35.5 -11q-25 0 -39.5 14.5t-10.5 40.5q7 51 63.5 88t147.5 37q86 0 133.5 -41t37.5 -108q-8 -58 -52.5 -102
t-112.5 -62v-2q72 -9 114 -49.5t31 -114.5q-13 -92 -88.5 -141.5t-183.5 -49.5q-84 0 -130 38t-36 95q4 23 22 35t42 12q21 0 32.5 -10.5t8.5 -26.5q-11 -54 6 -79.5t65 -25.5z" />
    <glyph glyph-name="four" unicode="4" horiz-adv-x="570" 
d="M367 220h-266l314 337zM553 150l9 70h-95l62 440h-67l-392 -424l-12 -86h300l-21 -150h100l21 150h95z" />
    <glyph glyph-name="five" unicode="5" horiz-adv-x="535" 
d="M220 357h-62l51 293h337l-12 -83h-297l-29 -165q75 9 133 -1t90 -32t51.5 -53.5t24 -61.5t0.5 -59q-13 -91 -87.5 -148t-186.5 -57q-82 0 -129 37.5t-40 87.5q4 26 22 40.5t45 14.5q21 0 32.5 -10.5t8.5 -26.5q-10 -52 9 -75t65 -23q55 0 99.5 38.5t54.5 108.5
q11 81 -29 127t-151 48z" />
    <glyph glyph-name="six" unicode="6" horiz-adv-x="565" 
d="M428 200q-12 -83 -49.5 -127.5t-90.5 -44.5q-68 0 -90 85t10 198q59 52 123 52q55 0 81 -44t16 -119zM539 210q11 84 -33 142.5t-126 58.5q-91 0 -167 -59q33 103 102 176.5t195 108.5l-3 33q-165 -30 -280 -143.5t-137 -272.5q-16 -113 33.5 -188.5t158.5 -75.5
q93 0 168 61t89 159z" />
    <glyph glyph-name="seven" unicode="7" horiz-adv-x="490" 
d="M223 0l326 620l4 30h-420l-29 -168h28q16 56 32.5 70.5t69.5 14.5h250l-381 -567h120z" />
    <glyph glyph-name="eight" unicode="8" horiz-adv-x="565" 
d="M468 506q-15 -99 -90 -139q-72 31 -104 65.5t-25 82.5t41.5 77t81.5 29q50 0 76.5 -30t19.5 -85zM431 150q-8 -55 -46 -88.5t-98 -33.5q-61 0 -91 38t-20 107q12 85 103 138q165 -67 152 -161zM532 177q8 57 -20 97.5t-105 77.5q63 21 103 62t46 87q10 74 -41 116.5
t-131 42.5q-83 0 -153.5 -46.5t-81.5 -123.5q-13 -95 99 -163q-71 -26 -116.5 -68.5t-52.5 -92.5q-12 -85 43.5 -130.5t150.5 -45.5t171 50t88 137z" />
    <glyph glyph-name="nine" unicode="9" horiz-adv-x="565" 
d="M228 450q12 84 48.5 127.5t90.5 43.5q67 0 89.5 -85t-9.5 -197q-60 -53 -122 -53q-55 0 -81.5 44.5t-15.5 119.5zM116 440q-12 -84 32 -143t126 -59q89 0 168 59q-34 -103 -102.5 -176.5t-194.5 -108.5l4 -32q164 30 279 143.5t137 272.5q16 113 -33.5 188.5t-158.5 75.5
q-93 0 -168 -61t-89 -159z" />
    <glyph glyph-name="colon" unicode=":" horiz-adv-x="320" 
d="M111 110q4 26 25.5 44.5t47.5 18.5t42 -18.5t12 -44.5t-25 -44.5t-47 -18.5t-42.5 18.5t-12.5 44.5zM150 390q4 26 25.5 44.5t47.5 18.5t42 -19t12 -44q-4 -26 -25 -45t-47 -19t-42.5 19t-12.5 45z" />
    <glyph glyph-name="semicolon" unicode=";" horiz-adv-x="340" 
d="M160 390q4 26 25.5 44.5t47.5 18.5t42 -19t12 -44q-4 -26 -25 -45t-47 -19t-42.5 19t-12.5 45zM176 123q46 0 60 -31t8 -71q-9 -65 -56.5 -116t-97.5 -68l-10 23q65 28 92 82q21 40 0 53q-6 3 -14 3q-26 0 -41.5 18t-11.5 45q4 25 25 43.5t46 18.5z" />
    <glyph glyph-name="less" unicode="&#x3c;" horiz-adv-x="480" 
d="M188 269l253 152l6 47l-311 -189l-4 -23l259 -188l7 46z" />
    <glyph glyph-name="equal" unicode="=" horiz-adv-x="560" 
d="M147 357h365l-6 -40h-365zM127 217h365l-6 -40h-365z" />
    <glyph glyph-name="greater" unicode="&#x3e;" horiz-adv-x="480" 
d="M366 269l-210 152l6 47l259 -189l-4 -23l-311 -188l7 46z" />
    <glyph glyph-name="question" unicode="?" horiz-adv-x="449" 
d="M396 550q4 33 -23.5 55t-83 41.5t-65.5 24.5q-38 20 -28 57q8 32 40 41q35 8 71 -19q28 -23 54.5 -51.5t49.5 -76.5t17 -92q-8 -55 -33.5 -91.5t-85.5 -66.5q-32 -16 -48 -31.5t-25 -49.5t-7 -91h-30q-88 188 64 249q9 4 34 13t36 14.5t27.5 16t24.5 24.5t11 33zM132 53
q4 26 25.5 44.5t47.5 18.5t42 -18.5t12 -44.5t-25 -44.5t-47 -18.5t-42.5 18.5t-12.5 44.5z" />
    <glyph glyph-name="at" unicode="@" horiz-adv-x="884" 
d="M563 249q-30 -105 -60 -156q-40 -69 -95 -69q-43 0 -48 58t24 125q55 150 144 150q26 0 39 -24.5t-4 -83.5zM667 375l-66 -50h-3q-3 30 -21.5 45.5t-47.5 15.5q-62 0 -121.5 -47.5t-93.5 -116.5q-25 -49 -27 -102t24 -91.5t78 -38.5q33 0 67.5 21.5t54.5 54.5
q-2 -32 14 -53t54 -21q84 0 154 75.5t87 195.5q21 148 -53 224.5t-208 76.5q-98 0 -193 -52.5t-161 -143.5t-81 -197q-20 -142 55.5 -234.5t215.5 -92.5q158 0 286 96l-7 18q-113 -81 -244 -81q-138 0 -197.5 76.5t-39.5 219.5q21 148 125 254.5t235 106.5q123 0 190 -64.5
t47 -210.5q-15 -105 -68.5 -167.5t-103.5 -62.5q-17 0 -26 7.5t-9.5 21.5t2.5 27t9 32l84 258h-11z" />
    <glyph glyph-name="A" unicode="A" horiz-adv-x="700" 
d="M621 82l-142 623h-59l-302 -623q-15 -30 -35 -41t-73 -19l-3 -22h225l3 22q-56 7 -66 33.5t14 71.5l53 111h237l27 -126q9 -41 -6.5 -62t-68.5 -28l-3 -22h270l3 22q-40 11 -54 22.5t-20 37.5zM398 582h2l64 -306h-210z" />
    <glyph glyph-name="B" unicode="B" horiz-adv-x="610" 
d="M456 366v2q64 17 109.5 60.5t53.5 101.5q11 77 -42.5 123.5t-163.5 46.5h-278l-3 -23q50 -7 63.5 -22.5t7.5 -57.5l-69 -495q-6 -42 -23.5 -57.5t-70.5 -22.5l-3 -22h308q110 0 177 50t79 135q18 139 -145 181zM268 343h70q91 0 129.5 -41.5t28.5 -111.5
q-21 -153 -171 -153h-100zM323 381h-50l40 281h80q140 0 120 -142q-10 -68 -54 -103.5t-136 -35.5z" />
    <glyph glyph-name="C" unicode="C" horiz-adv-x="640" 
d="M383 28q-99 0 -149 90t-30 232q19 142 95 231.5t175 89.5q83 0 128.5 -48t53.5 -116h27l10 143q-89 60 -214 60q-146 0 -254.5 -101.5t-130.5 -258.5t58 -258.5t226 -101.5q125 0 231 60l29 142h-27q-26 -68 -85.5 -116t-142.5 -48z" />
    <glyph glyph-name="D" unicode="D" horiz-adv-x="740" 
d="M225 37h120q82 0 145.5 46.5t97.5 115t46 151.5q20 145 -31 228.5t-180 83.5h-110zM340 0h-303l3 22q53 7 70.5 22.5t23.5 57.5l69 495q6 42 -7.5 57.5t-63.5 22.5l3 23h303q163 0 246 -93t60 -257q-22 -156 -133 -253t-271 -97z" />
    <glyph glyph-name="E" unicode="E" horiz-adv-x="600" 
d="M313 662l-41 -291h90q50 0 79 22t43 79h27l-34 -240h-27q1 57 -22 79t-72 22h-90l-41 -296h185q53 0 92 32.5t55 92.5h27l-32 -162h-515l3 22q53 7 70.5 22.5t23.5 57.5l69 495q6 42 -7.5 57.5t-63.5 22.5l3 23h505l-18 -163h-27q1 61 -26.5 93t-80.5 32h-175z" />
    <glyph glyph-name="F" unicode="F" horiz-adv-x="575" 
d="M264 318l-30 -216q-6 -42 7 -57.5t64 -22.5l-3 -22h-265l3 22q53 7 70.5 22.5t23.5 57.5l69 495q6 42 -7.5 57.5t-63.5 22.5l3 23h505l-18 -163h-27q1 61 -26.5 93t-80.5 32h-175l-43 -306h90q49 0 78 22t44 79h27l-34 -240h-27q1 57 -22 79t-72 22h-90z" />
    <glyph glyph-name="G" unicode="G" horiz-adv-x="710" 
d="M554 210l-18 -126q-68 -56 -153 -56q-99 0 -149 90t-30 232q19 142 95 231.5t175 89.5q83 0 128.5 -48t53.5 -116h27l10 143q-89 60 -214 60q-146 0 -254.5 -101.5t-130.5 -258.5t58 -258.5t226 -101.5q68 0 141.5 26t114.5 54l20 140q6 43 20 58t58 22l3 22h-250l-3 -22
q53 -7 65.5 -22.5t6.5 -57.5z" />
    <glyph glyph-name="H" unicode="H" horiz-adv-x="780" 
d="M743 597l-69 -495q-6 -42 7 -57.5t64 -22.5l-3 -22h-265l3 22q53 7 70.5 22.5t23.5 57.5l33 236h-340l-33 -236q-6 -42 7 -57.5t64 -22.5l-3 -22h-265l3 22q53 7 70.5 22.5t23.5 57.5l69 495q6 42 -7.5 57.5t-63.5 22.5l3 23h265l-3 -23q-53 -7 -70.5 -22.5t-23.5 -57.5
l-31 -221h340l31 221q6 42 -7.5 57.5t-63.5 22.5l3 23h265l-3 -23q-53 -7 -70.5 -22.5t-23.5 -57.5z" />
    <glyph glyph-name="I" unicode="I" horiz-adv-x="340" 
d="M303 597l-69 -495q-6 -42 7 -57.5t64 -22.5l-3 -22h-265l3 22q53 7 70.5 22.5t23.5 57.5l69 495q6 42 -7.5 57.5t-63.5 22.5l3 23h265l-3 -23q-53 -7 -70.5 -22.5t-23.5 -57.5z" />
    <glyph glyph-name="J" unicode="J" 
d="M363 597l-46 -327q-18 -127 -86 -203.5t-158 -76.5q-52 0 -57 35q-4 28 21 45q20 13 44 1q40 -19 61 -23t33.5 10t17 35.5t10.5 69.5l1.5 13.5t1.5 12t2 14.5l55 394q6 42 -7.5 57.5t-63.5 22.5l3 23h265l-3 -23q-53 -7 -70.5 -22.5t-23.5 -57.5z" />
    <glyph glyph-name="K" unicode="K" horiz-adv-x="734" 
d="M385 420l143 152q16 16 25 32t11.5 31.5t-11.5 26.5t-44 15l3 23h255l-3 -23q-102 -14 -160 -77l-203 -217l183 -261q60 -84 128 -100l-3 -22h-298l3 22q95 13 39 95l-120 175q-18 26 -30 33t-37 7l-32 -230q-6 -42 7 -57.5t64 -22.5l-3 -22h-265l3 22q53 7 70.5 22.5
t23.5 57.5l69 495q6 42 -7.5 57.5t-63.5 22.5l3 23h265l-3 -23q-53 -7 -70.5 -22.5t-23.5 -57.5l-31 -227q40 0 62.5 10.5t50.5 39.5z" />
    <glyph glyph-name="L" unicode="L" horiz-adv-x="580" 
d="M225 37h185q53 0 92 32.5t55 92.5h27l-32 -162h-515l3 22q53 7 70.5 22.5t23.5 57.5l69 495q6 42 -7.5 57.5t-63.5 22.5l3 23h265l-3 -23q-53 -7 -70.5 -22.5t-23.5 -57.5z" />
    <glyph glyph-name="M" unicode="M" horiz-adv-x="880" 
d="M474 140l279 560h187l-3 -23q-53 -7 -70.5 -22.5t-23.5 -57.5l-69 -495q-6 -42 7 -57.5t64 -22.5l-3 -22h-265l3 22q53 7 70.5 22.5t23.5 57.5l68 483l-296 -590h-50l-141 612l-71 -505q-6 -43 7.5 -58t71.5 -22l-3 -22h-223l3 22q59 7 77 22t24 58l69 495q6 43 -7.5 58
t-70.5 22l3 23h213z" />
    <glyph glyph-name="N" unicode="N" horiz-adv-x="730" 
d="M594 172l59 425q6 43 -7.5 58t-70.5 22l3 23h222l-3 -23q-57 -7 -76 -22.5t-25 -57.5l-83 -597h-61l-297 607l-71 -505q-6 -43 7.5 -58t71.5 -22l-3 -22h-223l3 22q56 7 75 22.5t25 57.5l69 495q6 42 -8.5 57.5t-68.5 22.5l3 23h205z" />
    <glyph glyph-name="O" unicode="O" horiz-adv-x="780" 
d="M94 350q21 155 136.5 257.5t258.5 102.5t229.5 -102.5t65.5 -257.5q-22 -155 -137.5 -257.5t-258.5 -102.5t-229.5 102.5t-64.5 257.5zM204 350q-20 -142 33 -232t156 -90q102 0 181.5 90t99.5 232q19 142 -34.5 231.5t-155.5 89.5q-103 0 -182 -89.5t-98 -231.5z" />
    <glyph glyph-name="P" unicode="P" horiz-adv-x="610" 
d="M267 335h70q96 0 144 45.5t59 119.5q6 30 1.5 59t-17 52t-41 37t-70.5 14h-100zM336 297h-75l-27 -195q-6 -42 7 -57.5t64 -22.5l-3 -22h-265l3 22q53 7 70.5 22.5t23.5 57.5l69 495q6 42 -7.5 57.5t-63.5 22.5l3 23h308q110 0 162.5 -52.5t40.5 -137.5q-6 -40 -25.5 -76
t-55 -67.5t-95 -50.5t-134.5 -19z" />
    <glyph glyph-name="Q" unicode="Q" horiz-adv-x="780" 
d="M94 350q21 155 136.5 257.5t258.5 102.5t229.5 -102.5t65.5 -257.5q-20 -139 -116 -237t-222 -117q31 -38 49.5 -58t57.5 -55.5t84 -56.5t96 -28l-2 -18q-76 -22 -121 -22t-84.5 20.5t-73 64.5t-48 67.5t-39.5 72.5q-4 6 -5 9q-133 10 -210 110t-56 248zM204 350
q-20 -142 33 -232t156 -90q102 0 181.5 90t99.5 232q19 142 -34.5 231.5t-155.5 89.5q-103 0 -182 -89.5t-98 -231.5z" />
    <glyph glyph-name="R" unicode="R" horiz-adv-x="670" 
d="M637 513q-23 -153 -195 -194l118 -206q18 -32 43.5 -56.5t51.5 -34.5l-3 -22h-145q-33 26 -67 95l-109 212h-68l-29 -205q-6 -42 7 -57.5t64 -22.5l-3 -22h-265l3 22q53 7 70.5 22.5t23.5 57.5l69 495q6 42 -7.5 57.5t-63.5 22.5l3 23h298q110 0 163 -51t41 -136z
M268 345h70q95 0 138.5 42t53.5 116q10 69 -18 114t-109 45h-90z" />
    <glyph glyph-name="S" unicode="S" horiz-adv-x="535" 
d="M346 415q190 -81 171 -220q-13 -94 -85 -149.5t-174 -55.5q-113 0 -198 50l15 177h27q-8 -187 157 -187q62 0 102 36t48 97q8 57 -27.5 92t-102.5 65q-81 37 -122.5 84.5t-31.5 121.5q11 81 78 132.5t168 51.5q103 0 179 -45l-14 -168h-27q-4 173 -137 173
q-56 0 -92.5 -27.5t-44.5 -82.5q-7 -52 23 -86t88 -59z" />
    <glyph glyph-name="T" unicode="T" horiz-adv-x="600" 
d="M665 700h-535l-28 -163h28q16 60 53 92.5t90 32.5h70l-79 -560q-6 -42 -23.5 -57.5t-70.5 -22.5l-3 -22h265l3 22q-51 7 -64 22.5t-7 57.5l79 560h70q53 0 80.5 -32t26.5 -93h27z" />
    <glyph glyph-name="U" unicode="U" horiz-adv-x="760" 
d="M637 280l44 317q6 42 -8 57.5t-71 22.5l3 23h225l-3 -23q-58 -7 -77 -22.5t-25 -57.5l-46 -327q-19 -133 -100.5 -206.5t-205.5 -73.5q-133 0 -188.5 73.5t-37.5 206.5l46 327q6 42 -7.5 57.5t-63.5 22.5l3 23h265l-3 -23q-53 -7 -70.5 -22.5t-23.5 -57.5l-44 -317
q-35 -245 152 -245q100 0 159.5 63.5t76.5 181.5z" />
    <glyph glyph-name="V" unicode="V" horiz-adv-x="700" 
d="M176 617l143 -622h58l301 622q15 30 35.5 41t73.5 19l3 23h-225l-3 -23q55 -7 65 -33.5t-14 -71.5l-215 -455h-2l-102 470q-9 41 6.5 62t69.5 28l3 23h-268l-3 -23q41 -11 54.5 -22.5t19.5 -37.5z" />
    <glyph glyph-name="W" unicode="W" horiz-adv-x="1010" 
d="M543 617l22 -132l-186 -364h-2l-86 466q-7 41 9 62t70 28l3 23h-268l-3 -23q41 -11 54 -22.5t18 -37.5l121 -622h58l222 427l74 -427h67l272 622q13 31 34 41.5t75 18.5l3 23h-225l-3 -23q55 -7 64.5 -33.5t-12.5 -71.5l-192 -451h-2l-69 466q-6 42 8.5 62.5t67.5 27.5
l3 23h-267l-3 -23q41 -11 54.5 -22.5t18.5 -37.5z" />
    <glyph glyph-name="X" unicode="X" horiz-adv-x="720" 
d="M245 597l118 -266l-191 -229q-27 -33 -57.5 -50t-84.5 -30l-3 -22h240l3 22q-29 5 -43.5 16.5t-14 27.5t9.5 33.5t25 37.5l134 160l68 -160q43 -102 -54 -115l-3 -22h300l3 22q-34 13 -47 19t-29 21.5t-27 39.5l-126 283l173 212q32 39 57.5 55t75.5 25l3 23h-230l-3 -23
q40 -4 55.5 -18t9 -34.5t-30.5 -49.5l-125 -155l-69 162q-18 34 -9.5 61.5t54.5 33.5l3 23h-290l-3 -23q46 -10 69 -27t39 -53z" />
    <glyph glyph-name="Y" unicode="Y" horiz-adv-x="640" 
d="M163 617l155 -382l-19 -133q-6 -42 -23.5 -57.5t-70.5 -22.5l-3 -22h265l3 22q-51 7 -64 22.5t-7 57.5l25 177l207 338q18 29 38.5 40.5t60.5 19.5l3 23h-205l-3 -23q92 -13 42 -95l-168 -270h-2l-103 275q-8 21 -10.5 33.5t1 25.5t18.5 20t42 11l3 23h-245l-3 -23
q27 -12 40.5 -24.5t22.5 -35.5z" />
    <glyph glyph-name="Z" unicode="Z" horiz-adv-x="600" 
d="M173 37l473 633l4 30h-488l-28 -163h28q16 61 53 93t90 32h215l-480 -635l-3 -27h515l32 162h-27q-16 -60 -54.5 -92.5t-92.5 -32.5h-237z" />
    <glyph glyph-name="bracketleft" unicode="[" horiz-adv-x="380" 
d="M298 -260l5 38h-155l146 1039h155l6 38h-240l-157 -1115h240z" />
    <glyph glyph-name="backslash" unicode="\" horiz-adv-x="480" 
d="M205 770h44l124 -830h-45z" />
    <glyph glyph-name="bracketright" unicode="]" horiz-adv-x="380" 
d="M8 -260l5 38h155l146 1039h-155l6 38h240l-157 -1115h-240z" />
    <glyph glyph-name="asciicircum" unicode="^" horiz-adv-x="510" 
d="M343 627l-155 -137h-25l178 230h30l112 -230h-25z" />
    <glyph glyph-name="underscore" unicode="_" horiz-adv-x="610" 
d="M90 -47h415l-6 -40h-415z" />
    <glyph glyph-name="grave" unicode="`" horiz-adv-x="369" 
d="M349 561l-13 -11l-128 104q-30 25 -6 55q20 25 47 21q17 -3 25 -20z" />
    <glyph glyph-name="a" unicode="a" horiz-adv-x="582" 
d="M552 505h-25l-41 -41q-41 46 -115 46q-107 0 -184 -75t-96 -185q-19 -112 20.5 -186t116.5 -74q58 0 97.5 33.5t70.5 100.5h2l-4 -34q-5 -38 12 -69t64 -31q55 0 88 34.5t59 106.5l-26 11q-18 -51 -38.5 -73t-36.5 -22q-29 0 -22 55zM273 52q-48 0 -70 50.5t-7 147.5
q16 107 61.5 167t103.5 60q87 0 66 -150l-8 -57q-12 -83 -52 -150.5t-94 -67.5z" />
    <glyph glyph-name="b" unicode="b" horiz-adv-x="560" 
d="M356 447q-53 0 -92.5 -67t-52.5 -150l-9 -58q-23 -150 67 -150q58 0 103.5 60t61.5 168q15 97 -7 147t-71 50zM103 177l65 450q6 43 -3.5 59t-57.5 16l2 23l170 45h10l-58 -395h2q30 66 70 100.5t98 34.5q78 0 117.5 -74t20.5 -186q-18 -110 -96 -185t-184 -75
q-86 0 -127 51.5t-29 135.5z" />
    <glyph glyph-name="c" unicode="c" horiz-adv-x="514" 
d="M270 -10q-100 0 -148 74.5t-33 180.5q17 123 93.5 194t173.5 71q81 0 125 -37t37 -88q-4 -26 -22.5 -40.5t-45.5 -14.5q-21 0 -32.5 10.5t-8.5 26.5q22 106 -56 106q-62 0 -105.5 -52.5t-55.5 -139.5q-15 -102 20.5 -158t97.5 -56q100 0 154 80h22q-26 -66 -82 -111.5
t-134 -45.5z" />
    <glyph glyph-name="d" unicode="d" horiz-adv-x="583" 
d="M273 52q54 0 94 67.5t51 150.5l26 193q-88 32 -158.5 -25.5t-90.5 -187.5q-14 -97 7.5 -147.5t70.5 -50.5zM451 500l17 127q6 41 -5 57.5t-56 17.5l2 23l170 45h10l-94 -668q-7 -55 22 -55q16 0 36.5 22t38.5 73l26 -11q-26 -72 -59 -106.5t-88 -34.5q-47 0 -64 31
t-12 69l4 34h-2q-31 -66 -71 -100t-98 -34q-77 0 -116.5 74t-20.5 186q16 99 73 164t132.5 85.5t154.5 0.5z" />
    <glyph glyph-name="e" unicode="e" horiz-adv-x="519" 
d="M356 510q96 0 138 -63q37 -55 5 -116q-40 -77 -162 -98q-66 -12 -149 -3q-1 -78 34 -120.5t88 -42.5q45 0 89 22.5t65 57.5h22q-26 -66 -82 -111.5t-134 -45.5q-100 0 -148 74.5t-33 180.5q17 123 93.5 194t173.5 71zM346 475q-60 0 -103 -57t-53 -154q122 -20 189 51
q44 47 36 101q-7 49 -52 57q-8 2 -17 2z" />
    <glyph glyph-name="f" unicode="f" horiz-adv-x="341" 
d="M105 45l58 415h-65l5 35l66 5q27 108 114.5 189t143.5 81q45 0 48 -33q3 -28 -21 -46q-17 -12 -34 -6q-31 11 -52.5 14t-37 -7t-24 -17.5t-16 -38.5t-10 -47.5t-8.5 -65.5q-2 -15 -3 -23h122l-6 -40h-122l-58 -415q-17 -123 -91 -219t-132 -96q-47 0 -51 35q-3 29 20 45
q15 11 31 5q27 -10 46 -10.5t31 9.5t18.5 23t10.5 38t5.5 48t4.5 58.5t7 63.5z" />
    <glyph glyph-name="g" unicode="g" horiz-adv-x="540" 
d="M191 325q-4 -69 19.5 -107t67.5 -38q52 0 80 40.5t34 108.5q5 66 -16.5 106t-65.5 40q-50 0 -82.5 -40.5t-36.5 -109.5zM310 -45l-135 20q-45 -61 -45 -125q0 -40 33.5 -62.5t88.5 -22.5q64 0 116 31.5t52 88.5q0 32 -28 47t-82 23zM177 165q-48 21 -71.5 63t-16.5 99
q12 81 77 132t154 51q53 0 121 -29l139 15l-8 -56h-104v-2q34 -51 27 -108q-12 -85 -74.5 -135t-151.5 -50q-37 0 -67 10q-2 -2 -7.5 -8t-7 -8t-6 -7t-6 -8t-3.5 -7.5t-3 -9t-1 -8.5q0 -28 59 -34l137 -15q70 -8 110.5 -40.5t40.5 -84.5q0 -87 -91 -141t-204 -54
q-185 0 -185 100q0 42 29.5 77.5t87.5 74.5q-30 5 -51 24.5t-21 49.5q0 51 97 109z" />
    <glyph glyph-name="h" unicode="h" horiz-adv-x="579" 
d="M385 102l34 255q6 42 -2 62.5t-35 20.5q-39 0 -95 -72.5t-67 -152.5l-30 -215h-100l87 627q6 41 -5 57.5t-56 17.5l2 23l170 45h10l-61 -427h2q41 73 91.5 120t102.5 47q107 0 87 -150l-35 -258q-7 -55 24 -55q40 0 82 95l23 -11q-49 -141 -153 -141q-90 0 -76 112z" />
    <glyph glyph-name="i" unicode="i" horiz-adv-x="337" 
d="M143 102l40 295q7 55 -23 55q-41 0 -82 -95l-23 11q50 142 153 142q90 0 75 -112l-40 -296q-7 -55 24 -55q40 0 82 95l23 -11q-49 -141 -153 -141q-90 0 -76 112zM205 671q4 28 26.5 48.5t50.5 20.5t45.5 -20t13.5 -49q-5 -28 -27.5 -48t-50.5 -20t-45.5 20t-12.5 48z
" />
    <glyph glyph-name="j" unicode="j" horiz-adv-x="297" 
d="M135 45l49 352q7 55 -23 55q-41 0 -82 -95l-23 11q50 142 153 142q90 0 75 -112l-49 -353q-17 -123 -91 -219t-132 -96q-47 0 -51 35q-3 29 20 45q15 11 31 5q27 -10 46 -10.5t31 9.5t18.5 23t10.5 38t5.5 48t4.5 58.5t7 63.5zM205 671q4 28 26.5 48.5t50.5 20.5
t45.5 -20t13.5 -49q-5 -28 -27.5 -48t-50.5 -20t-45.5 20t-12.5 48z" />
    <glyph glyph-name="k" unicode="k" horiz-adv-x="581" 
d="M298 770l-70 -492q51 7 101 27.5t90 63t35 96.5q-3 31 27 42q31 12 50 -12q11 -16 10 -40q-3 -40 -50.5 -90.5t-136.5 -82.5l104 -191q22 -41 51 -41q39 0 83 92l24 -11q-31 -72 -67 -106.5t-93 -34.5q-42 0 -66.5 22t-44.5 62l-91 181q-26 -3 -29 -4l-35 -251h-100
l87 627q6 43 -3.5 59t-57.5 16l2 23l170 45h10z" />
    <glyph glyph-name="l" unicode="l" horiz-adv-x="297" 
d="M103 102l73 525q6 43 -3.5 59t-57.5 16l2 23l170 45h10l-94 -668q-7 -55 24 -55q40 0 82 95l23 -11q-49 -141 -153 -141q-92 0 -76 112z" />
    <glyph glyph-name="m" unicode="m" horiz-adv-x="898" 
d="M539 215l-30 -215h-100l49 357q6 42 -2 62.5t-35 20.5q-39 0 -95 -72.5t-67 -152.5l-30 -215h-100l54 397q7 55 -23 55q-41 0 -82 -95l-23 11q50 142 153 142q90 0 75 -112l-7 -55h2q41 73 91.5 120t102.5 47q113 0 87 -150l-3 -17h2q41 73 91.5 120t102.5 47
q107 0 87 -150l-35 -258q-7 -55 24 -55q40 0 82 95l23 -11q-49 -141 -153 -141q-90 0 -76 112l34 255q6 42 -2 62.5t-35 20.5q-39 0 -95 -72.5t-67 -152.5z" />
    <glyph glyph-name="n" unicode="n" horiz-adv-x="618" 
d="M276 343h2q41 73 91.5 120t102.5 47q107 0 87 -150l-35 -258q-7 -55 24 -55q40 0 82 95l23 -11q-49 -141 -153 -141q-90 0 -76 112l34 255q6 42 -2 62.5t-35 20.5q-39 0 -95 -72.5t-67 -152.5l-30 -215h-100l54 397q7 55 -23 55q-41 0 -82 -95l-23 11q50 142 153 142
q90 0 75 -112z" />
    <glyph glyph-name="o" unicode="o" horiz-adv-x="560" 
d="M90 250q17 112 89 186t176 74q103 0 152.5 -74t32.5 -186q-19 -112 -91.5 -186t-175.5 -74q-104 0 -153 74t-30 186zM200 250q-32 -225 82 -225q116 0 148 225t-84 225q-114 0 -146 -225z" />
    <glyph glyph-name="p" unicode="p" horiz-adv-x="573" 
d="M370 447q-54 0 -94 -67.5t-51 -149.5l-26 -194q88 -32 158.5 25.5t90.5 188.5q14 96 -7.5 146.5t-70.5 50.5zM193 0l-23 -157q-6 -42 7.5 -57.5t63.5 -22.5l-3 -23h-253l3 23q46 7 61 22.5t21 57.5l93 657h100l-19 -125h2q31 66 71 100.5t98 34.5q77 0 116.5 -74
t20.5 -186q-16 -100 -73 -165t-132 -85t-154 0z" />
    <glyph glyph-name="q" unicode="q" horiz-adv-x="572" 
d="M273 52q-48 0 -70 50.5t-7 147.5q16 107 61.5 167t103.5 60q87 0 66 -150l-8 -57q-12 -83 -52 -150.5t-94 -67.5zM552 505h-25l-41 -41q-41 46 -115 46q-107 0 -184 -75t-96 -185q-19 -112 20.5 -186t116.5 -74q59 0 98.5 34t70.5 100h2l-40 -281q-6 -42 -23.5 -57.5
t-70.5 -22.5l-3 -23h255l3 23q-45 7 -56 22.5t-5 57.5z" />
    <glyph glyph-name="r" unicode="r" horiz-adv-x="476" 
d="M436 407q30 -3 46.5 23t4.5 53t-50 27q-90 0 -158 -163h-2l7 51q15 112 -76 112q-103 0 -153 -142l23 -11q41 95 82 95q31 0 23 -55l-54 -397h100l30 215q13 93 56.5 146.5t120.5 45.5z" />
    <glyph glyph-name="s" unicode="s" horiz-adv-x="480" 
d="M231 25q40 0 68.5 24t34.5 63q5 37 -19.5 59t-78.5 46q-67 29 -97 62.5t-22 92.5q8 61 61 99.5t134 38.5t125 -37t37 -88q-4 -23 -21.5 -36.5t-43.5 -13.5q-22 0 -33.5 10.5t-8.5 26.5q12 49 -1.5 76t-61.5 27q-36 0 -63 -19.5t-32 -54.5q-3 -21 3 -37t22 -27t28 -17
t36 -15q74 -30 110 -65.5t27 -97.5q-9 -69 -68.5 -110.5t-137.5 -41.5q-82 0 -126 37t-36 88q3 22 20.5 36t43.5 14q22 0 33.5 -10.5t8.5 -26.5q-22 -103 58 -103z" />
    <glyph glyph-name="t" unicode="t" horiz-adv-x="351" 
d="M253 460l-51 -358q-8 -55 25 -55q17 0 39 22t44 73l24 -11q-51 -141 -156 -141q-92 0 -76 112l51 358h-63l5 35l65 15l95 140h25l-21 -150h122l-6 -40h-122z" />
    <glyph glyph-name="u" unicode="u" horiz-adv-x="618" 
d="M432 157h-2q-41 -73 -91.5 -120t-102.5 -47q-107 0 -87 150l35 258q7 55 -24 55q-40 0 -82 -95l-23 11q49 141 153 141q90 0 76 -112l-34 -255q-6 -42 2 -62.5t35 -20.5q39 0 95 72.5t67 152.5l30 215h100l-54 -397q-7 -55 23 -55q41 0 82 95l23 -11q-50 -142 -153 -142
q-90 0 -75 112z" />
    <glyph glyph-name="v" unicode="v" horiz-adv-x="583" 
d="M269 -10q-69 0 -100 35t-20 115l35 257q7 55 -24 55q-41 0 -81 -95l-24 11q51 142 154 142q91 0 75 -113l-35 -255q-12 -87 72 -87q32 0 61 11t55 39t38.5 69.5t7.5 109.5t-32 153q-15 47 19 66q31 17 62 -4q22 -17 28 -47q22 -117 -14 -225.5t-111.5 -172.5t-165.5 -64z
" />
    <glyph glyph-name="w" unicode="w" horiz-adv-x="863" 
d="M432 156h-2q-42 -73 -92.5 -119.5t-102.5 -46.5t-74.5 35t-11.5 115l35 257q7 55 -24 55q-41 0 -81 -95l-24 11q51 142 154 142q91 0 75 -113l-35 -255q-6 -41 2 -61.5t35 -20.5q40 0 96 72t67 153l30 215h100l-50 -358q-12 -87 72 -87q32 0 61 11t55 39t38.5 69.5
t7.5 109.5t-32 153q-15 47 19 66q31 17 62 -4q22 -17 28 -47q22 -117 -14 -225.5t-111.5 -172.5t-165.5 -64q-64 0 -95 31t-25 100z" />
    <glyph glyph-name="x" unicode="x" horiz-adv-x="586" 
d="M205 413l71 -182l-101 -117q-18 -21 -30.5 -29t-19 -8.5t-21.5 3.5t-27 5q-37 3 -49 -29q-11 -32 14 -53q14 -13 38 -13q26 0 47.5 19t70.5 77l92 108l33 -84q13 -35 20 -49.5t20.5 -35t31 -28t42.5 -7.5q106 0 169 141l-23 11q-25 -48 -50 -70t-42 -22q-21 0 -37 37
l-81 204l81 95q17 21 30 29t19 8.5t22 -3.5t28 -5q36 -3 48 29q11 32 -13 53q-14 13 -38 13q-25 0 -48 -20t-71 -77l-73 -86l-24 63q-1 3 -3 8q-12 32 -18.5 46.5t-19.5 33t-30.5 25.5t-42.5 7q-107 0 -169 -142l23 -11q25 49 50 71t42 22q25 0 39 -37z" />
    <glyph glyph-name="y" unicode="y" horiz-adv-x="582" 
d="M285 397l-35 -255q-12 -87 72 -87q32 0 61 11t55 39t38.5 69.5t7.5 109.5t-32 153q-15 46 21 66q32 17 62 -5q22 -15 26 -46q22 -172 -39 -342t-173.5 -275t-234.5 -105q-48 0 -57 35q-8 29 14 45q15 11 35 5q94 -27 203 48.5t159 219.5l-1 1q-89 -94 -197 -94
q-69 0 -100 35t-20 115l35 257q7 55 -24 55q-41 0 -81 -95l-24 11q51 142 154 142q91 0 75 -113z" />
    <glyph glyph-name="z" unicode="z" horiz-adv-x="483" 
d="M111 100l1 -1q66 25 116 14.5t79 -35.5t52 -45.5t35 -15.5q10 4 10 27.5t-6 39.5q-10 32 18 44t49 -9q14 -14 14 -37q0 -44 -43 -74t-103 -30q-38 0 -76 10.5t-64 24.5t-47.5 27.5t-34 20t-15.5 2.5q-1 -6 -1 -8t4.5 -10.5t6.5 -15.5q7 -23 -9.5 -38t-36.5 -9.5t-24 32.5
q-3 25 26 69.5t117 129.5t231 198l-1 1q-39 -24 -76.5 -26t-62 9.5t-54 24t-48.5 12.5q-26 0 -41.5 -14.5t-41.5 -60.5l-24 11q34 77 70.5 110.5t93.5 33.5q45 0 99.5 -15t86 -26t35.5 -4q2 4 -1 8.5t-9 12.5t-8 17q-10 33 16 43q23 10 39 -11q7 -10 9 -24
q5 -50 -56.5 -115.5t-278.5 -256.5q-30 -27 -46 -41z" />
    <glyph glyph-name="braceleft" unicode="{" horiz-adv-x="430" 
d="M502 855l-4 -28q-71 -2 -110 -24t-51 -87q-3 -15 -12.5 -147t-15.5 -155q-7 -27 -21.5 -48t-38 -35.5t-39.5 -21.5t-43 -17q-7 -3 -11 -4v-1q2 -1 18.5 -8t21 -9t19 -10t19.5 -13t15 -15.5t14 -20t7.5 -23.5t2.5 -29q-1 -22 -27.5 -148t-27.5 -143q-3 -32 4 -51.5
t25.5 -29t36.5 -12.5t51 -6q9 -1 14 -1l-4 -28q-51 0 -82.5 2.5t-63 10.5t-47 24t-23 43.5t-1.5 67.5q3 26 32.5 134t29.5 148q1 54 -21 72t-85 26l5 36q67 12 94 30t40 71q11 41 13 154.5t5 136.5q13 95 75 127t186 32z" />
    <glyph glyph-name="bar" unicode="|" horiz-adv-x="235" 
d="M212 820h40l-130 -920h-40z" />
    <glyph glyph-name="braceright" unicode="}" horiz-adv-x="430" 
d="M10 -259l4 28q70 2 109 24t52 87q3 15 12.5 147t15.5 155q7 27 21.5 48t38 35.5t39.5 21.5t43 17q2 1 3.5 1.5t3.5 1t4 1.5v1q-2 1 -18.5 8t-21 9t-19 10t-19.5 13t-15 15.5t-14 20t-7.5 23.5t-2.5 29q1 22 27 149t28 142q3 32 -4 51.5t-25.5 29t-36.5 12.5t-51 6
q-9 1 -14 1l4 28q51 0 82.5 -2.5t63 -10.5t47 -24t23 -43.5t1.5 -67.5q-4 -24 -33.5 -133t-29.5 -149q-1 -54 21.5 -72.5t84.5 -26.5l-5 -36q-67 -12 -93.5 -29.5t-40.5 -70.5q-11 -40 -12.5 -153t-5.5 -138q-13 -95 -74.5 -127t-185.5 -32z" />
    <glyph glyph-name="asciitilde" unicode="~" horiz-adv-x="550" 
d="M159 317l-18 13q72 115 121 115q20 0 77.5 -20t76.5 -20q28 0 45 7.5t36 29.5l18 -12q-67 -105 -115 -105q-24 0 -80 20t-79 20q-25 0 -41.5 -10.5t-40.5 -37.5z" />
    <glyph glyph-name="exclamdown" unicode="&#xa1;" horiz-adv-x="320" 
d="M164 486q-4 -26 12.5 -44.5t42.5 -18.5q25 0 46.5 18.5t25.5 44.5t-12 45t-42 19t-47.5 -19t-25.5 -45zM220 340h-25l-117 -497q-6 -29 5 -51t45 -22t49.5 21.5t16.5 51.5z" />
    <glyph glyph-name="cent" unicode="&#xa2;" horiz-adv-x="540" 
d="M262 -100l13 91q-101 7 -150.5 79.5t-35.5 174.5q16 112 90.5 182.5t168.5 80.5l13 92h40l-13 -91q75 -3 115.5 -39.5t34.5 -84.5q-4 -26 -22.5 -40.5t-45.5 -14.5q-21 0 -32.5 10.5t-8.5 26.5q3 25 4.5 48t-11 40t-39.5 18l-57 -406q94 -1 174 41l-6 -40
q-91 -69 -179 -76l-13 -92h-40zM192 281q-12 -86 14 -138.5t81 -67.5l56 398q-60 -10 -100 -61.5t-51 -130.5z" />
    <glyph glyph-name="sterling" unicode="&#xa3;" horiz-adv-x="637" 
d="M125 346h80q0 12 -1 43t-1.5 47.5t1.5 42t6 46.5q17 79 86 132t166 53q81 0 123.5 -39t35.5 -90q-4 -25 -24 -40t-46 -15q-21 0 -32 10.5t-7 26.5q14 55 1 81t-63 26q-54 0 -90 -31t-46 -87q-7 -39 -12 -111t-8 -95h146l-5 -38h-146q-24 -158 -142 -257v-2q45 20 83.5 29
t70 7t51.5 -6.5t48.5 -15t40.5 -13.5q42 -11 72 5.5t58 84.5h27q-35 -87 -73 -126q-65 -68 -158 -51q-11 2 -35.5 12t-52 20t-61 18t-73 5t-78.5 -18l-8 30q85 54 114.5 120.5t32.5 157.5h-86z" />
    <glyph glyph-name="currency" unicode="&#xa4;" horiz-adv-x="513" 
d="M134 249q-9 -67 32 -114l-88 -86l8 -9l88 87q38 -35 95 -35q56 0 104 35l65 -87l10 9l-64 86q56 46 65 114q11 68 -33 115l90 89l-8 8l-90 -90q-39 36 -94 36q-56 0 -105 -36l-67 90l-9 -8l66 -90q-54 -45 -65 -114zM146 249q9 59 58 102.5t108 43.5t96.5 -43.5
t28.5 -102.5q-8 -59 -57.5 -102t-108.5 -43t-96 43t-29 102z" />
    <glyph glyph-name="yen" unicode="&#xa5;" horiz-adv-x="740" 
d="M481 277l200 340q17 29 37.5 40.5t61.5 19.5l3 23h-205l-3 -23q90 -13 42 -95l-160 -270h-2l-111 275q-11 28 -12.5 43.5t13 28.5t50.5 18l3 23h-245l-3 -23q27 -11 40 -23.5t23 -36.5l145 -340h-128l-5 -40h143l-19 -135q-6 -42 -23.5 -57.5t-70.5 -22.5l-3 -22h265
l3 22q-51 7 -64 22.5t-7 57.5l19 135h142l5 40h-134z" />
    <glyph glyph-name="brokenbar" unicode="&#xa6;" horiz-adv-x="235" 
d="M252 820l-51 -360h-40l51 360h40zM173 260l-51 -360h-40l51 360h40z" />
    <glyph glyph-name="section" unicode="&#xa7;" horiz-adv-x="565" 
d="M282 20q45 0 76.5 26.5t37.5 68.5q3 23 -3.5 40.5t-27.5 31.5t-32 19.5t-42 18.5q-65 28 -96 60t-23 90q9 62 62 99q-42 38 -34 101q9 60 60.5 97.5t128.5 37.5q79 0 122 -37.5t36 -87.5q-3 -24 -21 -37t-40 -13q-18 0 -29.5 8.5t-8.5 23.5q15 55 0.5 84t-68.5 29
q-45 0 -73 -21t-33 -59q-3 -23 3 -40t25.5 -30t31.5 -18.5t40 -16.5q67 -26 104.5 -60.5t28.5 -94.5q-9 -62 -59 -103q39 -41 31 -97q-9 -68 -70 -109t-136 -41q-78 0 -121 37t-36 88q3 24 21 37t40 13q18 0 29 -8.5t8 -23.5q-15 -55 -0.5 -84t68.5 -29zM319 425
q-37 16 -51 24q-17 -19 -22 -49q-3 -23 3 -40t25.5 -30t31.5 -18.5t40 -16.5q43 -17 59 -27q14 20 19 47q3 23 -3.5 40.5t-27.5 31.5t-32 19.5t-42 18.5z" />
    <glyph glyph-name="dieresis" unicode="&#xa8;" horiz-adv-x="500" 
d="M183 615q4 25 22 40.5t41 15.5q24 0 38 -15.5t10 -40.5t-22 -40t-42 -15t-37.5 15.5t-9.5 39.5zM377 615q4 25 22 40.5t42 15.5t38 -16t10 -40t-22 -39.5t-42 -15.5t-38 15.5t-10 39.5z" />
    <glyph glyph-name="copyright" unicode="&#xa9;" horiz-adv-x="920" 
d="M149 350q21 149 141 254.5t269 105.5t240 -105.5t70 -254.5t-141.5 -254.5t-269.5 -105.5t-239.5 105.5t-69.5 254.5zM185 350q-19 -134 62.5 -229t215.5 -95t242.5 95t127.5 229t-63 229t-216 95t-242 -95t-127 -229zM503 198q-100 0 -81 143q20 142 121 142
q80 0 94 -96h15l6 84q-48 36 -112 36q-43 0 -80.5 -15t-68.5 -53.5t-40 -97.5q-12 -86 31 -126t111 -40q64 0 122 36l18 83h-15q-13 -31 -23 -47.5t-35.5 -32.5t-62.5 -16z" />
    <glyph glyph-name="ordfeminine" unicode="&#xaa;" horiz-adv-x="385" 
d="M362 628l-25 -146q-5 -33 8.5 -39.5t41.5 0.5l-2 -10q-53 -36 -80 -36q-39 0 -33 48h-1q-59 -48 -99 -48q-26 0 -41 20.5t-11 51.5q9 53 84 67l85 15l9 59q12 70 -47 70q-24 0 -39.5 -11.5t-15.5 -24.5t5 -22q15 -16 -14 -31q-26 -13 -37 -3l-2 4q-12 31 34.5 74.5
t108.5 43.5q38 0 57 -21.5t14 -60.5zM275 463l10 70l-70 -17q-40 -10 -38 -46q-1 -16 7.5 -24.5t21.5 -8.5q28 0 69 26z" />
    <glyph glyph-name="guillemotleft" unicode="&#xab;" horiz-adv-x="730" 
d="M253 269l188 152l6 47l-311 -189l-4 -23l259 -188l7 46zM503 269l188 152l6 47l-311 -189l-4 -23l259 -188l7 46z" />
    <glyph glyph-name="logicalnot" unicode="&#xac;" horiz-adv-x="597" 
d="M539 287l-29 -202h-40l23 162h-362l6 40h402z" />
    <glyph glyph-name="uni00AD" unicode="&#xad;" horiz-adv-x="560" 
d="M137 287h365l-6 -40h-365z" />
    <glyph glyph-name="registered" unicode="&#xae;" horiz-adv-x="920" 
d="M657 410q-4 -30 -31 -54t-74 -33l54 -82q19 -29 56 -48l-2 -11h-85q-22 14 -36 41l-54 95h-28l-11 -77q-3 -25 5 -34t37 -14l-2 -11h-156l2 11q32 5 42 14t13 34l28 199q4 25 -4 34t-38 14l2 12h158q69 0 100 -21t24 -69zM460 338h47q36 0 59.5 20t28.5 52q5 34 -16 51.5
t-63 17.5h-36zM149 350q21 149 141 254.5t269 105.5t240 -105.5t70 -254.5t-141.5 -254.5t-269.5 -105.5t-239.5 105.5t-69.5 254.5zM185 350q-19 -134 62.5 -229t215.5 -95t242.5 95t127.5 229t-63 229t-216 95t-242 -95t-127 -229z" />
    <glyph glyph-name="macron" unicode="&#xaf;" horiz-adv-x="510" 
d="M186 637h315l-6 -40h-315z" />
    <glyph glyph-name="degree" unicode="&#xb0;" horiz-adv-x="375" 
d="M191 673q5 38 35 64t68 26q37 0 59.5 -26t17.5 -64t-35 -64t-68 -26t-60 26t-17 64zM224 673q-3 -24 11 -40.5t38 -16.5t43 16.5t22 40.5q4 24 -10.5 40.5t-38.5 16.5t-42.5 -16.5t-22.5 -40.5z" />
    <glyph glyph-name="plusminus" unicode="&#xb1;" horiz-adv-x="560" 
d="M113 117h162l18 130h-162l6 40h162l23 163h40l-23 -163h163l-6 -40h-163l-18 -130h163l-6 -40h-365z" />
    <glyph glyph-name="twosuperior" unicode="&#xb2;" 
d="M323 880q28 0 38 -24.5t4 -63.5q-4 -25 -12.5 -47t-30 -55t-66 -72.5t-110.5 -83.5l-4 -24h258l8 57h-183q64 41 108 76.5t64.5 64.5t29 49t11.5 42q6 43 -22 75t-83 32q-57 0 -91 -22t-39 -53q-2 -16 6 -26t26 -10q15 0 24.5 8t10.5 18q2 33 14 46t39 13z" />
    <glyph glyph-name="threesuperior" unicode="&#xb3;" 
d="M257 525q71 0 83 93q6 38 -12 59.5t-54 21.5h-19l3 24h9q37 0 61 22.5t30 65.5q4 30 -9.5 47.5t-35.5 17.5q-51 0 -51 -59q1 -10 -8.5 -18t-25.5 -8q-32 0 -32 26q2 37 36.5 61t89.5 24q54 0 83 -24.5t24 -64.5q-5 -36 -32.5 -62.5t-69.5 -36.5v-1q44 -6 70 -30t20 -68
q-8 -56 -53.5 -85.5t-112.5 -29.5q-55 0 -82 23t-17 62q6 26 40 26q15 0 22.5 -7.5t5.5 -17.5q-5 -33 3.5 -47t33.5 -14z" />
    <glyph glyph-name="acute" unicode="&#xb4;" horiz-adv-x="369" 
d="M175 561l12 -11l155 104q37 25 22 55q-12 24 -39 21q-19 -3 -33 -20z" />
    <glyph glyph-name="mu" unicode="&#xb5;" horiz-adv-x="618" 
d="M134 45l50 353q8 55 -24 55q-40 0 -82 -95l-23 11q49 141 153 141q90 0 76 -112l-34 -255q-6 -42 2 -62.5t35 -20.5q39 0 95 72.5t67 152.5l30 215h100l-54 -397q-7 -55 23 -55q41 0 82 95l23 -11q-50 -142 -153 -142q-90 0 -75 112l7 55h-2q-41 -73 -91.5 -120
t-102.5 -47q-9 0 -13 1q-29 -106 -95.5 -183.5t-116.5 -77.5q-47 0 -51 35q-3 29 20 45q15 11 31 5q27 -10 46 -10.5t31 9.5t18.5 23t10.5 38t5.5 48t4.5 58.5t7 63.5z" />
    <glyph glyph-name="paragraph" unicode="&#xb6;" horiz-adv-x="670" 
d="M372 300l-28 -200q-6 -43 -24 -58t-78 -22l-2 -20h140l98 700h-90q-82 0 -143.5 -53.5t-73.5 -136.5q-7 -53 9.5 -99t66 -78.5t125.5 -32.5zM528 700l-98 -700h140l2 20q-57 7 -70.5 22t-7.5 58l70 500q6 43 24 58t77 22l3 20h-140z" />
    <glyph glyph-name="periodcentered" unicode="&#xb7;" horiz-adv-x="356" 
d="M129 248q5 34 33 58t62 24t54.5 -24t15.5 -58q-4 -34 -31.5 -58.5t-61.5 -24.5t-55.5 24t-16.5 59z" />
    <glyph glyph-name="cedilla" unicode="&#xb8;" horiz-adv-x="372" 
d="M140 0h30l-6 -40q-2 -11 13.5 -17.5t34.5 -10t32.5 -20t9.5 -46.5q-7 -44 -63.5 -75.5t-119.5 -40.5l-5 30q1 0 21.5 6t29.5 10t25 12t24 19.5t10 25.5q2 17 -6.5 28t-19.5 16t-18 18t-3 35z" />
    <glyph glyph-name="onesuperior" unicode="&#xb9;" 
d="M363 906l-47 -333q-4 -25 7.5 -34.5t54.5 -13.5l-2 -15h-210l2 15q45 4 58.5 13.5t17.5 34.5l35 246q3 24 -8.5 30t-55.5 6l2 15l140 36h6z" />
    <glyph glyph-name="ordmasculine" unicode="&#xba;" horiz-adv-x="407" 
d="M133 552q11 67 58.5 112.5t110.5 45.5q64 0 98.5 -45.5t23.5 -112.5q-11 -65 -59.5 -110t-110.5 -45q-64 0 -98 45t-23 110zM198 552q-18 -133 62 -133q38 0 64 34t35 99q10 67 -6.5 102t-54.5 35q-80 0 -100 -137z" />
    <glyph glyph-name="guillemotright" unicode="&#xbb;" horiz-adv-x="730" 
d="M301 269l-145 152l6 47l259 -189l-4 -23l-311 -188l7 46zM551 269l-145 152l6 47l259 -189l-4 -23l-311 -188l7 46z" />
    <glyph glyph-name="onequarter" unicode="&#xbc;" horiz-adv-x="900" 
d="M290 706l-47 -333q-4 -25 7.5 -34.5t54.5 -13.5l-2 -15h-210l2 15q45 4 58.5 13.5t17.5 34.5l34 246q4 24 -7.5 30t-55.5 6l2 15l140 36h6zM701 710h-39l-342 -720h40zM743 132h-152l179 192zM861 84l7 48h-53l37 264h-47l-236 -254l-8 -58h175l-11 -84h72l11 84h53z" />
    <glyph glyph-name="onehalf" unicode="&#xbd;" horiz-adv-x="900" 
d="M290 706l-47 -333q-4 -25 7.5 -34.5t54.5 -13.5l-2 -15h-210l2 15q45 4 58.5 13.5t17.5 34.5l34 246q4 24 -7.5 30t-55.5 6l2 15l140 36h6zM686 710h-39l-342 -720h40zM773 370q54 0 41 -88q-3 -24 -12 -46.5t-30.5 -55.5t-66 -72.5t-110.5 -83.5l-3 -24h258l8 57h-183
q64 41 107.5 76.5t64.5 64.5t29 49t11 42q6 43 -21.5 75t-83.5 32q-57 0 -91 -22t-38 -53q-2 -16 6 -26t26 -10q15 0 24.5 8t9.5 18q2 32 14.5 45.5t39.5 13.5z" />
    <glyph glyph-name="threequarters" unicode="&#xbe;" horiz-adv-x="900" 
d="M706 710h-39l-342 -720h40zM210 325q71 0 83 93q5 38 -12.5 59.5t-53.5 21.5h-19l3 24h9q37 0 61 22.5t30 65.5q4 30 -9.5 47.5t-35.5 17.5q-52 0 -51 -59q1 -10 -8.5 -18t-25.5 -8q-32 0 -32 26q2 37 36.5 61t89.5 24q54 0 83 -24.5t24 -64.5q-5 -36 -32.5 -62.5
t-69.5 -36.5v-1q44 -6 70 -30t20 -68q-8 -56 -53.5 -85.5t-112.5 -29.5q-55 0 -82 23t-17 62q7 26 40 26q15 0 22 -7.5t6 -17.5q-5 -33 3.5 -47t33.5 -14zM743 132h-152l179 192zM861 84l7 48h-53l37 264h-47l-236 -254l-8 -58h175l-11 -84h72l11 84h53z" />
    <glyph glyph-name="questiondown" unicode="&#xbf;" horiz-adv-x="449" 
d="M128 -10q-4 -33 23 -55t82.5 -41.5t65.5 -24.5q39 -20 29 -57q-8 -31 -40 -40q-35 -10 -71 18q-28 22 -55 51.5t-49.5 77t-16.5 91.5q8 55 33.5 91t85.5 66q47 24 65 57t14 116h30q89 -188 -64 -250q-9 -4 -34 -13t-36 -14.5t-27 -16t-24 -24t-11 -32.5zM391 486
q-4 -26 -25.5 -44.5t-46.5 -18.5q-26 0 -42.5 18.5t-12.5 44.5t25.5 45t47.5 19t42 -19t12 -45z" />
    <glyph glyph-name="Agrave" unicode="&#xc0;" horiz-adv-x="700" 
d="M447 750l-127 104q-29 24 -7 54q18 25 46 22q17 -2 26 -20l75 -149zM621 82l-142 623h-59l-302 -623q-15 -30 -35 -41t-73 -19l-3 -22h225l3 22q-56 7 -66 33.5t14 71.5l53 111h237l27 -126q9 -41 -6.5 -62t-68.5 -28l-3 -22h270l3 22q-40 11 -54 22.5t-20 37.5zM398 582
h2l64 -306h-210z" />
    <glyph glyph-name="Aacute" unicode="&#xc1;" horiz-adv-x="700" 
d="M444 761l12 -11l156 104q37 25 21 55q-12 24 -39 21q-19 -3 -33 -20zM621 82l-142 623h-59l-302 -623q-15 -30 -35 -41t-73 -19l-3 -22h225l3 22q-56 7 -66 33.5t14 71.5l53 111h237l27 -126q9 -41 -6.5 -62t-68.5 -28l-3 -22h270l3 22q-40 11 -54 22.5t-20 37.5z
M398 582h2l64 -306h-210z" />
    <glyph glyph-name="Acircumflex" unicode="&#xc2;" horiz-adv-x="700" 
d="M469 840l-126 -90h-27l150 180h30l100 -180h-28zM621 82l-142 623h-59l-302 -623q-15 -30 -35 -41t-73 -19l-3 -22h225l3 22q-56 7 -66 33.5t14 71.5l53 111h237l27 -126q9 -41 -6.5 -62t-68.5 -28l-3 -22h270l3 22q-40 11 -54 22.5t-20 37.5zM398 582h2l64 -306h-210z
" />
    <glyph glyph-name="Atilde" unicode="&#xc3;" horiz-adv-x="700" 
d="M297 767l-18 13q72 115 121 115q20 0 78 -20t77 -20q28 0 44.5 7.5t35.5 29.5l18 -12q-67 -105 -115 -105q-24 0 -80 20t-79 20q-25 0 -41.5 -10.5t-40.5 -37.5zM621 82l-142 623h-59l-302 -623q-15 -30 -35 -41t-73 -19l-3 -22h225l3 22q-56 7 -66 33.5t14 71.5l53 111
h237l27 -126q9 -41 -6.5 -62t-68.5 -28l-3 -22h270l3 22q-40 11 -54 22.5t-20 37.5zM398 582h2l64 -306h-210z" />
    <glyph glyph-name="Adieresis" unicode="&#xc4;" horiz-adv-x="700" 
d="M310 815q4 25 22 40.5t41 15.5q24 0 38 -15.5t10 -40.5t-22 -40t-42 -15t-37.5 15.5t-9.5 39.5zM504 815q4 25 22 40.5t42 15.5t38 -16t10 -40t-22 -39.5t-42 -15.5t-38 15.5t-10 39.5zM621 82l-142 623h-59l-302 -623q-15 -30 -35 -41t-73 -19l-3 -22h225l3 22
q-56 7 -66 33.5t14 71.5l53 111h237l27 -126q9 -41 -6.5 -62t-68.5 -28l-3 -22h270l3 22q-40 11 -54 22.5t-20 37.5zM398 582h2l64 -306h-210z" />
    <glyph glyph-name="Aring" unicode="&#xc5;" horiz-adv-x="700" 
d="M368 782q5 38 35 64t68 26q37 0 59.5 -26t17.5 -64q-4 -28 -23 -51t-45 -33l141 -616q6 -26 20 -37.5t54 -22.5l-3 -22h-270l3 22q53 7 68.5 28t6.5 62l-26 125h-239l-52 -110q-24 -45 -14 -71.5t66 -33.5l-3 -22h-225l3 22q53 8 73 19t35 41l298 616q-26 8 -39 31t-9 53
zM400 582h-2l-144 -305h210zM401 782q-3 -24 11 -40.5t38 -16.5t43 16.5t22 40.5q4 24 -10.5 40.5t-38.5 16.5t-42.5 -16.5t-22.5 -40.5z" />
    <glyph glyph-name="AE" unicode="&#xc6;" horiz-adv-x="880" 
d="M559 700l-427 -618q-21 -30 -44.5 -41t-77.5 -19l-3 -22h225l3 22q-28 4 -42.5 12t-15.5 22t6.5 30t23.5 41l139 206h140l-32 -231q-6 -42 -23.5 -57.5t-70.5 -22.5l-3 -22h475l32 162h-27q-16 -60 -55 -92.5t-92 -32.5h-145l41 296h50q49 0 72 -22t22 -79h27l34 240h-27
q-14 -57 -43 -79t-79 -22h-50l41 291h135q53 0 80.5 -32t26.5 -93h27l18 163h-361zM520 587h2l-30 -216h-120z" />
    <glyph glyph-name="Ccedilla" unicode="&#xc7;" horiz-adv-x="640" 
d="M383 28q-99 0 -149 90t-30 232q19 142 95 231.5t175 89.5q83 0 128.5 -48t53.5 -116h27l10 143q-89 60 -214 60q-146 0 -254.5 -101.5t-130.5 -258.5q-21 -149 50.5 -249t203.5 -109l-8 -42q-4 -22 3.5 -35t18.5 -18t19 -15.5t6 -28.5q-2 -14 -10 -25.5t-24 -19.5
t-25 -12t-29.5 -10t-21.5 -6l5 -30q63 9 119.5 40.5t63.5 75.5q4 30 -9.5 46.5t-32.5 20t-34.5 10t-13.5 17.5l4 30q127 1 230 60l29 142h-27q-26 -68 -85.5 -116t-142.5 -48z" />
    <glyph glyph-name="Egrave" unicode="&#xc8;" horiz-adv-x="600" 
d="M431 750l-127 104q-29 24 -7 54q18 25 46 22q17 -2 26 -20l75 -149zM313 662l-41 -291h90q50 0 79 22t43 79h27l-34 -240h-27q1 57 -22 79t-72 22h-90l-41 -296h185q53 0 92 32.5t55 92.5h27l-32 -162h-515l3 22q53 7 70.5 22.5t23.5 57.5l69 495q6 42 -7.5 57.5
t-63.5 22.5l3 23h505l-18 -163h-27q1 61 -26.5 93t-80.5 32h-175z" />
    <glyph glyph-name="Eacute" unicode="&#xc9;" horiz-adv-x="600" 
d="M402 761l12 -11l156 104q37 25 21 55q-12 24 -39 21q-19 -3 -33 -20zM313 662l-41 -291h90q50 0 79 22t43 79h27l-34 -240h-27q1 57 -22 79t-72 22h-90l-41 -296h185q53 0 92 32.5t55 92.5h27l-32 -162h-515l3 22q53 7 70.5 22.5t23.5 57.5l69 495q6 42 -7.5 57.5
t-63.5 22.5l3 23h505l-18 -163h-27q1 61 -26.5 93t-80.5 32h-175z" />
    <glyph glyph-name="Ecircumflex" unicode="&#xca;" horiz-adv-x="600" 
d="M442 840l-126 -90h-27l150 180h30l100 -180h-28zM313 662l-41 -291h90q50 0 79 22t43 79h27l-34 -240h-27q1 57 -22 79t-72 22h-90l-41 -296h185q53 0 92 32.5t55 92.5h27l-32 -162h-515l3 22q53 7 70.5 22.5t23.5 57.5l69 495q6 42 -7.5 57.5t-63.5 22.5l3 23h505
l-18 -163h-27q1 61 -26.5 93t-80.5 32h-175z" />
    <glyph glyph-name="Edieresis" unicode="&#xcb;" horiz-adv-x="600" 
d="M293 815q4 25 22 40.5t41 15.5q24 0 38 -15.5t10 -40.5t-22 -40t-42 -15t-37.5 15.5t-9.5 39.5zM487 815q4 25 22 40.5t42 15.5t38 -16t10 -40t-22 -39.5t-42 -15.5t-38 15.5t-10 39.5zM313 662l-41 -291h90q50 0 79 22t43 79h27l-34 -240h-27q1 57 -22 79t-72 22h-90
l-41 -296h185q53 0 92 32.5t55 92.5h27l-32 -162h-515l3 22q53 7 70.5 22.5t23.5 57.5l69 495q6 42 -7.5 57.5t-63.5 22.5l3 23h505l-18 -163h-27q1 61 -26.5 93t-80.5 32h-175z" />
    <glyph glyph-name="Igrave" unicode="&#xcc;" horiz-adv-x="340" 
d="M273 750l-127 104q-29 24 -7 54q18 25 46 22q17 -2 26 -20l75 -149zM303 597l-69 -495q-6 -42 7 -57.5t64 -22.5l-3 -22h-265l3 22q53 7 70.5 22.5t23.5 57.5l69 495q6 42 -7.5 57.5t-63.5 22.5l3 23h265l-3 -23q-53 -7 -70.5 -22.5t-23.5 -57.5z" />
    <glyph glyph-name="Iacute" unicode="&#xcd;" horiz-adv-x="340" 
d="M266 761l12 -11l156 104q37 25 21 55q-12 24 -39 21q-19 -2 -33 -20zM303 597l-69 -495q-6 -42 7 -57.5t64 -22.5l-3 -22h-265l3 22q53 7 70.5 22.5t23.5 57.5l69 495q6 42 -7.5 57.5t-63.5 22.5l3 23h265l-3 -23q-53 -7 -70.5 -22.5t-23.5 -57.5z" />
    <glyph glyph-name="Icircumflex" unicode="&#xce;" horiz-adv-x="340" 
d="M288 840l-126 -90h-27l150 180h30l100 -180h-28zM303 597l-69 -495q-6 -42 7 -57.5t64 -22.5l-3 -22h-265l3 22q53 7 70.5 22.5t23.5 57.5l69 495q6 42 -7.5 57.5t-63.5 22.5l3 23h265l-3 -23q-53 -7 -70.5 -22.5t-23.5 -57.5z" />
    <glyph glyph-name="Idieresis" unicode="&#xcf;" horiz-adv-x="340" 
d="M131 815q4 25 22 40.5t41 15.5q24 0 38 -15.5t10 -40.5t-22 -40t-42 -15t-37.5 15.5t-9.5 39.5zM325 815q4 25 22 40.5t42 15.5t38 -16t10 -40t-22 -39.5t-42 -15.5t-38 15.5t-10 39.5zM305 597l-69 -495q-6 -42 7 -57.5t64 -22.5l-3 -22h-265l3 22q53 7 70.5 22.5
t23.5 57.5l69 495q6 42 -7.5 57.5t-63.5 22.5l3 23h265l-3 -23q-53 -7 -70.5 -22.5t-23.5 -57.5z" />
    <glyph glyph-name="Eth" unicode="&#xd0;" horiz-adv-x="740" 
d="M89 371h83l31 226q6 42 -7.5 57.5t-63.5 22.5l3 23h303q163 0 246 -93t60 -257q-22 -156 -133 -253t-271 -97h-303l3 22q53 7 70.5 22.5t23.5 57.5l32 231h-83zM225 37h120q82 0 145.5 46.5t97.5 115t46 151.5q20 145 -31 228.5t-180 83.5h-110l-41 -291h112l-6 -38h-112
z" />
    <glyph glyph-name="Ntilde" unicode="&#xd1;" horiz-adv-x="730" 
d="M349 767l-18 13q72 115 121 115q20 0 78 -20t77 -20q28 0 44.5 7.5t35.5 29.5l18 -12q-67 -105 -115 -105q-24 0 -80 20t-79 20q-25 0 -41.5 -10.5t-40.5 -37.5zM594 172l59 425q6 43 -7.5 58t-70.5 22l3 23h222l-3 -23q-57 -7 -76 -22.5t-25 -57.5l-83 -597h-61
l-297 607l-71 -505q-6 -43 7.5 -58t71.5 -22l-3 -22h-223l3 22q56 7 75 22.5t25 57.5l69 495q6 42 -8.5 57.5t-68.5 22.5l3 23h205z" />
    <glyph glyph-name="Ograve" unicode="&#xd2;" horiz-adv-x="780" 
d="M504 750l-127 104q-29 24 -7 54q18 25 46 22q17 -2 26 -20l75 -149zM94 350q21 155 136.5 257.5t258.5 102.5t229.5 -102.5t65.5 -257.5q-22 -155 -137.5 -257.5t-258.5 -102.5t-229.5 102.5t-64.5 257.5zM204 350q-20 -142 33 -232t156 -90q102 0 181.5 90t99.5 232
q19 142 -34.5 231.5t-155.5 89.5q-103 0 -182 -89.5t-98 -231.5z" />
    <glyph glyph-name="Oacute" unicode="&#xd3;" horiz-adv-x="780" 
d="M454 761l12 -11l156 104q37 25 21 55q-12 24 -39 21q-19 -3 -33 -20zM94 350q21 155 136.5 257.5t258.5 102.5t229.5 -102.5t65.5 -257.5q-22 -155 -137.5 -257.5t-258.5 -102.5t-229.5 102.5t-64.5 257.5zM204 350q-20 -142 33 -232t156 -90q102 0 181.5 90t99.5 232
q19 142 -34.5 231.5t-155.5 89.5q-103 0 -182 -89.5t-98 -231.5z" />
    <glyph glyph-name="Ocircumflex" unicode="&#xd4;" horiz-adv-x="780" 
d="M508 840l-126 -90h-27l150 180h30l100 -180h-28zM94 350q21 155 136.5 257.5t258.5 102.5t229.5 -102.5t65.5 -257.5q-22 -155 -137.5 -257.5t-258.5 -102.5t-229.5 102.5t-64.5 257.5zM204 350q-20 -142 33 -232t156 -90q102 0 181.5 90t99.5 232q19 142 -34.5 231.5
t-155.5 89.5q-103 0 -182 -89.5t-98 -231.5z" />
    <glyph glyph-name="Otilde" unicode="&#xd5;" horiz-adv-x="780" 
d="M341 767l-18 13q72 115 121 115q20 0 78 -20t77 -20q28 0 44.5 7.5t35.5 29.5l18 -12q-67 -105 -115 -105q-24 0 -80 20t-79 20q-25 0 -41.5 -10.5t-40.5 -37.5zM94 350q21 155 136.5 257.5t258.5 102.5t229.5 -102.5t65.5 -257.5q-22 -155 -137.5 -257.5t-258.5 -102.5
t-229.5 102.5t-64.5 257.5zM204 350q-20 -142 33 -232t156 -90q102 0 181.5 90t99.5 232q19 142 -34.5 231.5t-155.5 89.5q-103 0 -182 -89.5t-98 -231.5z" />
    <glyph glyph-name="Odieresis" unicode="&#xd6;" horiz-adv-x="780" 
d="M359 815q4 25 22 40.5t41 15.5q24 0 38 -15.5t10 -40.5t-22 -40t-42 -15t-37.5 15.5t-9.5 39.5zM553 815q4 25 22 40.5t42 15.5t38 -16t10 -40t-22 -39.5t-42 -15.5t-38 15.5t-10 39.5zM94 350q21 155 136.5 257.5t258.5 102.5t229.5 -102.5t65.5 -257.5
q-22 -155 -137.5 -257.5t-258.5 -102.5t-229.5 102.5t-64.5 257.5zM204 350q-20 -142 33 -232t156 -90q102 0 181.5 90t99.5 232q19 142 -34.5 231.5t-155.5 89.5q-103 0 -182 -89.5t-98 -231.5z" />
    <glyph glyph-name="multiply" unicode="&#xd7;" horiz-adv-x="550" 
d="M510 419l-172 -151l130 -151l-31 -27l-130 150l-171 -150l-23 28l171 150l-129 150l31 27l129 -150l172 150z" />
    <glyph glyph-name="Oslash" unicode="&#xd8;" horiz-adv-x="780" 
d="M94 350q21 155 136.5 257.5t258.5 102.5q135 0 219 -92l67 61l23 -30l-66 -60q71 -100 52 -239q-22 -155 -137.5 -257.5t-258.5 -102.5q-130 0 -217 87l-69 -63l-24 31l69 62q-74 99 -53 243zM204 350q-14 -100 11 -181l434 394q-52 108 -165 108q-103 0 -182 -89.5
t-98 -231.5zM674 350q13 94 -12 175l-432 -395q53 -102 163 -102q102 0 181.5 90t99.5 232z" />
    <glyph glyph-name="Ugrave" unicode="&#xd9;" horiz-adv-x="760" 
d="M511 750l-127 104q-29 24 -7 54q18 25 46 22q17 -2 26 -20l75 -149zM637 280l44 317q6 42 -8 57.5t-71 22.5l3 23h225l-3 -23q-58 -7 -77 -22.5t-25 -57.5l-46 -327q-19 -133 -100.5 -206.5t-205.5 -73.5q-133 0 -188.5 73.5t-37.5 206.5l46 327q6 42 -7.5 57.5
t-63.5 22.5l3 23h265l-3 -23q-53 -7 -70.5 -22.5t-23.5 -57.5l-44 -317q-35 -245 152 -245q100 0 159.5 63.5t76.5 181.5z" />
    <glyph glyph-name="Uacute" unicode="&#xda;" horiz-adv-x="760" 
d="M489 761l12 -11l156 104q37 25 21 55q-12 24 -39 21q-19 -3 -33 -20zM637 280l44 317q6 42 -8 57.5t-71 22.5l3 23h225l-3 -23q-58 -7 -77 -22.5t-25 -57.5l-46 -327q-19 -133 -100.5 -206.5t-205.5 -73.5q-133 0 -188.5 73.5t-37.5 206.5l46 327q6 42 -7.5 57.5
t-63.5 22.5l3 23h265l-3 -23q-53 -7 -70.5 -22.5t-23.5 -57.5l-44 -317q-35 -245 152 -245q100 0 159.5 63.5t76.5 181.5z" />
    <glyph glyph-name="Ucircumflex" unicode="&#xdb;" horiz-adv-x="760" 
d="M519 840l-126 -90h-27l150 180h30l100 -180h-28zM637 280l44 317q6 42 -8 57.5t-71 22.5l3 23h225l-3 -23q-58 -7 -77 -22.5t-25 -57.5l-46 -327q-19 -133 -100.5 -206.5t-205.5 -73.5q-133 0 -188.5 73.5t-37.5 206.5l46 327q6 42 -7.5 57.5t-63.5 22.5l3 23h265l-3 -23
q-53 -7 -70.5 -22.5t-23.5 -57.5l-44 -317q-35 -245 152 -245q100 0 159.5 63.5t76.5 181.5z" />
    <glyph glyph-name="Udieresis" unicode="&#xdc;" horiz-adv-x="760" 
d="M364 815q4 25 22 40.5t41 15.5q24 0 38 -15.5t10 -40.5t-22 -40t-42 -15t-37.5 15.5t-9.5 39.5zM558 815q4 25 22 40.5t42 15.5t38 -16t10 -40t-22 -39.5t-42 -15.5t-38 15.5t-10 39.5zM637 280l44 317q6 42 -8 57.5t-71 22.5l3 23h225l-3 -23q-58 -7 -77 -22.5
t-25 -57.5l-46 -327q-19 -133 -100.5 -206.5t-205.5 -73.5q-133 0 -188.5 73.5t-37.5 206.5l46 327q6 42 -7.5 57.5t-63.5 22.5l3 23h265l-3 -23q-53 -7 -70.5 -22.5t-23.5 -57.5l-44 -317q-35 -245 152 -245q100 0 159.5 63.5t76.5 181.5z" />
    <glyph glyph-name="Yacute" unicode="&#xdd;" horiz-adv-x="640" 
d="M437 761l12 -11l156 104q37 25 21 55q-12 24 -39 21q-19 -3 -33 -20zM163 617l155 -382l-19 -133q-6 -42 -23.5 -57.5t-70.5 -22.5l-3 -22h265l3 22q-51 7 -64 22.5t-7 57.5l25 177l207 338q18 29 38.5 40.5t60.5 19.5l3 23h-205l-3 -23q92 -13 42 -95l-168 -270h-2
l-103 275q-8 21 -10.5 33.5t1 25.5t18.5 20t42 11l3 23h-245l-3 -23q27 -12 40.5 -24.5t22.5 -35.5z" />
    <glyph glyph-name="Thorn" unicode="&#xde;" horiz-adv-x="610" 
d="M247 195h70q96 0 144.5 45.5t58.5 119.5q6 30 1.5 59t-17 52t-41 37t-70.5 14h-100zM134 102l69 495q6 42 -7.5 57.5t-63.5 22.5l3 23h265l-3 -23q-53 -7 -70.5 -22.5t-23.5 -57.5l-5 -37h125q110 0 163 -52.5t41 -137.5q-6 -40 -26 -76t-55.5 -67.5t-94.5 -50.5
t-134 -19h-75l-8 -55q-6 -42 7 -57.5t64 -22.5l-3 -22h-265l3 22q53 7 70.5 22.5t23.5 57.5z" />
    <glyph glyph-name="germandbls" unicode="&#xdf;" horiz-adv-x="623" 
d="M105 45l58 415h-65l5 35l66 5q23 136 96 203t163 67q77 0 114 -36t29 -94q-4 -33 -19.5 -60.5t-34.5 -45.5t-37.5 -34t-33 -35t-17.5 -40q-5 -32 33 -62l88 -71q39 -32 52 -74t-0.5 -81t-42 -72.5t-71 -54t-87.5 -20.5q-57 0 -87 26t-23 72q6 40 42 53q32 11 45 -8
q8 -12 0 -31q-18 -40 -11 -61t43 -21q40 0 67 29t35 64q7 34 -5 55.5t-44 48.5l-74 63q-22 18 -30 40t-6.5 40t15.5 44.5t25 41l33 43.5q20 27 35 68t19.5 81.5t-12 69.5t-54.5 29q-67 0 -97 -55.5t-48 -181.5l-64 -455q-18 -124 -91.5 -219.5t-131.5 -95.5q-47 0 -51 35
q-3 29 20 45q15 11 31 5q27 -10 46 -10.5t31 9.5t18.5 23t10.5 38t5.5 48t4.5 58.5t7 63.5z" />
    <glyph glyph-name="agrave" unicode="&#xe0;" horiz-adv-x="582" 
d="M552 505h-25l-41 -41q-41 46 -115 46q-107 0 -184 -75t-96 -185q-19 -112 20.5 -186t116.5 -74q58 0 97.5 33.5t70.5 100.5h2l-4 -34q-5 -38 12 -69t64 -31q55 0 88 34.5t59 106.5l-26 11q-18 -51 -38.5 -73t-36.5 -22q-29 0 -22 55zM273 52q-48 0 -70 50.5t-7 147.5
q16 107 61.5 167t103.5 60q87 0 66 -150l-8 -57q-12 -83 -52 -150.5t-94 -67.5zM412 561l-13 -11l-128 104q-30 25 -6 55q20 25 47 21q17 -3 25 -20z" />
    <glyph glyph-name="aacute" unicode="&#xe1;" horiz-adv-x="582" 
d="M552 505h-25l-41 -41q-41 46 -115 46q-107 0 -184 -75t-96 -185q-19 -112 20.5 -186t116.5 -74q58 0 97.5 33.5t70.5 100.5h2l-4 -34q-5 -38 12 -69t64 -31q55 0 88 34.5t59 106.5l-26 11q-18 -51 -38.5 -73t-36.5 -22q-29 0 -22 55zM273 52q-48 0 -70 50.5t-7 147.5
q16 107 61.5 167t103.5 60q87 0 66 -150l-8 -57q-12 -83 -52 -150.5t-94 -67.5zM369 561l12 -11l155 104q37 25 22 55q-12 24 -39 21q-19 -3 -33 -20z" />
    <glyph glyph-name="acircumflex" unicode="&#xe2;" horiz-adv-x="582" 
d="M552 505h-25l-41 -41q-41 46 -115 46q-107 0 -184 -75t-96 -185q-19 -112 20.5 -186t116.5 -74q58 0 97.5 33.5t70.5 100.5h2l-4 -34q-5 -38 12 -69t64 -31q55 0 88 34.5t59 106.5l-26 11q-18 -51 -38.5 -73t-36.5 -22q-29 0 -22 55zM273 52q-48 0 -70 50.5t-7 147.5
q16 107 61.5 167t103.5 60q87 0 66 -150l-8 -57q-12 -83 -52 -150.5t-94 -67.5zM405 640l-125 -90h-27l150 180h30l100 -180h-28z" />
    <glyph glyph-name="atilde" unicode="&#xe3;" horiz-adv-x="582" 
d="M552 505h-25l-41 -41q-41 46 -115 46q-107 0 -184 -75t-96 -185q-19 -112 20.5 -186t116.5 -74q58 0 97.5 33.5t70.5 100.5h2l-4 -34q-5 -38 12 -69t64 -31q55 0 88 34.5t59 106.5l-26 11q-18 -51 -38.5 -73t-36.5 -22q-29 0 -22 55zM273 52q-48 0 -70 50.5t-7 147.5
q16 107 61.5 167t103.5 60q87 0 66 -150l-8 -57q-12 -83 -52 -150.5t-94 -67.5zM226 567l-18 13q72 115 121 115q20 0 78 -20t77 -20q27 0 43.5 7.5t36.5 29.5l18 -12q-19 -29 -32.5 -47.5t-37.5 -38t-45 -19.5q-23 0 -79 20t-80 20q-25 0 -41.5 -10.5t-40.5 -37.5z" />
    <glyph glyph-name="adieresis" unicode="&#xe4;" horiz-adv-x="582" 
d="M552 505h-25l-41 -41q-41 46 -115 46q-107 0 -184 -75t-96 -185q-19 -112 20.5 -186t116.5 -74q58 0 97.5 33.5t70.5 100.5h2l-4 -34q-5 -38 12 -69t64 -31q55 0 88 34.5t59 106.5l-26 11q-18 -51 -38.5 -73t-36.5 -22q-29 0 -22 55zM273 52q-48 0 -70 50.5t-7 147.5
q16 107 61.5 167t103.5 60q87 0 66 -150l-8 -57q-12 -83 -52 -150.5t-94 -67.5zM239 615q4 25 22 40.5t41 15.5q24 0 38 -15.5t10 -40.5t-22 -40t-42 -15t-37.5 15.5t-9.5 39.5zM433 615q4 25 22 40.5t42 15.5t38 -16t10 -40t-22 -39.5t-42 -15.5t-38 15.5t-10 39.5z" />
    <glyph glyph-name="aring" unicode="&#xe5;" horiz-adv-x="582" 
d="M552 505h-25l-41 -41q-41 46 -115 46q-107 0 -184 -75t-96 -185q-19 -112 20.5 -186t116.5 -74q58 0 97.5 33.5t70.5 100.5h2l-4 -34q-5 -38 12 -69t64 -31q55 0 88 34.5t59 106.5l-26 11q-18 -51 -38.5 -73t-36.5 -22q-29 0 -22 55zM273 52q-48 0 -70 50.5t-7 147.5
q16 107 61.5 167t103.5 60q87 0 66 -150l-8 -57q-12 -83 -52 -150.5t-94 -67.5zM324 637q5 38 35 64t68 26q37 0 59.5 -26t17.5 -64t-35 -64t-68 -26t-60 26t-17 64zM357 637q-3 -24 11 -40.5t38 -16.5t43 16.5t22 40.5q4 24 -10.5 40.5t-38.5 16.5t-42.5 -16.5t-22.5 -40.5
z" />
    <glyph glyph-name="ae" unicode="&#xe6;" horiz-adv-x="749" 
d="M198 56q70 0 149 53q-16 44 -11 106l-120 -26q-66 -15 -66 -77q0 -27 13.5 -41.5t34.5 -14.5zM528 -10q-121 0 -170 92q-123 -92 -215 -92q-45 0 -72.5 35t-20.5 85q13 88 145 111l142 24l16 100q10 59 -11 89.5t-67 30.5q-32 0 -54.5 -12t-30.5 -28.5t-8 -33t9 -26.5
q21 -23 -16 -46q-36 -22 -63 -15q-11 4 -14 11q-7 24 9 57t48 64t82.5 52.5t103.5 21.5q84 0 108 -63q77 63 166 63q81 0 111 -54q31 -53 -10 -112q-59 -86 -220 -111q-27 -4 -56 -6q0 -76 33.5 -118t94.5 -42q102 0 154 80h22q-26 -66 -82 -111.5t-134 -45.5zM600 475
q-59 0 -103.5 -59t-54.5 -156q118 7 175 85q39 53 26 97q-11 32 -43 33z" />
    <glyph glyph-name="ccedilla" unicode="&#xe7;" horiz-adv-x="514" 
d="M486 147q-25 -63 -77.5 -107.5t-125.5 -48.5l-4 -31q-2 -11 13.5 -17.5t34.5 -10t32.5 -20t9.5 -46.5q-7 -44 -63.5 -75.5t-119.5 -40.5l-5 30q1 0 21.5 6t29.5 10t25 12t24 19.5t10 25.5q2 17 -6.5 28t-19.5 16t-18 18t-3 35l9 41q-91 7 -134.5 79.5t-29.5 174.5
q17 123 93.5 194t173.5 71q81 0 125 -37t37 -88q-4 -26 -22.5 -40.5t-45.5 -14.5q-21 0 -32.5 10.5t-8.5 26.5q22 106 -56 106q-62 0 -105.5 -52.5t-55.5 -139.5q-15 -102 20.5 -158t97.5 -56q100 0 154 80h22z" />
    <glyph glyph-name="egrave" unicode="&#xe8;" horiz-adv-x="519" 
d="M356 510q96 0 138 -63q37 -55 5 -116q-40 -77 -162 -98q-66 -12 -149 -3q-1 -78 34 -120.5t88 -42.5q45 0 89 22.5t65 57.5h22q-26 -66 -82 -111.5t-134 -45.5q-100 0 -148 74.5t-33 180.5q17 123 93.5 194t173.5 71zM346 475q-60 0 -103 -57t-53 -154q122 -20 189 51
q44 47 36 101q-7 49 -52 57q-8 2 -17 2zM409 561l-13 -11l-128 104q-30 25 -6 55q20 25 47 21q17 -3 25 -20z" />
    <glyph glyph-name="eacute" unicode="&#xe9;" horiz-adv-x="519" 
d="M356 510q96 0 138 -63q37 -55 5 -116q-40 -77 -162 -98q-66 -12 -149 -3q-1 -78 34 -120.5t88 -42.5q45 0 89 22.5t65 57.5h22q-26 -66 -82 -111.5t-134 -45.5q-100 0 -148 74.5t-33 180.5q17 123 93.5 194t173.5 71zM346 475q-60 0 -103 -57t-53 -154q122 -20 189 51
q44 47 36 101q-7 49 -52 57q-8 2 -17 2zM348 561l12 -11l155 104q37 25 22 55q-12 24 -39 21q-19 -3 -33 -20z" />
    <glyph glyph-name="ecircumflex" unicode="&#xea;" horiz-adv-x="519" 
d="M356 510q96 0 138 -63q37 -55 5 -116q-40 -77 -162 -98q-66 -12 -149 -3q-1 -78 34 -120.5t88 -42.5q45 0 89 22.5t65 57.5h22q-26 -66 -82 -111.5t-134 -45.5q-100 0 -148 74.5t-33 180.5q17 123 93.5 194t173.5 71zM346 475q-60 0 -103 -57t-53 -154q122 -20 189 51
q44 47 36 101q-7 49 -52 57q-8 2 -17 2zM383 640l-125 -90h-27l150 180h30l100 -180h-28z" />
    <glyph glyph-name="edieresis" unicode="&#xeb;" horiz-adv-x="519" 
d="M356 510q96 0 138 -63q37 -55 5 -116q-40 -77 -162 -98q-66 -12 -149 -3q-1 -78 34 -120.5t88 -42.5q45 0 89 22.5t65 57.5h22q-26 -66 -82 -111.5t-134 -45.5q-100 0 -148 74.5t-33 180.5q17 123 93.5 194t173.5 71zM346 475q-60 0 -103 -57t-53 -154q122 -20 189 51
q44 47 36 101q-7 49 -52 57q-8 2 -17 2zM231 615q4 25 22 40.5t41 15.5q24 0 38 -15.5t10 -40.5t-22 -40t-42 -15t-37.5 15.5t-9.5 39.5zM425 615q4 25 22 40.5t42 15.5t38 -16t10 -40t-22 -39.5t-42 -15.5t-38 15.5t-10 39.5z" />
    <glyph glyph-name="igrave" unicode="&#xec;" horiz-adv-x="337" 
d="M143 102l40 295q7 55 -23 55q-41 0 -82 -95l-23 11q50 142 153 142q90 0 75 -112l-40 -296q-7 -55 24 -55q40 0 82 95l23 -11q-49 -141 -153 -141q-90 0 -76 112zM269 561l-13 -11l-128 104q-30 25 -6 55q20 25 47 21q17 -3 25 -20z" />
    <glyph glyph-name="iacute" unicode="&#xed;" horiz-adv-x="337" 
d="M143 102l40 295q7 55 -23 55q-41 0 -82 -95l-23 11q50 142 153 142q90 0 75 -112l-40 -296q-7 -55 24 -55q40 0 82 95l23 -11q-49 -141 -153 -141q-90 0 -76 112zM233 561l12 -11l155 104q37 25 22 55q-12 24 -39 21q-19 -3 -33 -20z" />
    <glyph glyph-name="icircumflex" unicode="&#xee;" horiz-adv-x="337" 
d="M264 640l-125 -90h-27l150 180h30l100 -180h-28zM143 102l40 295q7 55 -23 55q-41 0 -82 -95l-23 11q50 142 153 142q90 0 75 -112l-40 -296q-7 -55 24 -55q40 0 82 95l23 -11q-49 -141 -153 -141q-90 0 -76 112z" />
    <glyph glyph-name="idieresis" unicode="&#xef;" horiz-adv-x="337" 
d="M143 102l40 295q7 55 -23 55q-41 0 -82 -95l-23 11q50 142 153 142q90 0 75 -112l-40 -296q-7 -55 24 -55q40 0 82 95l23 -11q-49 -141 -153 -141q-90 0 -76 112zM112 615q4 25 22 40.5t41 15.5q24 0 38 -15.5t10 -40.5t-22 -40t-42 -15t-37.5 15.5t-9.5 39.5zM306 615
q4 25 22 40.5t42 15.5t38 -16t10 -40t-22 -39.5t-42 -15.5t-38 15.5t-10 39.5z" />
    <glyph glyph-name="eth" unicode="&#xf0;" horiz-adv-x="562" 
d="M246 589l137 73q-27 73 -48 108h55q4 -8 49 -78l147 79l14 -34l-143 -77q131 -226 105 -405q-16 -119 -97.5 -192t-190.5 -73q-107 0 -164.5 71t-40.5 179t97 179t187 71q44 0 84 -16q-16 78 -42 153l-134 -72zM179 240q-30 -215 105 -215t165 215t-105 215t-165 -215z
" />
    <glyph glyph-name="ntilde" unicode="&#xf1;" horiz-adv-x="618" 
d="M276 343h2q41 73 91.5 120t102.5 47q107 0 87 -150l-35 -258q-7 -55 24 -55q40 0 82 95l23 -11q-49 -141 -153 -141q-90 0 -76 112l34 255q6 42 -2 62.5t-35 20.5q-39 0 -95 -72.5t-67 -152.5l-30 -215h-100l54 397q7 55 -23 55q-41 0 -82 -95l-23 11q50 142 153 142
q90 0 75 -112zM261 567l-18 13q72 115 121 115q20 0 78 -20t77 -20q27 0 43.5 7.5t36.5 29.5l18 -12q-19 -29 -32.5 -47.5t-37.5 -38t-45 -19.5q-23 0 -79 20t-80 20q-25 0 -41.5 -10.5t-40.5 -37.5z" />
    <glyph glyph-name="ograve" unicode="&#xf2;" horiz-adv-x="560" 
d="M90 250q17 112 89 186t176 74q103 0 152.5 -74t32.5 -186q-19 -112 -91.5 -186t-175.5 -74q-104 0 -153 74t-30 186zM200 250q-32 -225 82 -225q116 0 148 225t-84 225q-114 0 -146 -225zM417 561l-13 -11l-128 104q-30 25 -6 55q20 25 47 21q17 -3 25 -20z" />
    <glyph glyph-name="oacute" unicode="&#xf3;" horiz-adv-x="560" 
d="M90 250q17 112 89 186t176 74q103 0 152.5 -74t32.5 -186q-19 -112 -91.5 -186t-175.5 -74q-104 0 -153 74t-30 186zM200 250q-32 -225 82 -225q116 0 148 225t-84 225q-114 0 -146 -225zM358 561l12 -11l155 104q37 25 22 55q-12 24 -39 21q-19 -3 -33 -20z" />
    <glyph glyph-name="ocircumflex" unicode="&#xf4;" horiz-adv-x="560" 
d="M90 250q17 112 89 186t176 74q103 0 152.5 -74t32.5 -186q-19 -112 -91.5 -186t-175.5 -74q-104 0 -153 74t-30 186zM200 250q-32 -225 82 -225q116 0 148 225t-84 225q-114 0 -146 -225zM398 640l-125 -90h-27l150 180h30l100 -180h-28z" />
    <glyph glyph-name="otilde" unicode="&#xf5;" horiz-adv-x="560" 
d="M90 250q17 112 89 186t176 74q103 0 152.5 -74t32.5 -186q-19 -112 -91.5 -186t-175.5 -74q-104 0 -153 74t-30 186zM200 250q-32 -225 82 -225q116 0 148 225t-84 225q-114 0 -146 -225zM226 567l-18 13q72 115 121 115q20 0 78 -20t77 -20q27 0 43.5 7.5t36.5 29.5
l18 -12q-19 -29 -32.5 -47.5t-37.5 -38t-45 -19.5q-23 0 -79 20t-80 20q-25 0 -41.5 -10.5t-40.5 -37.5z" />
    <glyph glyph-name="odieresis" unicode="&#xf6;" horiz-adv-x="560" 
d="M90 250q17 112 89 186t176 74q103 0 152.5 -74t32.5 -186q-19 -112 -91.5 -186t-175.5 -74q-104 0 -153 74t-30 186zM200 250q-32 -225 82 -225q116 0 148 225t-84 225q-114 0 -146 -225zM239 615q4 25 22 40.5t41 15.5q24 0 38 -15.5t10 -40.5t-22 -40t-42 -15
t-37.5 15.5t-9.5 39.5zM433 615q4 25 22 40.5t42 15.5t38 -16t10 -40t-22 -39.5t-42 -15.5t-38 15.5t-10 39.5z" />
    <glyph glyph-name="divide" unicode="&#xf7;" horiz-adv-x="560" 
d="M249 121q3 23 20.5 38t39.5 15t35 -15.5t10 -37.5q-4 -22 -21 -37t-39 -15q-23 0 -36 15t-9 37zM289 412q4 23 21.5 38t39.5 15t35 -15.5t9 -37.5q-3 -22 -20 -37t-39 -15q-23 0 -36 15t-10 37zM137 287h365l-6 -40h-365z" />
    <glyph glyph-name="oslash" unicode="&#xf8;" horiz-adv-x="560" 
d="M548 510l24 -28l-56 -57q42 -71 26 -175q-19 -112 -91.5 -186t-175.5 -74q-89 0 -137 53l-52 -53l-26 27l56 56q-43 70 -24 177q17 112 89 186t176 74q85 0 137 -55zM202 250q-8 -58 -5 -95l234 237q-17 83 -83 83q-114 0 -146 -225zM432 250q7 52 4 94l-235 -237
q15 -82 83 -82q116 0 148 225z" />
    <glyph glyph-name="ugrave" unicode="&#xf9;" horiz-adv-x="618" 
d="M432 157h-2q-41 -73 -91.5 -120t-102.5 -47q-107 0 -87 150l35 258q7 55 -24 55q-40 0 -82 -95l-23 11q49 141 153 141q90 0 76 -112l-34 -255q-6 -42 2 -62.5t35 -20.5q39 0 95 72.5t67 152.5l30 215h100l-54 -397q-7 -55 23 -55q41 0 82 95l23 -11q-50 -142 -153 -142
q-90 0 -75 112zM399 561l-13 -11l-128 104q-30 25 -6 55q20 25 47 21q17 -3 25 -20z" />
    <glyph glyph-name="uacute" unicode="&#xfa;" horiz-adv-x="618" 
d="M432 157h-2q-41 -73 -91.5 -120t-102.5 -47q-107 0 -87 150l35 258q7 55 -24 55q-40 0 -82 -95l-23 11q49 141 153 141q90 0 76 -112l-34 -255q-6 -42 2 -62.5t35 -20.5q39 0 95 72.5t67 152.5l30 215h100l-54 -397q-7 -55 23 -55q41 0 82 95l23 -11q-50 -142 -153 -142
q-90 0 -75 112zM365 561l12 -11l155 104q37 25 22 55q-12 24 -39 21q-19 -3 -33 -20z" />
    <glyph glyph-name="ucircumflex" unicode="&#xfb;" horiz-adv-x="618" 
d="M432 157h-2q-41 -73 -91.5 -120t-102.5 -47q-107 0 -87 150l35 258q7 55 -24 55q-40 0 -82 -95l-23 11q49 141 153 141q90 0 76 -112l-34 -255q-6 -42 2 -62.5t35 -20.5q39 0 95 72.5t67 152.5l30 215h100l-54 -397q-7 -55 23 -55q41 0 82 95l23 -11q-50 -142 -153 -142
q-90 0 -75 112zM400 640l-125 -90h-27l150 180h30l100 -180h-28z" />
    <glyph glyph-name="udieresis" unicode="&#xfc;" horiz-adv-x="618" 
d="M432 157h-2q-41 -73 -91.5 -120t-102.5 -47q-107 0 -87 150l35 258q7 55 -24 55q-40 0 -82 -95l-23 11q49 141 153 141q90 0 76 -112l-34 -255q-6 -42 2 -62.5t35 -20.5q39 0 95 72.5t67 152.5l30 215h100l-54 -397q-7 -55 23 -55q41 0 82 95l23 -11q-50 -142 -153 -142
q-90 0 -75 112zM241 615q4 25 22 40.5t41 15.5q24 0 38 -15.5t10 -40.5t-22 -40t-42 -15t-37.5 15.5t-9.5 39.5zM435 615q4 25 22 40.5t42 15.5t38 -16t10 -40t-22 -39.5t-42 -15.5t-38 15.5t-10 39.5z" />
    <glyph glyph-name="yacute" unicode="&#xfd;" horiz-adv-x="582" 
d="M285 397l-35 -255q-12 -87 72 -87q32 0 61 11t55 39t38.5 69.5t7.5 109.5t-32 153q-15 46 21 66q32 17 62 -5q22 -15 26 -46q22 -172 -39 -342t-173.5 -275t-234.5 -105q-48 0 -57 35q-8 29 14 45q15 11 35 5q94 -27 203 48.5t159 219.5l-1 1q-89 -94 -197 -94
q-69 0 -100 35t-20 115l35 257q7 55 -24 55q-41 0 -81 -95l-24 11q51 142 154 142q91 0 75 -113zM347 561l12 -11l155 104q37 25 22 55q-12 24 -39 21q-19 -3 -33 -20z" />
    <glyph glyph-name="thorn" unicode="&#xfe;" horiz-adv-x="573" 
d="M370 447q-54 0 -94 -67.5t-51 -149.5l-26 -194q88 -32 158.5 25.5t90.5 188.5q14 96 -7.5 146.5t-70.5 50.5zM70 -157l111 784q6 43 -4 59t-58 16l3 23l170 45h9l-57 -395h2q31 66 71 100.5t98 34.5q77 0 116.5 -74t20.5 -186q-16 -100 -73 -165t-132 -85t-154 0
l-23 -157q-6 -42 7.5 -57.5t63.5 -22.5l-3 -23h-253l3 23q46 7 61 22.5t21 57.5z" />
    <glyph glyph-name="ydieresis" unicode="&#xff;" horiz-adv-x="582" 
d="M285 397l-35 -255q-12 -87 72 -87q32 0 61 11t55 39t38.5 69.5t7.5 109.5t-32 153q-15 46 21 66q32 17 62 -5q22 -15 26 -46q22 -172 -39 -342t-173.5 -275t-234.5 -105q-48 0 -57 35q-8 29 14 45q15 11 35 5q94 -27 203 48.5t159 219.5l-1 1q-89 -94 -197 -94
q-69 0 -100 35t-20 115l35 257q7 55 -24 55q-41 0 -81 -95l-24 11q51 142 154 142q91 0 75 -113zM237 615q4 25 22 40.5t41 15.5q24 0 38 -15.5t10 -40.5t-22 -40t-42 -15t-37.5 15.5t-9.5 39.5zM431 615q4 25 22 40.5t42 15.5t38 -16t10 -40t-22 -39.5t-42 -15.5t-38 15.5
t-10 39.5z" />
    <glyph glyph-name="Amacron" unicode="&#x100;" horiz-adv-x="700" 
d="M310 837h315l-5 -40h-315zM621 82l-142 623h-59l-302 -623q-15 -30 -35 -41t-73 -19l-3 -22h225l3 22q-56 7 -66 33.5t14 71.5l53 111h237l27 -126q9 -41 -6.5 -62t-68.5 -28l-3 -22h270l3 22q-40 11 -54 22.5t-20 37.5zM398 582h2l64 -306h-210z" />
    <glyph glyph-name="amacron" unicode="&#x101;" horiz-adv-x="582" 
d="M552 505h-25l-41 -41q-41 46 -115 46q-107 0 -184 -75t-96 -185q-19 -112 20.5 -186t116.5 -74q58 0 97.5 33.5t70.5 100.5h2l-4 -34q-5 -38 12 -69t64 -31q55 0 88 34.5t59 106.5l-26 11q-18 -51 -38.5 -73t-36.5 -22q-29 0 -22 55zM273 52q-48 0 -70 50.5t-7 147.5
q16 107 61.5 167t103.5 60q87 0 66 -150l-8 -57q-12 -83 -52 -150.5t-94 -67.5zM247 637h315l-6 -40h-315z" />
    <glyph glyph-name="Abreve" unicode="&#x102;" horiz-adv-x="700" 
d="M457 770q63 0 101.5 45t46.5 106h-25q-13 -37 -45 -57.5t-68 -20.5t-62 20.5t-29 57.5h-26q-8 -61 18 -106t89 -45zM621 82l-142 623h-59l-302 -623q-15 -30 -35 -41t-73 -19l-3 -22h225l3 22q-56 7 -66 33.5t14 71.5l53 111h237l27 -126q9 -41 -6.5 -62t-68.5 -28
l-3 -22h270l3 22q-40 11 -54 22.5t-20 37.5zM398 582h2l64 -306h-210z" />
    <glyph glyph-name="abreve" unicode="&#x103;" horiz-adv-x="582" 
d="M552 505h-25l-41 -41q-41 46 -115 46q-107 0 -184 -75t-96 -185q-19 -112 20.5 -186t116.5 -74q58 0 97.5 33.5t70.5 100.5h2l-4 -34q-5 -38 12 -69t64 -31q55 0 88 34.5t59 106.5l-26 11q-18 -51 -38.5 -73t-36.5 -22q-29 0 -22 55zM273 52q-48 0 -70 50.5t-7 147.5
q16 107 61.5 167t103.5 60q87 0 66 -150l-8 -57q-12 -83 -52 -150.5t-94 -67.5zM398 570q63 0 101.5 45t46.5 106h-25q-13 -37 -45 -57.5t-68 -20.5t-62 20.5t-29 57.5h-26q-8 -61 18 -106t89 -45z" />
    <glyph glyph-name="Aogonek" unicode="&#x104;" horiz-adv-x="700" 
d="M621 82l-142 623h-59l-302 -623q-15 -30 -35 -41t-73 -19l-3 -22h225l3 22q-56 7 -66 33.5t14 71.5l52 110h239l26 -125q9 -41 -6.5 -62t-68.5 -28l-3 -22h135q-97 -62 -111 -137q-10 -56 30 -79q18 -11 42 -11q50 0 87 40l3 20q-75 -29 -92 16q-15 40 25 100
q19 29 46 51h105l3 22q-40 11 -54 22.5t-20 37.5zM398 582h2l64 -305h-210z" />
    <glyph glyph-name="aogonek" unicode="&#x105;" horiz-adv-x="582" 
d="M515 -187l3 20q-75 -29 -92 16q-15 41 25 101q15 22 35 41q47 5 77 39t54 101l-26 11q-18 -51 -38.5 -73t-36.5 -22q-29 0 -22 55l58 403h-25l-41 -41q-41 46 -115 46q-107 0 -184 -75t-96 -185q-19 -112 20.5 -186t116.5 -74q58 0 97.5 33.5t70.5 100.5h2l-4 -34
q-5 -34 9 -63.5t51 -35.5q-65 -45 -88 -97.5t-4 -86.5t66 -34q50 0 87 40zM273 52q-48 0 -70 50.5t-7 147.5q16 107 61.5 167t103.5 60q87 0 66 -150l-8 -57q-12 -83 -52 -150.5t-94 -67.5z" />
    <glyph glyph-name="Cacute" unicode="&#x106;" horiz-adv-x="640" 
d="M460 761l12 -11l156 104q37 25 21 55q-12 24 -39 21q-19 -3 -33 -20zM383 28q-99 0 -149 90t-30 232q19 142 95 231.5t175 89.5q83 0 128.5 -48t53.5 -116h27l10 143q-89 60 -214 60q-146 0 -254.5 -101.5t-130.5 -258.5t58 -258.5t226 -101.5q125 0 231 60l29 142h-27
q-26 -68 -85.5 -116t-142.5 -48z" />
    <glyph glyph-name="cacute" unicode="&#x107;" horiz-adv-x="514" 
d="M270 -10q-100 0 -148 74.5t-33 180.5q17 123 93.5 194t173.5 71q81 0 125 -37t37 -88q-4 -26 -22.5 -40.5t-45.5 -14.5q-21 0 -32.5 10.5t-8.5 26.5q22 106 -56 106q-62 0 -105.5 -52.5t-55.5 -139.5q-15 -102 20.5 -158t97.5 -56q100 0 154 80h22q-26 -66 -82 -111.5
t-134 -45.5zM364 561l12 -11l155 104q37 25 22 55q-12 24 -39 21q-19 -3 -33 -20z" />
    <glyph glyph-name="Ccircumflex" unicode="&#x108;" horiz-adv-x="640" 
d="M489 840l-126 -90h-27l150 180h30l100 -180h-28zM383 28q-99 0 -149 90t-30 232q19 142 95 231.5t175 89.5q83 0 128.5 -48t53.5 -116h27l10 143q-89 60 -214 60q-146 0 -254.5 -101.5t-130.5 -258.5t58 -258.5t226 -101.5q125 0 231 60l29 142h-27q-26 -68 -85.5 -116
t-142.5 -48z" />
    <glyph glyph-name="ccircumflex" unicode="&#x109;" horiz-adv-x="514" 
d="M270 -10q-100 0 -148 74.5t-33 180.5q17 123 93.5 194t173.5 71q81 0 125 -37t37 -88q-4 -26 -22.5 -40.5t-45.5 -14.5q-21 0 -32.5 10.5t-8.5 26.5q22 106 -56 106q-62 0 -105.5 -52.5t-55.5 -139.5q-15 -102 20.5 -158t97.5 -56q100 0 154 80h22q-26 -66 -82 -111.5
t-134 -45.5zM394 640l-125 -90h-27l150 180h30l100 -180h-28z" />
    <glyph glyph-name="Cdotaccent" unicode="&#x10a;" horiz-adv-x="640" 
d="M447 827q3 25 23 42.5t45 17.5t40 -17.5t12 -42.5q-4 -25 -24 -42.5t-45 -17.5t-40 17t-11 43zM383 28q-99 0 -149 90t-30 232q19 142 95 231.5t175 89.5q83 0 128.5 -48t53.5 -116h27l10 143q-89 60 -214 60q-146 0 -254.5 -101.5t-130.5 -258.5t58 -258.5t226 -101.5
q125 0 231 60l29 142h-27q-26 -68 -85.5 -116t-142.5 -48z" />
    <glyph glyph-name="cdotaccent" unicode="&#x10b;" horiz-adv-x="514" 
d="M270 -10q-100 0 -148 74.5t-33 180.5q17 123 93.5 194t173.5 71q81 0 125 -37t37 -88q-4 -26 -22.5 -40.5t-45.5 -14.5q-21 0 -32.5 10.5t-8.5 26.5q22 106 -56 106q-62 0 -105.5 -52.5t-55.5 -139.5q-15 -102 20.5 -158t97.5 -56q100 0 154 80h22q-26 -66 -82 -111.5
t-134 -45.5zM340 627q3 25 23 42.5t45 17.5t40 -17.5t12 -42.5q-4 -25 -24 -42.5t-45 -17.5t-40 17t-11 43z" />
    <glyph glyph-name="Ccaron" unicode="&#x10c;" horiz-adv-x="640" 
d="M497 840l-101 90h-27l100 -180h30l150 180h-28zM383 28q-99 0 -149 90t-30 232q19 142 95 231.5t175 89.5q83 0 128.5 -48t53.5 -116h27l10 143q-89 60 -214 60q-146 0 -254.5 -101.5t-130.5 -258.5t58 -258.5t226 -101.5q125 0 231 60l29 142h-27q-26 -68 -85.5 -116
t-142.5 -48z" />
    <glyph glyph-name="ccaron" unicode="&#x10d;" horiz-adv-x="514" 
d="M270 -10q-100 0 -148 74.5t-33 180.5q17 123 93.5 194t173.5 71q81 0 125 -37t37 -88q-4 -26 -22.5 -40.5t-45.5 -14.5q-21 0 -32.5 10.5t-8.5 26.5q22 106 -56 106q-62 0 -105.5 -52.5t-55.5 -139.5q-15 -102 20.5 -158t97.5 -56q100 0 154 80h22q-26 -66 -82 -111.5
t-134 -45.5zM401 640l-100 90h-27l100 -180h30l150 180h-28z" />
    <glyph glyph-name="Dcaron" unicode="&#x10e;" horiz-adv-x="740" 
d="M474 840l-101 90h-27l100 -180h30l150 180h-28zM225 37h120q82 0 145.5 46.5t97.5 115t46 151.5q20 145 -31 228.5t-180 83.5h-110zM340 0h-303l3 22q53 7 70.5 22.5t23.5 57.5l69 495q6 42 -7.5 57.5t-63.5 22.5l3 23h303q163 0 246 -93t60 -257q-22 -156 -133 -253
t-271 -97z" />
    <glyph glyph-name="dcaron" unicode="&#x10f;" horiz-adv-x="621" 
d="M273 52q54 0 94 67.5t51 150.5l26 193q-88 32 -158.5 -25.5t-90.5 -187.5q-14 -97 7.5 -147.5t70.5 -50.5zM451 500l17 127q6 41 -5 57.5t-56 17.5l2 23l170 45h10l-94 -668q-7 -55 22 -55q16 0 36.5 22t38.5 73l26 -11q-26 -72 -59 -106.5t-88 -34.5q-47 0 -64 31
t-12 69l4 34h-2q-31 -66 -71 -100t-98 -34q-77 0 -116.5 74t-20.5 186q16 99 73 164t132.5 85.5t154.5 0.5zM723 774q24 0 40.5 -10.5t22 -26t7.5 -33.5t-1 -33q-10 -65 -57 -116t-98 -68l-10 23q65 28 92 82q21 40 0 53q-6 3 -14 3q-26 0 -41.5 18.5t-11.5 45.5
q4 25 25 43.5t46 18.5z" />
    <glyph glyph-name="Dcroat" unicode="&#x110;" horiz-adv-x="740" 
d="M59 371h113l31 226q6 42 -7.5 57.5t-63.5 22.5l3 23h303q163 0 246 -93t60 -257q-22 -156 -133 -253t-271 -97h-303l3 22q53 7 70.5 22.5t23.5 57.5l32 231h-113zM225 37h120q82 0 145.5 46.5t97.5 115t46 151.5q20 145 -31 228.5t-180 83.5h-110l-41 -291h112l-6 -38
h-112z" />
    <glyph glyph-name="dcroat" unicode="&#x111;" horiz-adv-x="583" 
d="M451 500l6 48h-72l5 38h72l6 41q6 41 -5 57.5t-56 17.5l2 23l170 45h10l-26 -184h82l-5 -38h-82l-63 -446q-7 -55 22 -55q16 0 36.5 22t38.5 73l26 -11q-26 -72 -59 -106.5t-88 -34.5q-47 0 -64 31t-12 69l4 34h-2q-31 -66 -71 -100t-98 -34q-77 0 -116.5 74t-20.5 186
q16 99 73 164t132.5 85.5t154.5 0.5zM273 52q54 0 94 67.5t51 150.5l26 193q-88 32 -158.5 -25.5t-90.5 -187.5q-14 -97 7.5 -147.5t70.5 -50.5z" />
    <glyph glyph-name="Emacron" unicode="&#x112;" horiz-adv-x="600" 
d="M284 837h315l-5 -40h-315zM313 662l-41 -291h90q50 0 79 22t43 79h27l-34 -240h-27q1 57 -22 79t-72 22h-90l-41 -296h185q53 0 92 32.5t55 92.5h27l-32 -162h-515l3 22q53 7 70.5 22.5t23.5 57.5l69 495q6 42 -7.5 57.5t-63.5 22.5l3 23h505l-18 -163h-27q1 61 -26.5 93
t-80.5 32h-175z" />
    <glyph glyph-name="emacron" unicode="&#x113;" horiz-adv-x="519" 
d="M356 510q96 0 138 -63q37 -55 5 -116q-40 -77 -162 -98q-66 -12 -149 -3q-1 -78 34 -120.5t88 -42.5q45 0 89 22.5t65 57.5h22q-26 -66 -82 -111.5t-134 -45.5q-100 0 -148 74.5t-33 180.5q17 123 93.5 194t173.5 71zM346 475q-60 0 -103 -57t-53 -154q122 -20 189 51
q44 47 36 101q-7 49 -52 57q-8 2 -17 2zM230 637h315l-6 -40h-315z" />
    <glyph glyph-name="Ebreve" unicode="&#x114;" horiz-adv-x="600" 
d="M437 770q63 0 101.5 45t46.5 106h-25q-13 -37 -45 -57.5t-68 -20.5t-62 20.5t-29 57.5h-26q-8 -61 18 -106t89 -45zM313 662l-41 -291h90q50 0 79 22t43 79h27l-34 -240h-27q1 57 -22 79t-72 22h-90l-41 -296h185q53 0 92 32.5t55 92.5h27l-32 -162h-515l3 22
q53 7 70.5 22.5t23.5 57.5l69 495q6 42 -7.5 57.5t-63.5 22.5l3 23h505l-18 -163h-27q1 61 -26.5 93t-80.5 32h-175z" />
    <glyph glyph-name="ebreve" unicode="&#x115;" horiz-adv-x="519" 
d="M356 510q96 0 138 -63q37 -55 5 -116q-40 -77 -162 -98q-66 -12 -149 -3q-1 -78 34 -120.5t88 -42.5q45 0 89 22.5t65 57.5h22q-26 -66 -82 -111.5t-134 -45.5q-100 0 -148 74.5t-33 180.5q17 123 93.5 194t173.5 71zM346 475q-60 0 -103 -57t-53 -154q122 -20 189 51
q44 47 36 101q-7 49 -52 57q-8 2 -17 2zM382 570q63 0 101.5 45t46.5 106h-25q-13 -37 -45 -57.5t-68 -20.5t-62 20.5t-29 57.5h-26q-8 -61 18 -106t89 -45z" />
    <glyph glyph-name="Edotaccent" unicode="&#x116;" horiz-adv-x="600" 
d="M380 827q3 25 23 42.5t45 17.5t40 -17.5t12 -42.5q-4 -25 -24 -42.5t-45 -17.5t-40 17t-11 43zM313 662l-41 -291h90q50 0 79 22t43 79h27l-34 -240h-27q1 57 -22 79t-72 22h-90l-41 -296h185q53 0 92 32.5t55 92.5h27l-32 -162h-515l3 22q53 7 70.5 22.5t23.5 57.5
l69 495q6 42 -7.5 57.5t-63.5 22.5l3 23h505l-18 -163h-27q1 61 -26.5 93t-80.5 32h-175z" />
    <glyph glyph-name="edotaccent" unicode="&#x117;" horiz-adv-x="519" 
d="M356 510q96 0 138 -63q37 -55 5 -116q-40 -77 -162 -98q-66 -12 -149 -3q-1 -78 34 -120.5t88 -42.5q45 0 89 22.5t65 57.5h22q-26 -66 -82 -111.5t-134 -45.5q-100 0 -148 74.5t-33 180.5q17 123 93.5 194t173.5 71zM346 475q-60 0 -103 -57t-53 -154q122 -20 189 51
q44 47 36 101q-7 49 -52 57q-8 2 -17 2zM331 627q3 25 23 42.5t45 17.5t40 -17.5t12 -42.5q-4 -25 -24 -42.5t-45 -17.5t-40 17t-11 43z" />
    <glyph glyph-name="Eogonek" unicode="&#x118;" horiz-adv-x="600" 
d="M573 -167l-3 -20q-37 -40 -87 -40q-55 0 -70 45q-18 54 36 119q28 34 73 63h-485l3 22q53 7 70.5 22.5t23.5 57.5l69 495q6 42 -7.5 57.5t-63.5 22.5l3 23h505l-18 -163h-27q1 61 -26.5 93t-80.5 32h-175l-41 -291h90q50 0 79 22t43 79h27l-34 -240h-27q1 57 -22 79
t-72 22h-90l-41 -296h185q53 0 92 32.5t55 92.5h27l-32 -162q-59 -49 -72 -111q-11 -53 27 -65q25 -7 66 9z" />
    <glyph glyph-name="eogonek" unicode="&#x119;" horiz-adv-x="519" 
d="M315 -167l-3 -20q-37 -40 -87 -40q-47 0 -66 34t4 86.5t88 97.5q-90 7 -133 80t-29 174q17 123 93.5 194t173.5 71q96 0 138 -63q37 -55 5 -116q-40 -77 -162 -98q-66 -12 -149 -3q-1 -78 34 -120.5t88 -42.5q45 0 89 22.5t65 57.5h22q-25 -64 -77.5 -108t-125.5 -48
q-55 -52 -63 -110q-6 -51 35 -58q24 -4 60 10zM346 475q-60 0 -103 -57t-53 -154q122 -20 189 51q44 47 36 101q-7 49 -52 57q-8 2 -17 2z" />
    <glyph glyph-name="Ecaron" unicode="&#x11a;" horiz-adv-x="600" 
d="M449 840l-101 90h-27l100 -180h30l150 180h-28zM313 662l-41 -291h90q50 0 79 22t43 79h27l-34 -240h-27q1 57 -22 79t-72 22h-90l-41 -296h185q53 0 92 32.5t55 92.5h27l-32 -162h-515l3 22q53 7 70.5 22.5t23.5 57.5l69 495q6 42 -7.5 57.5t-63.5 22.5l3 23h505
l-18 -163h-27q1 61 -26.5 93t-80.5 32h-175z" />
    <glyph glyph-name="ecaron" unicode="&#x11b;" horiz-adv-x="519" 
d="M356 510q96 0 138 -63q37 -55 5 -116q-40 -77 -162 -98q-66 -12 -149 -3q-1 -78 34 -120.5t88 -42.5q45 0 89 22.5t65 57.5h22q-26 -66 -82 -111.5t-134 -45.5q-100 0 -148 74.5t-33 180.5q17 123 93.5 194t173.5 71zM346 475q-60 0 -103 -57t-53 -154q122 -20 189 51
q44 47 36 101q-7 49 -52 57q-8 2 -17 2zM390 640l-100 90h-27l100 -180h30l150 180h-28z" />
    <glyph glyph-name="Gcircumflex" unicode="&#x11c;" horiz-adv-x="700" 
d="M493 840l-126 -90h-27l150 180h30l100 -180h-28zM554 210l-18 -126q-68 -56 -153 -56q-99 0 -149 90t-30 232q19 142 95 231.5t175 89.5q83 0 128.5 -48t53.5 -116h27l10 143q-89 60 -214 60q-146 0 -254.5 -101.5t-130.5 -258.5t58 -258.5t226 -101.5q68 0 141.5 26
t114.5 54l20 140q6 43 20 58t58 22l3 22h-250l-3 -22q53 -7 65.5 -22.5t6.5 -57.5z" />
    <glyph glyph-name="gcircumflex" unicode="&#x11d;" horiz-adv-x="540" 
d="M191 325q-4 -69 19.5 -107t67.5 -38q52 0 80 40.5t34 108.5q5 66 -16.5 106t-65.5 40q-50 0 -82.5 -40.5t-36.5 -109.5zM310 -45l-135 20q-45 -61 -45 -125q0 -40 33.5 -62.5t88.5 -22.5q64 0 116 31.5t52 88.5q0 32 -28 47t-82 23zM177 165q-48 21 -71.5 63t-16.5 99
q12 81 77 132t154 51q53 0 121 -29l139 15l-8 -56h-104v-2q34 -51 27 -108q-12 -85 -74.5 -135t-151.5 -50q-37 0 -67 10q-2 -2 -7.5 -8t-7 -8t-6 -7t-6 -8t-3.5 -7.5t-3 -9t-1 -8.5q0 -28 59 -34l137 -15q70 -8 110.5 -40.5t40.5 -84.5q0 -87 -91 -141t-204 -54
q-185 0 -185 100q0 42 29.5 77.5t87.5 74.5q-30 5 -51 24.5t-21 49.5q0 51 97 109zM341 640l-125 -90h-27l150 180h30l100 -180h-28z" />
    <glyph glyph-name="Gbreve" unicode="&#x11e;" horiz-adv-x="700" 
d="M485 770q63 0 101.5 45t46.5 106h-25q-13 -37 -45 -57.5t-68 -20.5t-62 20.5t-29 57.5h-26q-8 -61 18 -106t89 -45zM554 210l-18 -126q-68 -56 -153 -56q-99 0 -149 90t-30 232q19 142 95 231.5t175 89.5q83 0 128.5 -48t53.5 -116h27l10 143q-89 60 -214 60
q-146 0 -254.5 -101.5t-130.5 -258.5t58 -258.5t226 -101.5q68 0 141.5 26t114.5 54l20 140q6 43 20 58t58 22l3 22h-250l-3 -22q53 -7 65.5 -22.5t6.5 -57.5z" />
    <glyph glyph-name="gbreve" unicode="&#x11f;" horiz-adv-x="540" 
d="M191 325q-4 -69 19.5 -107t67.5 -38q52 0 80 40.5t34 108.5q5 66 -16.5 106t-65.5 40q-50 0 -82.5 -40.5t-36.5 -109.5zM310 -45l-135 20q-45 -61 -45 -125q0 -40 33.5 -62.5t88.5 -22.5q64 0 116 31.5t52 88.5q0 32 -28 47t-82 23zM177 165q-48 21 -71.5 63t-16.5 99
q12 81 77 132t154 51q53 0 121 -29l139 15l-8 -56h-104v-2q34 -51 27 -108q-12 -85 -74.5 -135t-151.5 -50q-37 0 -67 10q-2 -2 -7.5 -8t-7 -8t-6 -7t-6 -8t-3.5 -7.5t-3 -9t-1 -8.5q0 -28 59 -34l137 -15q70 -8 110.5 -40.5t40.5 -84.5q0 -87 -91 -141t-204 -54
q-185 0 -185 100q0 42 29.5 77.5t87.5 74.5q-30 5 -51 24.5t-21 49.5q0 51 97 109zM347 570q63 0 101.5 45t46.5 106h-25q-13 -37 -45 -57.5t-68 -20.5t-62 20.5t-29 57.5h-26q-8 -61 18 -106t89 -45z" />
    <glyph glyph-name="Gdotaccent" unicode="&#x120;" horiz-adv-x="700" 
d="M446 827q3 25 23 42.5t45 17.5t40 -17.5t12 -42.5q-4 -25 -24 -42.5t-45 -17.5t-40 17t-11 43zM554 210l-18 -126q-68 -56 -153 -56q-99 0 -149 90t-30 232q19 142 95 231.5t175 89.5q83 0 128.5 -48t53.5 -116h27l10 143q-89 60 -214 60q-146 0 -254.5 -101.5
t-130.5 -258.5t58 -258.5t226 -101.5q68 0 141.5 26t114.5 54l20 140q6 43 20 58t58 22l3 22h-250l-3 -22q53 -7 65.5 -22.5t6.5 -57.5z" />
    <glyph glyph-name="gdotaccent" unicode="&#x121;" horiz-adv-x="540" 
d="M191 325q-4 -69 19.5 -107t67.5 -38q52 0 80 40.5t34 108.5q5 66 -16.5 106t-65.5 40q-50 0 -82.5 -40.5t-36.5 -109.5zM310 -45l-135 20q-45 -61 -45 -125q0 -40 33.5 -62.5t88.5 -22.5q64 0 116 31.5t52 88.5q0 32 -28 47t-82 23zM177 165q-48 21 -71.5 63t-16.5 99
q12 81 77 132t154 51q53 0 121 -29l139 15l-8 -56h-104v-2q34 -51 27 -108q-12 -85 -74.5 -135t-151.5 -50q-37 0 -67 10q-2 -2 -7.5 -8t-7 -8t-6 -7t-6 -8t-3.5 -7.5t-3 -9t-1 -8.5q0 -28 59 -34l137 -15q70 -8 110.5 -40.5t40.5 -84.5q0 -87 -91 -141t-204 -54
q-185 0 -185 100q0 42 29.5 77.5t87.5 74.5q-30 5 -51 24.5t-21 49.5q0 51 97 109zM289 627q3 25 23 42.5t45 17.5t40 -17.5t12 -42.5q-4 -25 -24 -42.5t-45 -17.5t-40 17t-11 43z" />
    <glyph glyph-name="Gcommaaccent" unicode="&#x122;" horiz-adv-x="700" 
d="M554 210l-18 -126q-68 -56 -153 -56q-99 0 -149 90t-30 232q19 142 95 231.5t175 89.5q83 0 128.5 -48t53.5 -116h27l10 143q-89 60 -214 60q-146 0 -254.5 -101.5t-130.5 -258.5t58 -258.5t226 -101.5q68 0 141.5 26t114.5 54l20 140q6 43 20 58t58 22l3 22h-250l-3 -22
q53 -7 65.5 -22.5t6.5 -57.5zM361 -46q24 0 40.5 -10.5t22 -26t7.5 -33.5t-1 -33q-10 -65 -57 -116t-98 -68l-10 23q65 28 92 82q21 40 0 53l-14 3q-26 0 -41.5 18.5t-11.5 45.5q4 25 25 43.5t46 18.5z" />
    <glyph glyph-name="gcommaaccent" unicode="&#x123;" horiz-adv-x="540" 
d="M191 325q-4 -69 19.5 -107t67.5 -38q52 0 80 40.5t34 108.5q5 66 -16.5 106t-65.5 40q-50 0 -82.5 -40.5t-36.5 -109.5zM310 -45l-135 20q-45 -61 -45 -125q0 -40 33.5 -62.5t88.5 -22.5q64 0 116 31.5t52 88.5q0 32 -28 47t-82 23zM177 165q-48 21 -71.5 63t-16.5 99
q12 81 77 132t154 51q53 0 121 -29l139 15l-8 -56h-104v-2q34 -51 27 -108q-12 -85 -74.5 -135t-151.5 -50q-37 0 -67 10q-2 -2 -7.5 -8t-7 -8t-6 -7t-6 -8t-3.5 -7.5t-3 -9t-1 -8.5q0 -28 59 -34l137 -15q70 -8 110.5 -40.5t40.5 -84.5q0 -87 -91 -141t-204 -54
q-185 0 -185 100q0 42 29.5 77.5t87.5 74.5q-30 5 -51 24.5t-21 49.5q0 51 97 109zM391 844q24 0 40.5 -10.5t22 -26t7.5 -33.5t-1 -33q-10 -65 -57 -116t-98 -68l-10 23q65 28 92 82q21 40 0 53q-6 3 -14 3q-26 0 -41.5 18.5t-11.5 45.5q4 25 25 43.5t46 18.5z" />
    <glyph glyph-name="Hcircumflex" unicode="&#x124;" horiz-adv-x="780" 
d="M512 840l-126 -90h-27l150 180h30l100 -180h-28zM743 597l-69 -495q-6 -42 7 -57.5t64 -22.5l-3 -22h-265l3 22q53 7 70.5 22.5t23.5 57.5l33 236h-340l-33 -236q-6 -42 7 -57.5t64 -22.5l-3 -22h-265l3 22q53 7 70.5 22.5t23.5 57.5l69 495q6 42 -7.5 57.5t-63.5 22.5
l3 23h265l-3 -23q-53 -7 -70.5 -22.5t-23.5 -57.5l-31 -221h340l31 221q6 42 -7.5 57.5t-63.5 22.5l3 23h265l-3 -23q-53 -7 -70.5 -22.5t-23.5 -57.5z" />
    <glyph glyph-name="hcircumflex" unicode="&#x125;" horiz-adv-x="579" 
d="M385 102l34 255q6 42 -2 62.5t-35 20.5q-39 0 -95 -72.5t-67 -152.5l-30 -215h-100l87 627q6 41 -5 57.5t-56 17.5l2 23l170 45h10l-61 -427h2q41 73 91.5 120t102.5 47q107 0 87 -150l-35 -258q-7 -55 24 -55q40 0 82 95l23 -11q-49 -141 -153 -141q-90 0 -76 112z
M249 870l-125 -90h-27l150 180h30l100 -180h-28z" />
    <glyph glyph-name="Hbar" unicode="&#x126;" horiz-adv-x="780" 
d="M108 506h83l12 91q6 42 -7.5 57.5t-63.5 22.5l3 23h265l-3 -23q-53 -7 -70.5 -22.5t-23.5 -57.5l-12 -91h340l12 91q6 42 -7.5 57.5t-63.5 22.5l3 23h265l-3 -23q-53 -7 -70.5 -22.5t-23.5 -57.5l-12 -91h82l-6 -38h-82l-51 -366q-6 -42 7 -57.5t64 -22.5l-3 -22h-265
l3 22q53 7 70.5 22.5t23.5 57.5l33 236h-340l-33 -236q-6 -42 7 -57.5t64 -22.5l-3 -22h-265l3 22q53 7 70.5 22.5t23.5 57.5l51 366h-83zM272 376h340l13 92h-340z" />
    <glyph glyph-name="hbar" unicode="&#x127;" horiz-adv-x="579" 
d="M385 102l34 255q6 42 -2 62.5t-35 20.5q-39 0 -95 -72.5t-67 -152.5l-30 -215h-100l76 548h-72l5 38h72l6 41q6 41 -5 57.5t-56 17.5l2 23l170 45h10l-26 -184h82l-5 -38h-83l-29 -205h2q41 73 91.5 120t102.5 47q107 0 87 -150l-35 -258q-7 -55 24 -55q40 0 82 95
l23 -11q-49 -141 -153 -141q-90 0 -76 112z" />
    <glyph glyph-name="Itilde" unicode="&#x128;" horiz-adv-x="340" 
d="M117 767l-18 13q72 115 121 115q20 0 78 -20t77 -20q28 0 44.5 7.5t35.5 29.5l18 -12q-67 -105 -115 -105q-24 0 -79.5 20t-79.5 20q-25 0 -41.5 -10.5t-40.5 -37.5zM303 597l-69 -495q-6 -42 7 -57.5t64 -22.5l-3 -22h-265l3 22q53 7 70.5 22.5t23.5 57.5l69 495
q6 42 -7.5 57.5t-63.5 22.5l3 23h265l-3 -23q-53 -7 -70.5 -22.5t-23.5 -57.5z" />
    <glyph glyph-name="itilde" unicode="&#x129;" horiz-adv-x="337" 
d="M143 102l40 295q7 55 -23 55q-41 0 -82 -95l-23 11q50 142 153 142q90 0 75 -112l-40 -296q-7 -55 24 -55q40 0 82 95l23 -11q-49 -141 -153 -141q-90 0 -76 112zM97 567l-18 13q72 115 121 115q20 0 78 -20t77 -20q27 0 43.5 7.5t36.5 29.5l18 -12q-19 -29 -32.5 -47.5
t-37.5 -38t-45 -19.5q-23 0 -79 20t-80 20q-25 0 -41.5 -10.5t-40.5 -37.5z" />
    <glyph glyph-name="Imacron" unicode="&#x12a;" horiz-adv-x="340" 
d="M129 837h315l-5 -40h-315zM303 597l-69 -495q-6 -42 7 -57.5t64 -22.5l-3 -22h-265l3 22q53 7 70.5 22.5t23.5 57.5l69 495q6 42 -7.5 57.5t-63.5 22.5l3 23h265l-3 -23q-53 -7 -70.5 -22.5t-23.5 -57.5z" />
    <glyph glyph-name="imacron" unicode="&#x12b;" horiz-adv-x="337" 
d="M143 102l40 295q7 55 -23 55q-41 0 -82 -95l-23 11q50 142 153 142q90 0 75 -112l-40 -296q-7 -55 24 -55q40 0 82 95l23 -11q-49 -141 -153 -141q-90 0 -76 112zM109 637h315l-6 -40h-315z" />
    <glyph glyph-name="Ibreve" unicode="&#x12c;" horiz-adv-x="340" 
d="M279 770q63 0 101.5 45t46.5 106h-25q-13 -37 -45 -57.5t-68 -20.5t-62 20.5t-29 57.5h-26q-8 -61 18 -106t89 -45zM303 597l-69 -495q-6 -42 7 -57.5t64 -22.5l-3 -22h-265l3 22q53 7 70.5 22.5t23.5 57.5l69 495q6 42 -7.5 57.5t-63.5 22.5l3 23h265l-3 -23
q-53 -7 -70.5 -22.5t-23.5 -57.5z" />
    <glyph glyph-name="ibreve" unicode="&#x12d;" horiz-adv-x="337" 
d="M143 102l40 295q7 55 -23 55q-41 0 -82 -95l-23 11q50 142 153 142q90 0 75 -112l-40 -296q-7 -55 24 -55q40 0 82 95l23 -11q-49 -141 -153 -141q-90 0 -76 112zM259 570q63 0 101.5 45t46.5 106h-25q-13 -37 -45 -57.5t-68 -20.5t-62 20.5t-29 57.5h-26q-8 -61 18 -106
t89 -45z" />
    <glyph glyph-name="Iogonek" unicode="&#x12e;" horiz-adv-x="340" 
d="M218 -167l-3 -20q-37 -40 -87 -40q-55 0 -70 45q-18 54 36 119q28 34 73 63h-130l3 22q53 7 70.5 22.5t23.5 57.5l69 495q6 42 -7.5 57.5t-63.5 22.5l3 23h265l-3 -23q-53 -7 -70.5 -22.5t-23.5 -57.5l-69 -495q-6 -42 7 -57.5t64 -22.5l-3 -22h-105q-59 -49 -72 -111
q-11 -53 27 -65q25 -7 66 9z" />
    <glyph glyph-name="iogonek" unicode="&#x12f;" horiz-adv-x="337" 
d="M257 -167l-3 -20q-37 -40 -87 -40q-55 0 -70 46q-18 54 36 119q25 29 62 55q-64 13 -52 109l40 295q7 55 -23 55q-41 0 -82 -95l-23 11q50 142 153 142q90 0 75 -112l-40 -296q-7 -55 24 -55q40 0 82 95l23 -11q-49 -137 -148 -141q-55 -52 -62 -110q-6 -50 35 -57
q24 -4 60 10zM205 671q4 28 26.5 48.5t50.5 20.5t45.5 -20t13.5 -49q-5 -28 -27.5 -48t-50.5 -20t-45.5 20t-12.5 48z" />
    <glyph glyph-name="Idotaccent" unicode="&#x130;" horiz-adv-x="340" 
d="M224 827q3 25 23 42.5t45 17.5t40 -17.5t12 -42.5q-4 -25 -24 -42.5t-45 -17.5t-40 17t-11 43zM303 597l-69 -495q-6 -42 7 -57.5t64 -22.5l-3 -22h-265l3 22q53 7 70.5 22.5t23.5 57.5l69 495q6 42 -7.5 57.5t-63.5 22.5l3 23h265l-3 -23q-53 -7 -70.5 -22.5
t-23.5 -57.5z" />
    <glyph glyph-name="dotlessi" unicode="&#x131;" horiz-adv-x="337" 
d="M143 102l40 295q7 55 -23 55q-41 0 -82 -95l-23 11q50 142 153 142q90 0 75 -112l-40 -296q-7 -55 24 -55q40 0 82 95l23 -11q-49 -141 -153 -141q-90 0 -76 112z" />
    <glyph glyph-name="IJ" unicode="&#x132;" horiz-adv-x="740" 
d="M303 597l-69 -495q-6 -42 7 -57.5t64 -22.5l-3 -22h-265l3 22q53 7 70.5 22.5t23.5 57.5l69 495q6 42 -7.5 57.5t-63.5 22.5l3 23h265l-3 -23q-53 -7 -70.5 -22.5t-23.5 -57.5zM703 597l-46 -327q-18 -127 -86 -203.5t-158 -76.5q-52 0 -57 35q-4 27 20 44q21 14 45 2
q40 -19 61 -23t33.5 10t17 35.5t10.5 69.5q3 26 5 40l55 394q6 42 -7.5 57.5t-63.5 22.5l3 23h265l-3 -23q-53 -7 -70.5 -22.5t-23.5 -57.5z" />
    <glyph glyph-name="ij" unicode="&#x133;" horiz-adv-x="606" 
d="M143 102l40 295q7 55 -23 55q-41 0 -82 -95l-23 11q50 142 153 142q90 0 75 -112l-40 -296q-7 -55 24 -55q40 0 82 95l23 -11q-49 -141 -153 -141q-90 0 -76 112zM205 671q4 28 26.5 48.5t50.5 20.5t45.5 -20t13.5 -49q-5 -28 -27.5 -48t-50.5 -20t-45.5 20t-12.5 48z
M444 45l49 352q7 55 -23 55q-41 0 -82 -95l-23 11q50 142 153 142q90 0 75 -112l-49 -353q-17 -123 -91 -219t-132 -96q-47 0 -51 35q-3 29 20 45q15 11 31 5q27 -10 46 -10.5t31 9.5t18.5 23t10.5 38t5.5 48t4.5 58.5t7 63.5zM514 671q4 28 26.5 48.5t50.5 20.5t45.5 -20
t13.5 -49q-5 -28 -27.5 -48t-50.5 -20t-45.5 20t-12.5 48z" />
    <glyph glyph-name="Jcircumflex" unicode="&#x134;" 
d="M348 840l-126 -90h-27l150 180h30l100 -180h-28zM363 597l-46 -327q-18 -127 -86 -203.5t-158 -76.5q-52 0 -57 35q-4 28 21 45q20 13 44 1q40 -19 61 -23t33.5 10t17 35.5t10.5 69.5l1.5 13.5t1.5 12t2 14.5l55 394q6 42 -7.5 57.5t-63.5 22.5l3 23h265l-3 -23
q-53 -7 -70.5 -22.5t-23.5 -57.5z" />
    <glyph glyph-name="jcircumflex" unicode="&#x135;" horiz-adv-x="297" 
d="M135 45l49 352q7 55 -23 55q-41 0 -82 -95l-23 11q50 142 153 142q90 0 75 -112l-49 -353q-17 -123 -91 -219t-132 -96q-47 0 -51 35q-3 29 20 45q15 11 31 5q27 -10 46 -10.5t31 9.5t18.5 23t10.5 38t5.5 48t4.5 58.5t7 63.5zM268 640l-125 -90h-27l150 180h30l100 -180
h-28z" />
    <glyph glyph-name="Kcommaaccent" unicode="&#x136;" horiz-adv-x="734" 
d="M339 -39q24 0 40.5 -10.5t22 -26t7.5 -33.5t-1 -33q-10 -65 -57 -116t-98 -68l-10 23q65 28 92 82q21 40 0 53l-14 3q-26 0 -41.5 18.5t-11.5 45.5q4 25 25 43.5t46 18.5zM385 420l143 152q16 16 25 32t11.5 31.5t-11.5 26.5t-44 15l3 23h255l-3 -23q-102 -14 -160 -77
l-203 -217l183 -261q60 -84 128 -100l-3 -22h-298l3 22q95 13 39 95l-120 175q-18 26 -30 33t-37 7l-32 -230q-6 -42 7 -57.5t64 -22.5l-3 -22h-265l3 22q53 7 70.5 22.5t23.5 57.5l69 495q6 42 -7.5 57.5t-63.5 22.5l3 23h265l-3 -23q-53 -7 -70.5 -22.5t-23.5 -57.5
l-31 -227q40 0 62.5 10.5t50.5 39.5z" />
    <glyph glyph-name="kcommaaccent" unicode="&#x137;" horiz-adv-x="581" 
d="M298 770l-70 -492q51 7 101 27.5t90 63t35 96.5q-3 31 27 42q31 12 50 -12q11 -16 10 -40q-3 -40 -50.5 -90.5t-136.5 -82.5l104 -191q22 -41 51 -41q39 0 83 92l24 -11q-31 -72 -67 -106.5t-93 -34.5q-42 0 -66.5 22t-44.5 62l-91 181q-26 -3 -29 -4l-35 -251h-100
l87 627q6 43 -3.5 59t-57.5 16l2 23l170 45h10zM290 -46q24 0 40.5 -10.5t22 -26t7.5 -33.5t-1 -33q-10 -65 -57 -116t-98 -68l-10 23q65 28 92 82q21 40 0 53l-14 3q-26 0 -41.5 18.5t-11.5 45.5q4 25 25 43.5t46 18.5z" />
    <glyph glyph-name="kgreenlandic" unicode="&#x138;" horiz-adv-x="592" 
d="M272 510l-33 -232q51 7 101 27.5t90 63t35 96.5q-3 31 27 42q31 12 50 -12q11 -16 10 -40q-3 -40 -50.5 -90.5t-136.5 -82.5l104 -191q22 -41 51 -41q39 0 83 92l24 -11q-31 -72 -67 -106.5t-93 -34.5q-42 0 -66.5 22t-44.5 62l-91 181q-26 -3 -29 -4l-35 -251h-100
l50 367q6 43 -3.5 59t-57.5 16l2 23l170 45h10z" />
    <glyph glyph-name="Lacute" unicode="&#x139;" horiz-adv-x="580" 
d="M263 761l12 -11l156 104q37 25 21 55q-12 24 -39 21q-19 -2 -33 -20zM225 37h185q53 0 92 32.5t55 92.5h27l-32 -162h-515l3 22q53 7 70.5 22.5t23.5 57.5l69 495q6 42 -7.5 57.5t-63.5 22.5l3 23h265l-3 -23q-53 -7 -70.5 -22.5t-23.5 -57.5z" />
    <glyph glyph-name="lacute" unicode="&#x13a;" horiz-adv-x="297" 
d="M103 102l73 525q6 43 -3.5 59t-57.5 16l2 23l170 45h10l-94 -668q-7 -55 24 -55q40 0 82 95l23 -11q-49 -141 -153 -141q-92 0 -76 112zM210 821l12 -11l155 104q37 25 22 55q-12 24 -39 21q-19 -3 -33 -20z" />
    <glyph glyph-name="Lcommaaccent" unicode="&#x13b;" horiz-adv-x="580" 
d="M293 -38q24 0 40.5 -10.5t22 -26t7.5 -33.5t-1 -33q-10 -65 -57 -116t-98 -68l-10 23q65 28 92 82q21 40 0 53l-14 3q-26 0 -41.5 18.5t-11.5 45.5q4 25 25 43.5t46 18.5zM225 37h185q53 0 92 32.5t55 92.5h27l-32 -162h-515l3 22q53 7 70.5 22.5t23.5 57.5l69 495
q6 42 -7.5 57.5t-63.5 22.5l3 23h265l-3 -23q-53 -7 -70.5 -22.5t-23.5 -57.5z" />
    <glyph glyph-name="lcommaaccent" unicode="&#x13c;" horiz-adv-x="297" 
d="M103 102l73 525q6 43 -3.5 59t-57.5 16l2 23l170 45h10l-94 -668q-7 -55 24 -55q40 0 82 95l23 -11q-49 -141 -153 -141q-92 0 -76 112zM142 -46q24 0 40.5 -10.5t22 -26t7.5 -33.5t-1 -33q-10 -65 -57 -116t-98 -68l-10 23q65 28 92 82q21 40 0 53l-14 3
q-26 0 -41.5 18.5t-11.5 45.5q4 25 25 43.5t46 18.5z" />
    <glyph glyph-name="Lcaron" unicode="&#x13d;" horiz-adv-x="580" 
d="M537 715q24 0 40.5 -10.5t22 -26t7.5 -33.5t-1 -33q-10 -65 -57 -116t-98 -68l-10 23q65 28 92 82q21 40 0 53q-6 3 -14 3q-26 0 -41.5 18.5t-11.5 45.5q4 25 25 43.5t46 18.5zM225 37h185q53 0 92 32.5t55 92.5h27l-32 -162h-515l3 22q53 7 70.5 22.5t23.5 57.5l69 495
q6 42 -7.5 57.5t-63.5 22.5l3 23h265l-3 -23q-53 -7 -70.5 -22.5t-23.5 -57.5z" />
    <glyph glyph-name="lcaron" unicode="&#x13e;" horiz-adv-x="300" 
d="M103 102l73 525q6 43 -3.5 59t-57.5 16l2 23l170 45h10l-94 -668q-7 -55 24 -55q40 0 82 95l23 -11q-49 -141 -153 -141q-92 0 -76 112zM422 774q24 0 40.5 -10.5t22 -26t7.5 -33.5t-1 -33q-10 -65 -57 -116t-98 -68l-10 23q65 28 92 82q21 40 0 53q-6 3 -14 3
q-26 0 -41.5 18.5t-11.5 45.5q4 25 25 43.5t46 18.5z" />
    <glyph glyph-name="Ldot" unicode="&#x13f;" horiz-adv-x="580" 
d="M347 363q4 25 22 40.5t42 15.5t37.5 -16t9.5 -40q-3 -24 -20.5 -39.5t-41.5 -15.5t-38 15t-11 40zM225 37h185q53 0 92 32.5t55 92.5h27l-32 -162h-515l3 22q53 7 70.5 22.5t23.5 57.5l69 495q6 42 -7.5 57.5t-63.5 22.5l3 23h265l-3 -23q-53 -7 -70.5 -22.5t-23.5 -57.5
z" />
    <glyph glyph-name="ldot" unicode="&#x140;" horiz-adv-x="366" 
d="M103 102l73 525q6 43 -3.5 59t-57.5 16l2 23l170 45h10l-94 -668q-7 -55 24 -55q40 0 82 95l23 -11q-49 -141 -153 -141q-92 0 -76 112zM293 358q4 25 22 40.5t42 15.5t37.5 -16t9.5 -40q-3 -24 -20.5 -39.5t-41.5 -15.5t-38 15t-11 40z" />
    <glyph glyph-name="Lslash" unicode="&#x141;" horiz-adv-x="580" 
d="M89 371h83l31 226q6 42 -7.5 57.5t-63.5 22.5l3 23h265l-3 -23q-53 -7 -70.5 -22.5t-23.5 -57.5l-31 -226h112l-6 -38h-112l-41 -296h185q53 0 92 32.5t55 92.5h27l-32 -162h-515l3 22q53 7 70.5 22.5t23.5 57.5l32 231h-83z" />
    <glyph glyph-name="lslash" unicode="&#x142;" horiz-adv-x="297" 
d="M297 770l-56 -399h72l-5 -38h-73l-32 -231q-7 -55 24 -55q40 0 82 95l23 -11q-49 -141 -153 -141q-92 0 -76 112l32 231h-72l5 38h73l35 256q6 43 -3.5 59t-57.5 16l2 23l170 45h10z" />
    <glyph glyph-name="Nacute" unicode="&#x143;" horiz-adv-x="730" 
d="M460 761l12 -11l156 104q37 25 21 55q-12 24 -39 21q-19 -3 -33 -20zM594 172l59 425q6 43 -7.5 58t-70.5 22l3 23h222l-3 -23q-57 -7 -76 -22.5t-25 -57.5l-83 -597h-61l-297 607l-71 -505q-6 -43 7.5 -58t71.5 -22l-3 -22h-223l3 22q56 7 75 22.5t25 57.5l69 495
q6 42 -8.5 57.5t-68.5 22.5l3 23h205z" />
    <glyph glyph-name="nacute" unicode="&#x144;" horiz-adv-x="618" 
d="M276 343h2q41 73 91.5 120t102.5 47q107 0 87 -150l-35 -258q-7 -55 24 -55q40 0 82 95l23 -11q-49 -141 -153 -141q-90 0 -76 112l34 255q6 42 -2 62.5t-35 20.5q-39 0 -95 -72.5t-67 -152.5l-30 -215h-100l54 397q7 55 -23 55q-41 0 -82 -95l-23 11q50 142 153 142
q90 0 75 -112zM396 561l12 -11l155 104q37 25 22 55q-12 24 -39 21q-19 -3 -33 -20z" />
    <glyph glyph-name="Ncommaaccent" unicode="&#x145;" horiz-adv-x="730" 
d="M341 -46q24 0 40.5 -10.5t22 -26t7.5 -33.5t-1 -33q-10 -65 -57 -116t-98 -68l-10 23q65 28 92 82q21 40 0 53l-14 3q-26 0 -41.5 18.5t-11.5 45.5q4 25 25 43.5t46 18.5zM594 172l59 425q6 43 -7.5 58t-70.5 22l3 23h222l-3 -23q-57 -7 -76 -22.5t-25 -57.5l-83 -597
h-61l-297 607l-71 -505q-6 -43 7.5 -58t71.5 -22l-3 -22h-223l3 22q56 7 75 22.5t25 57.5l69 495q6 42 -8.5 57.5t-68.5 22.5l3 23h205z" />
    <glyph glyph-name="ncommaaccent" unicode="&#x146;" horiz-adv-x="618" 
d="M276 343h2q41 73 91.5 120t102.5 47q107 0 87 -150l-35 -258q-7 -55 24 -55q40 0 82 95l23 -11q-49 -141 -153 -141q-90 0 -76 112l34 255q6 42 -2 62.5t-35 20.5q-39 0 -95 -72.5t-67 -152.5l-30 -215h-100l54 397q7 55 -23 55q-41 0 -82 -95l-23 11q50 142 153 142
q90 0 75 -112zM327 -46q24 0 40.5 -10.5t22 -26t7.5 -33.5t-1 -33q-10 -65 -57 -116t-98 -68l-10 23q65 28 92 82q21 40 0 53l-14 3q-26 0 -41.5 18.5t-11.5 45.5q4 25 25 43.5t46 18.5z" />
    <glyph glyph-name="Ncaron" unicode="&#x147;" horiz-adv-x="730" 
d="M500 840l-101 90h-27l100 -180h30l150 180h-28zM594 172l59 425q6 43 -7.5 58t-70.5 22l3 23h222l-3 -23q-57 -7 -76 -22.5t-25 -57.5l-83 -597h-61l-297 607l-71 -505q-6 -43 7.5 -58t71.5 -22l-3 -22h-223l3 22q56 7 75 22.5t25 57.5l69 495q6 42 -8.5 57.5t-68.5 22.5
l3 23h205z" />
    <glyph glyph-name="ncaron" unicode="&#x148;" horiz-adv-x="618" 
d="M276 343h2q41 73 91.5 120t102.5 47q107 0 87 -150l-35 -258q-7 -55 24 -55q40 0 82 95l23 -11q-49 -141 -153 -141q-90 0 -76 112l34 255q6 42 -2 62.5t-35 20.5q-39 0 -95 -72.5t-67 -152.5l-30 -215h-100l54 397q7 55 -23 55q-41 0 -82 -95l-23 11q50 142 153 142
q90 0 75 -112zM432 640l-100 90h-27l100 -180h30l150 180h-28z" />
    <glyph glyph-name="napostrophe" unicode="&#x149;" horiz-adv-x="618" 
d="M276 343h2q41 73 91.5 120t102.5 47q107 0 87 -150l-35 -258q-7 -55 24 -55q40 0 82 95l23 -11q-49 -141 -153 -141q-90 0 -76 112l34 255q6 42 -2 62.5t-35 20.5q-39 0 -95 -72.5t-67 -152.5l-30 -215h-100l54 397q7 55 -23 55q-41 0 -82 -95l-23 11q50 142 153 142
q90 0 75 -112zM273 844q24 0 40.5 -10.5t22 -26t7.5 -33.5t-1 -33q-10 -65 -57 -116t-98 -68l-10 23q65 28 92 82q21 40 0 53q-6 3 -14 3q-26 0 -41.5 18.5t-11.5 45.5q4 25 25 43.5t46 18.5z" />
    <glyph glyph-name="Eng" unicode="&#x14a;" horiz-adv-x="730" 
d="M567 -21l-6 -39q-5 -36 -16 -64t-32.5 -52t-53.5 -26t-80 14q-36 15 -58 -14q-20 -27 -2 -49q15 -19 51 -19q95 0 160 70.5t83 199.5l83 597q6 42 25 57.5t76 22.5l3 23h-222l-3 -23q57 -7 70.5 -22t7.5 -58l-59 -425l-254 528h-205l-3 -23q54 -7 68.5 -22.5t8.5 -57.5
l-69 -495q-6 -42 -25 -57.5t-75 -22.5l-3 -22h223l3 22q-58 7 -71.5 22t-7.5 58l71 505z" />
    <glyph glyph-name="eng" unicode="&#x14b;" horiz-adv-x="580" 
d="M396 45l43 312q6 42 -2 62.5t-35 20.5q-39 0 -95 -72.5t-67 -152.5l-30 -215h-100l54 397q7 55 -23 55q-41 0 -82 -95l-23 11q50 142 153 142q90 0 75 -112l-7 -55h2q41 73 91.5 120t102.5 47q107 0 87 -150l-44 -315q-17 -124 -90.5 -219.5t-132.5 -95.5q-47 0 -51 35
q-3 29 20 45q15 11 31 5q24 -8 42 -9t29.5 3.5t19 17.5t11.5 27.5t7 38t4 44.5t4 52t6 56z" />
    <glyph glyph-name="Omacron" unicode="&#x14c;" horiz-adv-x="780" 
d="M356 837h315l-5 -40h-315zM94 350q21 155 136.5 257.5t258.5 102.5t229.5 -102.5t65.5 -257.5q-22 -155 -137.5 -257.5t-258.5 -102.5t-229.5 102.5t-64.5 257.5zM204 350q-20 -142 33 -232t156 -90q102 0 181.5 90t99.5 232q19 142 -34.5 231.5t-155.5 89.5
q-103 0 -182 -89.5t-98 -231.5z" />
    <glyph glyph-name="omacron" unicode="&#x14d;" horiz-adv-x="560" 
d="M90 250q17 112 89 186t176 74q103 0 152.5 -74t32.5 -186q-19 -112 -91.5 -186t-175.5 -74q-104 0 -153 74t-30 186zM200 250q-32 -225 82 -225q116 0 148 225t-84 225q-114 0 -146 -225zM247 637h315l-6 -40h-315z" />
    <glyph glyph-name="Obreve" unicode="&#x14e;" horiz-adv-x="780" 
d="M512 770q63 0 101.5 45t46.5 106h-25q-13 -37 -45 -57.5t-68 -20.5t-62 20.5t-29 57.5h-26q-8 -61 18 -106t89 -45zM94 350q21 155 136.5 257.5t258.5 102.5t229.5 -102.5t65.5 -257.5q-22 -155 -137.5 -257.5t-258.5 -102.5t-229.5 102.5t-64.5 257.5zM204 350
q-20 -142 33 -232t156 -90q102 0 181.5 90t99.5 232q19 142 -34.5 231.5t-155.5 89.5q-103 0 -182 -89.5t-98 -231.5z" />
    <glyph glyph-name="obreve" unicode="&#x14f;" horiz-adv-x="560" 
d="M90 250q17 112 89 186t176 74q103 0 152.5 -74t32.5 -186q-19 -112 -91.5 -186t-175.5 -74q-104 0 -153 74t-30 186zM200 250q-32 -225 82 -225q116 0 148 225t-84 225q-114 0 -146 -225zM386 570q63 0 101.5 45t46.5 106h-25q-13 -37 -45 -57.5t-68 -20.5t-62 20.5
t-29 57.5h-26q-8 -61 18 -106t89 -45z" />
    <glyph glyph-name="Ohungarumlaut" unicode="&#x150;" horiz-adv-x="780" 
d="M413 750l121 145q27 32 2 55q-21 19 -48 7q-16 -8 -23 -26l-68 -174zM573 750l121 145q27 32 2 55q-21 19 -48 7q-16 -8 -23 -26l-68 -174zM94 350q21 155 136.5 257.5t258.5 102.5t229.5 -102.5t65.5 -257.5q-22 -155 -137.5 -257.5t-258.5 -102.5t-229.5 102.5
t-64.5 257.5zM204 350q-20 -142 33 -232t156 -90q102 0 181.5 90t99.5 232q19 142 -34.5 231.5t-155.5 89.5q-103 0 -182 -89.5t-98 -231.5z" />
    <glyph glyph-name="ohungarumlaut" unicode="&#x151;" horiz-adv-x="560" 
d="M90 250q17 112 89 186t176 74q103 0 152.5 -74t32.5 -186q-19 -112 -91.5 -186t-175.5 -74q-104 0 -153 74t-30 186zM200 250q-32 -225 82 -225q116 0 148 225t-84 225q-114 0 -146 -225zM281 557l16 -7l121 145q27 32 2 55q-21 19 -48 7q-16 -8 -23 -26zM441 557l16 -7
l121 145q27 32 2 55q-21 19 -48 7q-16 -8 -23 -26z" />
    <glyph glyph-name="OE" unicode="&#x152;" horiz-adv-x="970" 
d="M688 662l-41 -291h85q50 0 79 22t43 79h27l-34 -240h-27q1 57 -22 79t-72 22h-85l-41 -296h180q53 0 92 32.5t55 92.5h27l-32 -162h-432q-37 -10 -102 -10q-143 0 -229.5 102.5t-64.5 257.5q21 155 136.5 257.5t258.5 102.5q66 0 99 -10h422l-18 -163h-27q1 61 -26.5 93
t-80.5 32h-170zM204 350q-20 -142 33 -232t156 -90q106 0 122 119l57 403q7 55 -13.5 88t-74.5 33q-103 0 -182 -89.5t-98 -231.5z" />
    <glyph glyph-name="oe" unicode="&#x153;" horiz-adv-x="863" 
d="M700 510q97 0 139 -63q37 -55 5 -116q-41 -77 -163 -98q-67 -12 -149 -3q0 -78 35 -120.5t87 -42.5q102 0 154 80h23q-26 -66 -82 -111.5t-135 -45.5q-109 0 -157 93q-70 -93 -184 -93q-104 0 -153 74t-30 186q17 112 89 186t176 74q111 0 155 -92q78 92 190 92zM200 250
q-32 -225 82 -225q116 0 148 225t-84 225q-114 0 -146 -225zM691 475q-60 0 -103 -56.5t-54 -154.5q123 -20 189 51q44 47 37 101q-7 49 -52 57q-8 2 -17 2z" />
    <glyph glyph-name="Racute" unicode="&#x154;" horiz-adv-x="670" 
d="M393 761l12 -11l156 104q37 25 21 55q-12 24 -39 21q-19 -3 -33 -20zM637 513q-23 -153 -195 -194l118 -206q18 -32 43.5 -56.5t51.5 -34.5l-3 -22h-145q-33 26 -67 95l-109 212h-68l-29 -205q-6 -42 7 -57.5t64 -22.5l-3 -22h-265l3 22q53 7 70.5 22.5t23.5 57.5l69 495
q6 42 -7.5 57.5t-63.5 22.5l3 23h298q110 0 163 -51t41 -136zM268 345h70q95 0 138.5 42t53.5 116q10 69 -18 114t-109 45h-90z" />
    <glyph glyph-name="racute" unicode="&#x155;" horiz-adv-x="476" 
d="M436 407q30 -3 46.5 23t4.5 53t-50 27q-90 0 -158 -163h-2l7 51q15 112 -76 112q-103 0 -153 -142l23 -11q41 95 82 95q31 0 23 -55l-54 -397h100l30 215q13 93 56.5 146.5t120.5 45.5zM328 561l12 -11l155 104q37 25 22 55q-12 24 -39 21q-19 -3 -33 -20z" />
    <glyph glyph-name="Rcommaaccent" unicode="&#x156;" horiz-adv-x="670" 
d="M340 -40q24 0 40.5 -10.5t22 -26t7.5 -33.5t-1 -33q-10 -65 -57 -116t-98 -68l-10 23q65 28 92 82q21 40 0 53l-14 3q-26 0 -41.5 18.5t-11.5 45.5q4 25 25 43.5t46 18.5zM637 513q-23 -153 -195 -194l118 -206q18 -32 43.5 -56.5t51.5 -34.5l-3 -22h-145q-33 26 -67 95
l-109 212h-68l-29 -205q-6 -42 7 -57.5t64 -22.5l-3 -22h-265l3 22q53 7 70.5 22.5t23.5 57.5l69 495q6 42 -7.5 57.5t-63.5 22.5l3 23h298q110 0 163 -51t41 -136zM268 345h70q95 0 138.5 42t53.5 116q10 69 -18 114t-109 45h-90z" />
    <glyph glyph-name="rcommaaccent" unicode="&#x157;" horiz-adv-x="476" 
d="M436 407q30 -3 46.5 23t4.5 53t-50 27q-90 0 -158 -163h-2l7 51q15 112 -76 112q-103 0 -153 -142l23 -11q41 95 82 95q31 0 23 -55l-54 -397h100l30 215q13 93 56.5 146.5t120.5 45.5zM161 -46q24 0 40.5 -10.5t22 -26t7.5 -33.5t-1 -33q-10 -65 -57 -116t-98 -68
l-10 23q65 28 92 82q21 40 0 53l-14 3q-26 0 -41.5 18.5t-11.5 45.5q4 25 25 43.5t46 18.5z" />
    <glyph glyph-name="Rcaron" unicode="&#x158;" horiz-adv-x="670" 
d="M433 840l-101 90h-27l100 -180h30l150 180h-28zM637 513q-23 -153 -195 -194l118 -206q18 -32 43.5 -56.5t51.5 -34.5l-3 -22h-145q-33 26 -67 95l-109 212h-68l-29 -205q-6 -42 7 -57.5t64 -22.5l-3 -22h-265l3 22q53 7 70.5 22.5t23.5 57.5l69 495q6 42 -7.5 57.5
t-63.5 22.5l3 23h298q110 0 163 -51t41 -136zM268 345h70q95 0 138.5 42t53.5 116q10 69 -18 114t-109 45h-90z" />
    <glyph glyph-name="rcaron" unicode="&#x159;" horiz-adv-x="476" 
d="M436 407q30 -3 46.5 23t4.5 53t-50 27q-90 0 -158 -163h-2l7 51q15 112 -76 112q-103 0 -153 -142l23 -11q41 95 82 95q31 0 23 -55l-54 -397h100l30 215q13 93 56.5 146.5t120.5 45.5zM340 640l-100 90h-27l100 -180h30l150 180h-28z" />
    <glyph glyph-name="Sacute" unicode="&#x15a;" horiz-adv-x="535" 
d="M355 761l12 -11l156 104q37 25 21 55q-12 24 -39 21q-19 -2 -33 -20zM346 415q190 -81 171 -220q-13 -94 -85 -149.5t-174 -55.5q-113 0 -198 50l15 177h27q-8 -187 157 -187q62 0 102 36t48 97q8 57 -27.5 92t-102.5 65q-81 37 -122.5 84.5t-31.5 121.5q11 81 78 132.5
t168 51.5q103 0 179 -45l-14 -168h-27q-4 173 -137 173q-56 0 -92.5 -27.5t-44.5 -82.5q-7 -52 23 -86t88 -59z" />
    <glyph glyph-name="sacute" unicode="&#x15b;" horiz-adv-x="480" 
d="M231 25q40 0 68.5 24t34.5 63q5 37 -19.5 59t-78.5 46q-67 29 -97 62.5t-22 92.5q8 61 61 99.5t134 38.5t125 -37t37 -88q-4 -23 -21.5 -36.5t-43.5 -13.5q-22 0 -33.5 10.5t-8.5 26.5q12 49 -1.5 76t-61.5 27q-36 0 -63 -19.5t-32 -54.5q-3 -21 3 -37t22 -27t28 -17
t36 -15q74 -30 110 -65.5t27 -97.5q-9 -69 -68.5 -110.5t-137.5 -41.5q-82 0 -126 37t-36 88q3 22 20.5 36t43.5 14q22 0 33.5 -10.5t8.5 -26.5q-22 -103 58 -103zM282 561l12 -11l155 104q37 25 22 55q-12 24 -39 21q-19 -3 -33 -20z" />
    <glyph glyph-name="Scircumflex" unicode="&#x15c;" horiz-adv-x="535" 
d="M390 840l-126 -90h-27l150 180h30l100 -180h-28zM346 415q190 -81 171 -220q-13 -94 -85 -149.5t-174 -55.5q-113 0 -198 50l15 177h27q-8 -187 157 -187q62 0 102 36t48 97q8 57 -27.5 92t-102.5 65q-81 37 -122.5 84.5t-31.5 121.5q11 81 78 132.5t168 51.5
q103 0 179 -45l-14 -168h-27q-4 173 -137 173q-56 0 -92.5 -27.5t-44.5 -82.5q-7 -52 23 -86t88 -59z" />
    <glyph glyph-name="scircumflex" unicode="&#x15d;" horiz-adv-x="480" 
d="M231 25q40 0 68.5 24t34.5 63q5 37 -19.5 59t-78.5 46q-67 29 -97 62.5t-22 92.5q8 61 61 99.5t134 38.5t125 -37t37 -88q-4 -23 -21.5 -36.5t-43.5 -13.5q-22 0 -33.5 10.5t-8.5 26.5q12 49 -1.5 76t-61.5 27q-36 0 -63 -19.5t-32 -54.5q-3 -21 3 -37t22 -27t28 -17
t36 -15q74 -30 110 -65.5t27 -97.5q-9 -69 -68.5 -110.5t-137.5 -41.5q-82 0 -126 37t-36 88q3 22 20.5 36t43.5 14q22 0 33.5 -10.5t8.5 -26.5q-22 -103 58 -103zM325 640l-125 -90h-27l150 180h30l100 -180h-28z" />
    <glyph glyph-name="Scedilla" unicode="&#x15e;" horiz-adv-x="535" 
d="M536 497h-27q-4 173 -137 173q-56 0 -92.5 -27.5t-44.5 -82.5q-7 -52 23 -86t88 -59q190 -81 171 -220q-13 -92 -81.5 -147t-167.5 -57l-4 -31q-2 -11 13.5 -17.5t34.5 -10t32.5 -20t9.5 -46.5q-7 -44 -63.5 -75.5t-119.5 -40.5l-5 30q1 0 21.5 6t29.5 10t25 12t24 19.5
t10 25.5q2 18 -6 28.5t-19 15.5t-18.5 18t-3.5 35l8 41q-102 5 -177 49l15 177h27q-8 -187 157 -187q62 0 102 36t48 97q8 57 -27.5 92t-102.5 65q-81 37 -122.5 84.5t-31.5 121.5q11 81 78 132.5t168 51.5q103 0 179 -45z" />
    <glyph glyph-name="scedilla" unicode="&#x15f;" horiz-adv-x="480" 
d="M231 25q40 0 68.5 24t34.5 63q5 37 -19.5 59t-78.5 46q-67 29 -97 62.5t-22 92.5q8 61 61 99.5t134 38.5t125 -37t37 -88q-4 -23 -21.5 -36.5t-43.5 -13.5q-22 0 -33.5 10.5t-8.5 26.5q12 49 -1.5 76t-61.5 27q-36 0 -63 -19.5t-32 -54.5q-3 -21 3 -37t22 -27t28 -17
t36 -15q74 -30 110 -65.5t27 -97.5q-9 -65 -63.5 -106t-127.5 -45l-4 -31q-2 -11 13.5 -17.5t34.5 -10t32.5 -20t9.5 -46.5q-7 -44 -63.5 -75.5t-119.5 -40.5l-5 30q1 0 21.5 6t29.5 10t25 12t24 19.5t10 25.5q2 17 -6.5 28t-19.5 16t-18 18t-3 35l9 41q-75 4 -115 40
t-32 84q3 22 20.5 36t43.5 14q22 0 33.5 -10.5t8.5 -26.5q-22 -103 58 -103z" />
    <glyph glyph-name="Scaron" unicode="&#x160;" horiz-adv-x="535" 
d="M395 840l-101 90h-27l100 -180h30l150 180h-28zM346 415q190 -81 171 -220q-13 -94 -85 -149.5t-174 -55.5q-113 0 -198 50l15 177h27q-8 -187 157 -187q62 0 102 36t48 97q8 57 -27.5 92t-102.5 65q-81 37 -122.5 84.5t-31.5 121.5q11 81 78 132.5t168 51.5
q103 0 179 -45l-14 -168h-27q-4 173 -137 173q-56 0 -92.5 -27.5t-44.5 -82.5q-7 -52 23 -86t88 -59z" />
    <glyph glyph-name="scaron" unicode="&#x161;" horiz-adv-x="480" 
d="M231 25q40 0 68.5 24t34.5 63q5 37 -19.5 59t-78.5 46q-67 29 -97 62.5t-22 92.5q8 61 61 99.5t134 38.5t125 -37t37 -88q-4 -23 -21.5 -36.5t-43.5 -13.5q-22 0 -33.5 10.5t-8.5 26.5q12 49 -1.5 76t-61.5 27q-36 0 -63 -19.5t-32 -54.5q-3 -21 3 -37t22 -27t28 -17
t36 -15q74 -30 110 -65.5t27 -97.5q-9 -69 -68.5 -110.5t-137.5 -41.5q-82 0 -126 37t-36 88q3 22 20.5 36t43.5 14q22 0 33.5 -10.5t8.5 -26.5q-22 -103 58 -103zM318 640l-100 90h-27l100 -180h30l150 180h-28z" />
    <glyph glyph-name="Tcommaaccent" unicode="&#x162;" horiz-adv-x="600" 
d="M281 -46q24 0 40.5 -10.5t22 -26t7.5 -33.5t-1 -33q-10 -65 -57 -116t-98 -68l-10 23q65 28 92 82q21 40 0 53l-14 3q-26 0 -41.5 18.5t-11.5 45.5q4 25 25 43.5t46 18.5zM665 700h-535l-28 -163h28q16 60 53 92.5t90 32.5h70l-79 -560q-6 -42 -23.5 -57.5t-70.5 -22.5
l-3 -22h265l3 22q-51 7 -64 22.5t-7 57.5l79 560h70q53 0 80.5 -32t26.5 -93h27z" />
    <glyph glyph-name="tcommaaccent" unicode="&#x163;" horiz-adv-x="351" 
d="M254 460l-51 -358q-8 -55 25 -55q17 0 39 22t44 73l24 -11q-51 -141 -156 -141q-92 0 -76 112l51 358h-63l5 35l65 15l95 140h25l-21 -150h122l-6 -40h-122zM163 -46q24 0 40.5 -10.5t22 -26t7.5 -33.5t-1 -33q-10 -65 -57 -116t-98 -68l-10 23q65 28 92 82q21 40 0 53
l-14 3q-26 0 -41.5 18.5t-11.5 45.5q4 25 25 43.5t46 18.5z" />
    <glyph glyph-name="Tcaron" unicode="&#x164;" horiz-adv-x="600" 
d="M417 840l-101 90h-27l100 -180h30l150 180h-28zM665 700h-535l-28 -163h28q16 60 53 92.5t90 32.5h70l-79 -560q-6 -42 -23.5 -57.5t-70.5 -22.5l-3 -22h265l3 22q-51 7 -64 22.5t-7 57.5l79 560h70q53 0 80.5 -32t26.5 -93h27z" />
    <glyph glyph-name="tcaron" unicode="&#x165;" horiz-adv-x="379" 
d="M253 460l-51 -358q-8 -55 25 -55q17 0 39 22t44 73l24 -11q-51 -141 -156 -141q-92 0 -76 112l51 358h-63l5 35l65 15l95 140h25l-21 -150h122l-6 -40h-122zM426 834q24 0 40.5 -10.5t22 -26t7.5 -33.5t-1 -33q-10 -65 -57 -116t-98 -68l-10 23q65 28 92 82q21 40 0 53
q-6 3 -14 3q-26 0 -41.5 18.5t-11.5 45.5q4 25 25 43.5t46 18.5z" />
    <glyph glyph-name="Tbar" unicode="&#x166;" horiz-adv-x="600" 
d="M514 371h-112l41 291h70q53 0 80.5 -32t26.5 -93h27l18 163h-535l-28 -163h28q16 60 53 92.5t90 32.5h70l-41 -291h-113l-6 -38h113l-32 -231q-6 -42 -23.5 -57.5t-70.5 -22.5l-3 -22h265l3 22q-51 7 -64 22.5t-7 57.5l32 231h112z" />
    <glyph glyph-name="tbar" unicode="&#x167;" horiz-adv-x="351" 
d="M254 460l-18 -124h93l-5 -38h-93l-28 -196q-8 -55 25 -55q17 0 39 22t44 73l24 -11q-51 -141 -156 -141q-92 0 -76 112l28 196h-62l5 38h62l18 124h-63l5 35l65 15l95 140h25l-21 -150h122l-6 -40h-122z" />
    <glyph glyph-name="Utilde" unicode="&#x168;" horiz-adv-x="760" 
d="M355 767l-18 13q72 115 121 115q20 0 78 -20t77 -20q28 0 44.5 7.5t35.5 29.5l18 -12q-67 -105 -115 -105q-24 0 -80 20t-79 20q-25 0 -41.5 -10.5t-40.5 -37.5zM637 280l44 317q6 42 -8 57.5t-71 22.5l3 23h225l-3 -23q-58 -7 -77 -22.5t-25 -57.5l-46 -327
q-19 -133 -100.5 -206.5t-205.5 -73.5q-133 0 -188.5 73.5t-37.5 206.5l46 327q6 42 -7.5 57.5t-63.5 22.5l3 23h265l-3 -23q-53 -7 -70.5 -22.5t-23.5 -57.5l-44 -317q-35 -245 152 -245q100 0 159.5 63.5t76.5 181.5z" />
    <glyph glyph-name="utilde" unicode="&#x169;" horiz-adv-x="618" 
d="M432 157h-2q-41 -73 -91.5 -120t-102.5 -47q-107 0 -87 150l35 258q7 55 -24 55q-40 0 -82 -95l-23 11q49 141 153 141q90 0 76 -112l-34 -255q-6 -42 2 -62.5t35 -20.5q39 0 95 72.5t67 152.5l30 215h100l-54 -397q-7 -55 23 -55q41 0 82 95l23 -11q-50 -142 -153 -142
q-90 0 -75 112zM221 567l-18 13q72 115 121 115q20 0 78 -20t77 -20q27 0 43.5 7.5t36.5 29.5l18 -12q-19 -29 -32.5 -47.5t-37.5 -38t-45 -19.5q-23 0 -79 20t-80 20q-25 0 -41.5 -10.5t-40.5 -37.5z" />
    <glyph glyph-name="Umacron" unicode="&#x16a;" horiz-adv-x="760" 
d="M358 837h315l-5 -40h-315zM637 280l44 317q6 42 -8 57.5t-71 22.5l3 23h225l-3 -23q-58 -7 -77 -22.5t-25 -57.5l-46 -327q-19 -133 -100.5 -206.5t-205.5 -73.5q-133 0 -188.5 73.5t-37.5 206.5l46 327q6 42 -7.5 57.5t-63.5 22.5l3 23h265l-3 -23q-53 -7 -70.5 -22.5
t-23.5 -57.5l-44 -317q-35 -245 152 -245q100 0 159.5 63.5t76.5 181.5z" />
    <glyph glyph-name="umacron" unicode="&#x16b;" horiz-adv-x="618" 
d="M432 157h-2q-41 -73 -91.5 -120t-102.5 -47q-107 0 -87 150l35 258q7 55 -24 55q-40 0 -82 -95l-23 11q49 141 153 141q90 0 76 -112l-34 -255q-6 -42 2 -62.5t35 -20.5q39 0 95 72.5t67 152.5l30 215h100l-54 -397q-7 -55 23 -55q41 0 82 95l23 -11q-50 -142 -153 -142
q-90 0 -75 112zM245 637h315l-6 -40h-315z" />
    <glyph glyph-name="Ubreve" unicode="&#x16c;" horiz-adv-x="760" 
d="M494 770q63 0 101.5 45t46.5 106h-25q-13 -37 -45 -57.5t-68 -20.5t-62 20.5t-29 57.5h-26q-8 -61 18 -106t89 -45zM637 280l44 317q6 42 -8 57.5t-71 22.5l3 23h225l-3 -23q-58 -7 -77 -22.5t-25 -57.5l-46 -327q-19 -133 -100.5 -206.5t-205.5 -73.5
q-133 0 -188.5 73.5t-37.5 206.5l46 327q6 42 -7.5 57.5t-63.5 22.5l3 23h265l-3 -23q-53 -7 -70.5 -22.5t-23.5 -57.5l-44 -317q-35 -245 152 -245q100 0 159.5 63.5t76.5 181.5z" />
    <glyph glyph-name="ubreve" unicode="&#x16d;" horiz-adv-x="618" 
d="M432 157h-2q-41 -73 -91.5 -120t-102.5 -47q-107 0 -87 150l35 258q7 55 -24 55q-40 0 -82 -95l-23 11q49 141 153 141q90 0 76 -112l-34 -255q-6 -42 2 -62.5t35 -20.5q39 0 95 72.5t67 152.5l30 215h100l-54 -397q-7 -55 23 -55q41 0 82 95l23 -11q-50 -142 -153 -142
q-90 0 -75 112zM387 570q63 0 101.5 45t46.5 106h-25q-13 -37 -45 -57.5t-68 -20.5t-62 20.5t-29 57.5h-26q-8 -61 18 -106t89 -45z" />
    <glyph glyph-name="Uring" unicode="&#x16e;" horiz-adv-x="760" 
d="M429 837q5 38 35 64t68 26q37 0 59.5 -26t17.5 -64t-35 -64t-68 -26t-60 26t-17 64zM462 837q-3 -24 11 -40.5t38 -16.5t43 16.5t22 40.5q4 24 -10.5 40.5t-38.5 16.5t-42.5 -16.5t-22.5 -40.5zM637 280l44 317q6 42 -8 57.5t-71 22.5l3 23h225l-3 -23q-58 -7 -77 -22.5
t-25 -57.5l-46 -327q-19 -133 -100.5 -206.5t-205.5 -73.5q-133 0 -188.5 73.5t-37.5 206.5l46 327q6 42 -7.5 57.5t-63.5 22.5l3 23h265l-3 -23q-53 -7 -70.5 -22.5t-23.5 -57.5l-44 -317q-35 -245 152 -245q100 0 159.5 63.5t76.5 181.5z" />
    <glyph glyph-name="uring" unicode="&#x16f;" horiz-adv-x="618" 
d="M432 157h-2q-41 -73 -91.5 -120t-102.5 -47q-107 0 -87 150l35 258q7 55 -24 55q-40 0 -82 -95l-23 11q49 141 153 141q90 0 76 -112l-34 -255q-6 -42 2 -62.5t35 -20.5q39 0 95 72.5t67 152.5l30 215h100l-54 -397q-7 -55 23 -55q41 0 82 95l23 -11q-50 -142 -153 -142
q-90 0 -75 112zM308 637q5 38 35 64t68 26q37 0 59.5 -26t17.5 -64t-35 -64t-68 -26t-60 26t-17 64zM341 637q-3 -24 11 -40.5t38 -16.5t43 16.5t22 40.5q4 24 -10.5 40.5t-38.5 16.5t-42.5 -16.5t-22.5 -40.5z" />
    <glyph glyph-name="Uhungarumlaut" unicode="&#x170;" horiz-adv-x="760" 
d="M417 750l121 145q27 32 2 55q-21 19 -48 7q-16 -8 -23 -26l-68 -174zM577 750l121 145q27 32 2 55q-21 19 -48 7q-16 -8 -23 -26l-68 -174zM637 280l44 317q6 42 -8 57.5t-71 22.5l3 23h225l-3 -23q-58 -7 -77 -22.5t-25 -57.5l-46 -327q-19 -133 -100.5 -206.5
t-205.5 -73.5q-133 0 -188.5 73.5t-37.5 206.5l46 327q6 42 -7.5 57.5t-63.5 22.5l3 23h265l-3 -23q-53 -7 -70.5 -22.5t-23.5 -57.5l-44 -317q-35 -245 152 -245q100 0 159.5 63.5t76.5 181.5z" />
    <glyph glyph-name="uhungarumlaut" unicode="&#x171;" horiz-adv-x="618" 
d="M432 157h-2q-41 -73 -91.5 -120t-102.5 -47q-107 0 -87 150l35 258q7 55 -24 55q-40 0 -82 -95l-23 11q49 141 153 141q90 0 76 -112l-34 -255q-6 -42 2 -62.5t35 -20.5q39 0 95 72.5t67 152.5l30 215h100l-54 -397q-7 -55 23 -55q41 0 82 95l23 -11q-50 -142 -153 -142
q-90 0 -75 112zM269 557l16 -7l121 145q27 32 2 55q-21 19 -48 7q-16 -8 -23 -26zM429 557l16 -7l121 145q27 32 2 55q-21 19 -48 7q-16 -8 -23 -26z" />
    <glyph glyph-name="Uogonek" unicode="&#x172;" horiz-adv-x="760" 
d="M428 -167l-3 -20q-37 -40 -87 -40q-47 0 -66 34t4 86t86 97q-127 3 -180 76t-35 204l46 327q6 42 -7.5 57.5t-63.5 22.5l3 23h265l-3 -23q-53 -7 -70.5 -22.5t-23.5 -57.5l-44 -317q-35 -245 152 -245q100 0 159.5 63.5t76.5 181.5l44 317q6 42 -8 57.5t-71 22.5l3 23
h225l-3 -23q-58 -7 -77 -22.5t-25 -57.5l-46 -327q-18 -127 -93 -199.5t-191 -79.5q-55 -51 -62 -110q-6 -51 35 -58q24 -4 60 10z" />
    <glyph glyph-name="uogonek" unicode="&#x173;" horiz-adv-x="618" 
d="M547 -167l-3 -20q-37 -40 -87 -40q-47 0 -66 34t4 86.5t88 97.5q-72 10 -58 111l7 55h-2q-41 -73 -91.5 -120t-102.5 -47q-107 0 -87 150l35 258q7 55 -24 55q-40 0 -82 -95l-23 11q49 141 153 141q90 0 76 -112l-34 -255q-6 -42 2 -62.5t35 -20.5q39 0 95 72.5t67 152.5
l30 215h100l-54 -397q-7 -55 23 -55q41 0 82 95l23 -11q-45 -130 -138 -141q-55 -51 -63 -110q-6 -51 35 -58q24 -4 60 10z" />
    <glyph glyph-name="Wcircumflex" unicode="&#x174;" horiz-adv-x="1010" 
d="M631 840l-126 -90h-27l150 180h30l100 -180h-28zM543 617l22 -132l-186 -364h-2l-86 466q-7 41 9 62t70 28l3 23h-268l-3 -23q41 -11 54 -22.5t18 -37.5l121 -622h58l222 427l74 -427h67l272 622q13 31 34 41.5t75 18.5l3 23h-225l-3 -23q55 -7 64.5 -33.5t-12.5 -71.5
l-192 -451h-2l-69 466q-6 42 8.5 62.5t67.5 27.5l3 23h-267l-3 -23q41 -11 54.5 -22.5t18.5 -37.5z" />
    <glyph glyph-name="wcircumflex" unicode="&#x175;" horiz-adv-x="863" 
d="M432 156h-2q-42 -73 -92.5 -119.5t-102.5 -46.5t-74.5 35t-11.5 115l35 257q7 55 -24 55q-41 0 -81 -95l-24 11q51 142 154 142q91 0 75 -113l-35 -255q-6 -41 2 -61.5t35 -20.5q40 0 96 72t67 153l30 215h100l-50 -358q-12 -87 72 -87q32 0 61 11t55 39t38.5 69.5
t7.5 109.5t-32 153q-15 47 19 66q31 17 62 -4q22 -17 28 -47q22 -117 -14 -225.5t-111.5 -172.5t-165.5 -64q-64 0 -95 31t-25 100zM558 640l-125 -90h-27l150 180h30l100 -180h-28z" />
    <glyph glyph-name="Ycircumflex" unicode="&#x176;" horiz-adv-x="640" 
d="M464 840l-126 -90h-27l150 180h30l100 -180h-28zM163 617l155 -382l-19 -133q-6 -42 -23.5 -57.5t-70.5 -22.5l-3 -22h265l3 22q-51 7 -64 22.5t-7 57.5l25 177l207 338q18 29 38.5 40.5t60.5 19.5l3 23h-205l-3 -23q92 -13 42 -95l-168 -270h-2l-103 275
q-8 21 -10.5 33.5t1 25.5t18.5 20t42 11l3 23h-245l-3 -23q27 -12 40.5 -24.5t22.5 -35.5z" />
    <glyph glyph-name="ycircumflex" unicode="&#x177;" horiz-adv-x="582" 
d="M285 397l-35 -255q-12 -87 72 -87q32 0 61 11t55 39t38.5 69.5t7.5 109.5t-32 153q-15 46 21 66q32 17 62 -5q22 -15 26 -46q22 -172 -39 -342t-173.5 -275t-234.5 -105q-48 0 -57 35q-8 29 14 45q15 11 35 5q94 -27 203 48.5t159 219.5l-1 1q-89 -94 -197 -94
q-69 0 -100 35t-20 115l35 257q7 55 -24 55q-41 0 -81 -95l-24 11q51 142 154 142q91 0 75 -113zM418 640l-125 -90h-27l150 180h30l100 -180h-28z" />
    <glyph glyph-name="Ydieresis" unicode="&#x178;" horiz-adv-x="640" 
d="M306 815q4 25 22 40.5t41 15.5q24 0 38 -15.5t10 -40.5t-22 -40t-42 -15t-37.5 15.5t-9.5 39.5zM500 815q4 25 22 40.5t42 15.5t38 -16t10 -40t-22 -39.5t-42 -15.5t-38 15.5t-10 39.5zM163 617l155 -382l-19 -133q-6 -42 -23.5 -57.5t-70.5 -22.5l-3 -22h265l3 22
q-51 7 -64 22.5t-7 57.5l25 177l207 338q18 29 38.5 40.5t60.5 19.5l3 23h-205l-3 -23q92 -13 42 -95l-168 -270h-2l-103 275q-8 21 -10.5 33.5t1 25.5t18.5 20t42 11l3 23h-245l-3 -23q27 -12 40.5 -24.5t22.5 -35.5z" />
    <glyph glyph-name="Zacute" unicode="&#x179;" horiz-adv-x="600" 
d="M395 761l12 -11l156 104q37 25 21 55q-12 24 -39 21q-19 -3 -33 -20zM173 37l473 633l4 30h-488l-28 -163h28q16 61 53 93t90 32h215l-480 -635l-3 -27h515l32 162h-27q-16 -60 -54.5 -92.5t-92.5 -32.5h-237z" />
    <glyph glyph-name="zacute" unicode="&#x17a;" horiz-adv-x="483" 
d="M111 100l1 -1q66 25 116 14.5t79 -35.5t52 -45.5t35 -15.5q10 4 10 27.5t-6 39.5q-10 32 18 44t49 -9q14 -14 14 -37q0 -44 -43 -74t-103 -30q-38 0 -76 10.5t-64 24.5t-47.5 27.5t-34 20t-15.5 2.5q-1 -6 -1 -8t4.5 -10.5t6.5 -15.5q7 -23 -9.5 -38t-36.5 -9.5t-24 32.5
q-3 25 26 69.5t117 129.5t231 198l-1 1q-39 -24 -76.5 -26t-62 9.5t-54 24t-48.5 12.5q-26 0 -41.5 -14.5t-41.5 -60.5l-24 11q34 77 70.5 110.5t93.5 33.5q45 0 99.5 -15t86 -26t35.5 -4q2 4 -1 8.5t-9 12.5t-8 17q-10 33 16 43q23 10 39 -11q7 -10 9 -24
q5 -50 -56.5 -115.5t-278.5 -256.5q-30 -27 -46 -41zM288 561l12 -11l155 104q37 25 22 55q-12 24 -39 21q-19 -3 -33 -20z" />
    <glyph glyph-name="Zdotaccent" unicode="&#x17b;" horiz-adv-x="600" 
d="M374 827q3 25 23 42.5t45 17.5t40 -17.5t12 -42.5q-4 -25 -24 -42.5t-45 -17.5t-40 17t-11 43zM173 37l473 633l4 30h-488l-28 -163h28q16 61 53 93t90 32h215l-480 -635l-3 -27h515l32 162h-27q-16 -60 -54.5 -92.5t-92.5 -32.5h-237z" />
    <glyph glyph-name="zdotaccent" unicode="&#x17c;" horiz-adv-x="483" 
d="M111 100l1 -1q66 25 116 14.5t79 -35.5t52 -45.5t35 -15.5q10 4 10 27.5t-6 39.5q-10 32 18 44t49 -9q14 -14 14 -37q0 -44 -43 -74t-103 -30q-38 0 -76 10.5t-64 24.5t-47.5 27.5t-34 20t-15.5 2.5q-1 -6 -1 -8t4.5 -10.5t6.5 -15.5q7 -23 -9.5 -38t-36.5 -9.5t-24 32.5
q-3 25 26 69.5t117 129.5t231 198l-1 1q-39 -24 -76.5 -26t-62 9.5t-54 24t-48.5 12.5q-26 0 -41.5 -14.5t-41.5 -60.5l-24 11q34 77 70.5 110.5t93.5 33.5q45 0 99.5 -15t86 -26t35.5 -4q2 4 -1 8.5t-9 12.5t-8 17q-10 33 16 43q23 10 39 -11q7 -10 9 -24
q5 -50 -56.5 -115.5t-278.5 -256.5q-30 -27 -46 -41zM274 627q3 25 23 42.5t45 17.5t40 -17.5t12 -42.5q-4 -25 -24 -42.5t-45 -17.5t-40 17t-11 43z" />
    <glyph glyph-name="Zcaron" unicode="&#x17d;" horiz-adv-x="600" 
d="M430 840l-101 90h-27l100 -180h30l150 180h-28zM173 37l473 633l4 30h-488l-28 -163h28q16 61 53 93t90 32h215l-480 -635l-3 -27h515l32 162h-27q-16 -60 -54.5 -92.5t-92.5 -32.5h-237z" />
    <glyph glyph-name="zcaron" unicode="&#x17e;" horiz-adv-x="486" 
d="M111 100l1 -1q66 25 116 14.5t79 -35.5t52 -45.5t35 -15.5q10 4 10 27.5t-6 39.5q-10 32 18 44t49 -9q14 -14 14 -37q0 -44 -43 -74t-103 -30q-38 0 -76 10.5t-64 24.5t-47.5 27.5t-34 20t-15.5 2.5q-1 -6 -1 -8t4.5 -10.5t6.5 -15.5q7 -23 -9.5 -38t-36.5 -9.5t-24 32.5
q-3 25 26 69.5t117 129.5t231 198l-1 1q-39 -24 -76.5 -26t-62 9.5t-54 24t-48.5 12.5q-26 0 -41.5 -14.5t-41.5 -60.5l-24 11q34 77 70.5 110.5t93.5 33.5q45 0 99.5 -15t86 -26t35.5 -4q2 4 -1 8.5t-9 12.5t-8 17q-10 33 16 43q23 10 39 -11q7 -10 9 -24
q5 -50 -56.5 -115.5t-278.5 -256.5q-30 -27 -46 -41zM343 640l-100 90h-27l100 -180h30l150 180h-28z" />
    <glyph glyph-name="longs" unicode="&#x17f;" horiz-adv-x="310" 
d="M106 45l64 455q16 108 107 189t151 81q45 0 48 -33q3 -28 -21 -46q-17 -12 -34 -6q-36 13 -60 12.5t-38.5 -9t-23.5 -33.5t-14 -51.5t-11 -72.5q-3 -20 -4 -31l-64 -455q-18 -124 -91.5 -219.5t-131.5 -95.5q-47 0 -51 35q-3 29 20 45q15 11 31 5q27 -10 46 -10.5t31 9.5
t18.5 23t10.5 38t5.5 48t4.5 58.5t7 63.5z" />
    <glyph glyph-name="florin" unicode="&#x192;" horiz-adv-x="310" 
d="M143 460h-59v35l65 5q10 56 44 108.5t76 86.5t82 54.5t65 20.5q45 0 47 -33q2 -28 -22 -46q-17 -12 -34 -6q-30 11 -51 14t-37 -6.5t-25 -16.5t-17.5 -37.5t-11.5 -46.5t-11 -63q-3 -19 -5 -29h122v-40h-129l-82 -460q-10 -54 -44 -106t-75 -87t-81.5 -56t-65.5 -21
q-45 0 -47 33q-2 28 22 46q17 12 34 6q29 -10 50 -13t36 4.5t24.5 18t17 34.5t12 46t11.5 61q4 22 6 34z" />
    <glyph glyph-name="AEacute" unicode="&#x1fc;" horiz-adv-x="880" 
d="M598 761l12 -11l156 104q37 25 21 55q-12 24 -39 21q-19 -3 -33 -20zM559 700l-427 -618q-21 -30 -44.5 -41t-77.5 -19l-3 -22h225l3 22q-28 4 -42.5 12t-15.5 22t6.5 30t23.5 41l139 206h140l-32 -231q-6 -42 -23.5 -57.5t-70.5 -22.5l-3 -22h475l32 162h-27
q-16 -60 -55 -92.5t-92 -32.5h-145l41 296h50q49 0 72 -22t22 -79h27l34 240h-27q-14 -57 -43 -79t-79 -22h-50l41 291h135q53 0 80.5 -32t26.5 -93h27l18 163h-361zM520 587h2l-30 -216h-120z" />
    <glyph glyph-name="aeacute" unicode="&#x1fd;" horiz-adv-x="749" 
d="M467 561l12 -11l155 104q37 25 22 55q-12 24 -39 21q-19 -2 -33 -20zM198 56q70 0 149 53q-16 44 -11 106l-120 -26q-66 -15 -66 -77q0 -27 13.5 -41.5t34.5 -14.5zM528 -10q-121 0 -170 92q-123 -92 -215 -92q-45 0 -72.5 35t-20.5 85q13 88 145 111l142 24l16 100
q10 59 -11 89.5t-67 30.5q-32 0 -54.5 -12t-30.5 -28.5t-8 -33t9 -26.5q21 -23 -16 -46q-36 -22 -63 -15q-11 4 -14 11q-7 24 9 57t48 64t82.5 52.5t103.5 21.5q84 0 108 -63q77 63 166 63q81 0 111 -54q31 -53 -10 -112q-59 -86 -220 -111q-27 -4 -56 -6q0 -76 33.5 -118
t94.5 -42q102 0 154 80h22q-26 -66 -82 -111.5t-134 -45.5zM600 475q-59 0 -103.5 -59t-54.5 -156q118 7 175 85q39 53 26 97q-11 32 -43 33z" />
    <glyph glyph-name="Oslashacute" unicode="&#x1fe;" horiz-adv-x="780" 
d="M480 761l12 -11l156 104q37 25 21 55q-12 24 -39 21q-19 -3 -33 -20zM94 350q21 155 136.5 257.5t258.5 102.5q135 0 219 -92l67 61l23 -30l-66 -60q71 -100 52 -239q-22 -155 -137.5 -257.5t-258.5 -102.5q-130 0 -217 87l-69 -63l-24 31l69 62q-74 99 -53 243zM204 350
q-14 -100 11 -181l434 394q-52 108 -165 108q-103 0 -182 -89.5t-98 -231.5zM674 350q13 94 -12 175l-432 -395q53 -102 163 -102q102 0 181.5 90t99.5 232z" />
    <glyph glyph-name="oslashacute" unicode="&#x1ff;" horiz-adv-x="560" 
d="M353 561l12 -11l155 104q37 25 22 55q-12 24 -39 21q-19 -3 -33 -20zM548 510l24 -28l-56 -57q42 -71 26 -175q-19 -112 -91.5 -186t-175.5 -74q-89 0 -137 53l-52 -53l-26 27l56 56q-43 70 -24 177q17 112 89 186t176 74q85 0 137 -55zM202 250q-8 -58 -5 -95l234 237
q-17 83 -83 83q-114 0 -146 -225zM432 250q7 52 4 94l-235 -237q15 -82 83 -82q116 0 148 225z" />
    <glyph glyph-name="Scommaaccent" unicode="&#x218;" horiz-adv-x="535" 
d="M249 -46q24 0 40.5 -10.5t22 -26t7.5 -33.5t-1 -33q-10 -65 -57 -116t-98 -68l-10 23q65 28 92 82q21 40 0 53l-14 3q-26 0 -41.5 18.5t-11.5 45.5q4 25 25 43.5t46 18.5zM346 415q190 -81 171 -220q-13 -94 -85 -149.5t-174 -55.5q-113 0 -198 50l15 177h27
q-8 -187 157 -187q62 0 102 36t48 97q8 57 -27.5 92t-102.5 65q-81 37 -122.5 84.5t-31.5 121.5q11 81 78 132.5t168 51.5q103 0 179 -45l-14 -168h-27q-4 173 -137 173q-56 0 -92.5 -27.5t-44.5 -82.5q-7 -52 23 -86t88 -59z" />
    <glyph glyph-name="scommaaccent" unicode="&#x219;" horiz-adv-x="480" 
d="M231 25q40 0 68.5 24t34.5 63q5 37 -19.5 59t-78.5 46q-67 29 -97 62.5t-22 92.5q8 61 61 99.5t134 38.5t125 -37t37 -88q-4 -23 -21.5 -36.5t-43.5 -13.5q-22 0 -33.5 10.5t-8.5 26.5q12 49 -1.5 76t-61.5 27q-36 0 -63 -19.5t-32 -54.5q-3 -21 3 -37t22 -27t28 -17
t36 -15q74 -30 110 -65.5t27 -97.5q-9 -69 -68.5 -110.5t-137.5 -41.5q-82 0 -126 37t-36 88q3 22 20.5 36t43.5 14q22 0 33.5 -10.5t8.5 -26.5q-22 -103 58 -103zM215 -46q24 0 40.5 -10.5t22 -26t7.5 -33.5t-1 -33q-10 -65 -57 -116t-98 -68l-10 23q65 28 92 82
q21 40 0 53l-14 3q-26 0 -41.5 18.5t-11.5 45.5q4 25 25 43.5t46 18.5z" />
    <glyph glyph-name="uni021A" unicode="&#x21a;" horiz-adv-x="600" 
d="M282 -43q24 0 40.5 -10.5t22 -26t7.5 -33.5t-1 -33q-10 -65 -57 -116t-98 -68l-10 23q65 28 92 82q21 40 0 53l-14 3q-26 0 -41.5 18.5t-11.5 45.5q4 25 25 43.5t46 18.5zM665 700h-535l-28 -163h28q16 60 53 92.5t90 32.5h70l-79 -560q-6 -42 -23.5 -57.5t-70.5 -22.5
l-3 -22h265l3 22q-51 7 -64 22.5t-7 57.5l79 560h70q53 0 80.5 -32t26.5 -93h27z" />
    <glyph glyph-name="uni021B" unicode="&#x21b;" horiz-adv-x="351" 
d="M254 460l-51 -358q-8 -55 25 -55q17 0 39 22t44 73l24 -11q-51 -141 -156 -141q-92 0 -76 112l51 358h-63l5 35l65 15l95 140h25l-21 -150h122l-6 -40h-122zM163 -48q24 0 40.5 -10.5t22 -26t7.5 -33.5t-1 -33q-10 -65 -57 -116t-98 -68l-10 23q65 28 92 82q21 40 0 53
l-14 3q-26 0 -41.5 18.5t-11.5 45.5q4 25 25 43.5t46 18.5z" />
    <glyph glyph-name="circumflex" unicode="&#x2c6;" horiz-adv-x="470" 
d="M324 640l-125 -90h-27l150 180h30l100 -180h-28z" />
    <glyph glyph-name="caron" unicode="&#x2c7;" horiz-adv-x="470" 
d="M324 640l-100 90h-27l100 -180h30l150 180h-28z" />
    <glyph glyph-name="uni02C9" unicode="&#x2c9;" horiz-adv-x="510" 
d="M186 637h315l-6 -40h-315z" />
    <glyph glyph-name="breve" unicode="&#x2d8;" horiz-adv-x="450" 
d="M305 570q63 0 101.5 45t46.5 106h-25q-13 -37 -45 -57.5t-68 -20.5t-62 20.5t-29 57.5h-26q-8 -61 18 -106t89 -45z" />
    <glyph glyph-name="dotaccent" unicode="&#x2d9;" horiz-adv-x="314" 
d="M185 627q3 25 23 42.5t45 17.5t40 -17.5t12 -42.5q-4 -25 -24 -42.5t-45 -17.5t-40 17t-11 43z" />
    <glyph glyph-name="ring" unicode="&#x2da;" horiz-adv-x="375" 
d="M186 637q5 38 35 64t68 26q37 0 59.5 -26t17.5 -64t-35 -64t-68 -26t-60 26t-17 64zM219 637q-3 -24 11 -40.5t38 -16.5t43 16.5t22 40.5q4 24 -10.5 40.5t-38.5 16.5t-42.5 -16.5t-22.5 -40.5z" />
    <glyph glyph-name="ogonek" unicode="&#x2db;" horiz-adv-x="360" 
d="M238 -167l-3 -20q-37 -40 -87 -40q-55 0 -70 45q-18 54 36 119q28 34 73 63h30q-59 -49 -72 -111q-11 -53 27 -65q25 -7 66 9z" />
    <glyph glyph-name="tilde" unicode="&#x2dc;" horiz-adv-x="550" 
d="M194 567l-18 13q72 115 121 115q20 0 78 -20t77 -20q27 0 43.5 7.5t36.5 29.5l18 -12q-19 -29 -32.5 -47.5t-37.5 -38t-45 -19.5q-23 0 -79 20t-80 20q-25 0 -41.5 -10.5t-40.5 -37.5z" />
    <glyph glyph-name="hungarumlaut" unicode="&#x2dd;" horiz-adv-x="480" 
d="M175 557l16 -7l121 145q27 32 2 55q-21 19 -48 7q-16 -8 -23 -26zM335 557l16 -7l121 145q27 32 2 55q-21 19 -48 7q-16 -8 -23 -26z" />
    <glyph glyph-name="uni037E" unicode="&#x37e;" horiz-adv-x="357" 
d="M112 232q6 41 38.5 70t73.5 29t66 -29t19 -70t-39 -69.5t-74 -28.5t-65.5 28.5t-18.5 69.5z" />
    <glyph glyph-name="tonos" unicode="&#x384;" horiz-adv-x="320" 
d="M168 512l16 -7l122 145q27 32 2 55q-22 19 -48 7q-16 -8 -23 -26z" />
    <glyph glyph-name="dieresistonos" unicode="&#x385;" horiz-adv-x="580" 
d="M183 615q4 25 22 40.5t41 15.5q24 0 38 -15.5t10 -40.5t-22 -40t-42 -15t-37.5 15.5t-9.5 39.5zM457 615q4 25 22 40.5t42 15.5t38 -16t10 -40t-22 -39.5t-42 -15.5t-38 15.5t-10 39.5zM363 600l121 145q27 32 2 55q-21 19 -48 7q-16 -8 -23 -26l-68 -174z" />
    <glyph glyph-name="anoteleia" unicode="&#x387;" horiz-adv-x="418" 
d="M115 375q4 24 21 39t40 15t36 -15t9 -39q-3 -23 -20 -37.5t-40 -14.5t-36 14.5t-10 37.5zM301 375q4 24 21 39t40 15t36 -15t9 -39q-3 -23 -20 -37.5t-40 -14.5t-36 14.5t-10 37.5z" />
    <glyph glyph-name="Delta" unicode="&#x394;" horiz-adv-x="706" 
d="M646 0l-181 710l-405 -710h586zM549 30h-434l306 545z" />
    <glyph glyph-name="Delta" unicode="&#x2206;" horiz-adv-x="706" 
d="M646 0l-181 710l-405 -710h586zM549 30h-434l306 545z" />
    <glyph glyph-name="Omega" unicode="&#x3a9;" horiz-adv-x="800" 
d="M494 671q102 0 148.5 -68.5t29.5 -192.5q-29 -205 -195 -249l-22 -161h280l32 162h-28q-15 -57 -47.5 -74.5t-95.5 -17.5h-97l8 56q111 24 185.5 98.5t89.5 185.5q19 134 -61 217t-222 83t-245 -83t-122 -217q-15 -111 38 -185.5t157 -98.5l-8 -56h-98q-63 0 -90.5 17.5
t-26.5 74.5h-27l-12 -162h280l22 161q-154 43 -125 249q17 124 83 192.5t169 68.5z" />
    <glyph glyph-name="Omega" unicode="&#x2126;" horiz-adv-x="800" 
d="M494 671q102 0 148.5 -68.5t29.5 -192.5q-29 -205 -195 -249l-22 -161h280l32 162h-28q-15 -57 -47.5 -74.5t-95.5 -17.5h-97l8 56q111 24 185.5 98.5t89.5 185.5q19 134 -61 217t-222 83t-245 -83t-122 -217q-15 -111 38 -185.5t157 -98.5l-8 -56h-98q-63 0 -90.5 17.5
t-26.5 74.5h-27l-12 -162h280l22 161q-154 43 -125 249q17 124 83 192.5t169 68.5z" />
    <glyph glyph-name="uni03BC" unicode="&#x3bc;" horiz-adv-x="618" 
d="M134 45l50 353q8 55 -24 55q-40 0 -82 -95l-23 11q49 141 153 141q90 0 76 -112l-34 -255q-6 -42 2 -62.5t35 -20.5q39 0 95 72.5t67 152.5l30 215h100l-54 -397q-7 -55 23 -55q41 0 82 95l23 -11q-50 -142 -153 -142q-90 0 -75 112l7 55h-2q-41 -73 -91.5 -120
t-102.5 -47q-9 0 -13 1q-29 -106 -95.5 -183.5t-116.5 -77.5q-47 0 -51 35q-3 29 20 45q15 11 31 5q27 -10 46 -10.5t31 9.5t18.5 23t10.5 38t5.5 48t4.5 58.5t7 63.5z" />
    <glyph glyph-name="pi" unicode="&#x3c0;" horiz-adv-x="640" 
d="M347 0h265l3 22q-51 7 -64 22.5t-7 57.5l41 295q6 42 23.5 57.5t70.5 22.5l3 23h-585l-3 -23q50 -7 63.5 -22.5t7.5 -57.5l-41 -295q-6 -42 -23.5 -57.5t-70.5 -22.5l-3 -22h265l3 22q-51 7 -64 22.5t-7 57.5l51 363h220l-51 -363q-6 -42 -23.5 -57.5t-70.5 -22.5z" />
    <glyph glyph-name="uni03C2" unicode="&#x3c2;" horiz-adv-x="705" 
d="M200 250q-16 -111 11 -168t92 -57t108 57t59 168t-11.5 168t-92.5 57q-134 0 -166 -225zM530 475h-35q50 -34 72.5 -93.5t12.5 -131.5q-18 -109 -100 -184.5t-187 -75.5q-106 0 -163.5 75.5t-39.5 184.5q17 109 98 184.5t187 75.5h160q113 0 149 99q12 32 45 27
q30 -4 39 -30t-15 -54q-31 -35 -92.5 -56t-130.5 -21z" />
    <glyph glyph-name="sigma" unicode="&#x3c3;" horiz-adv-x="705" 
d="M200 250q-16 -111 11 -168t92 -57t108 57t59 168t-11.5 168t-92.5 57q-134 0 -166 -225zM530 475h-35q50 -34 72.5 -93.5t12.5 -131.5q-18 -109 -100 -184.5t-187 -75.5q-106 0 -163.5 75.5t-39.5 184.5q17 109 98 184.5t187 75.5h160q113 0 149 99q12 32 45 27
q30 -4 39 -30t-15 -54q-31 -35 -92.5 -56t-130.5 -21z" />
    <glyph glyph-name="Wgrave" unicode="&#x1e80;" horiz-adv-x="1010" 
d="M622 750l-127 104q-29 24 -7 54q18 25 46 22q17 -4 26 -20l75 -149zM543 617l22 -132l-186 -364h-2l-86 466q-7 41 9 62t70 28l3 23h-268l-3 -23q41 -11 54 -22.5t18 -37.5l121 -622h58l222 427l74 -427h67l272 622q13 31 34 41.5t75 18.5l3 23h-225l-3 -23
q55 -7 64.5 -33.5t-12.5 -71.5l-192 -451h-2l-69 466q-6 42 8.5 62.5t67.5 27.5l3 23h-267l-3 -23q41 -11 54.5 -22.5t18.5 -37.5z" />
    <glyph glyph-name="wgrave" unicode="&#x1e81;" horiz-adv-x="863" 
d="M432 156h-2q-42 -73 -92.5 -119.5t-102.5 -46.5t-74.5 35t-11.5 115l35 257q7 55 -24 55q-41 0 -81 -95l-24 11q51 142 154 142q91 0 75 -113l-35 -255q-6 -41 2 -61.5t35 -20.5q40 0 96 72t67 153l30 215h100l-50 -358q-12 -87 72 -87q32 0 61 11t55 39t38.5 69.5
t7.5 109.5t-32 153q-15 47 19 66q31 17 62 -4q22 -17 28 -47q22 -117 -14 -225.5t-111.5 -172.5t-165.5 -64q-64 0 -95 31t-25 100zM565 561l-13 -11l-128 104q-30 25 -6 55q20 25 47 21q17 -3 25 -20z" />
    <glyph glyph-name="Wacute" unicode="&#x1e82;" horiz-adv-x="1010" 
d="M616 761l12 -11l156 104q37 25 21 55q-12 24 -39 21q-19 -3 -33 -20zM543 617l22 -132l-186 -364h-2l-86 466q-7 41 9 62t70 28l3 23h-268l-3 -23q41 -11 54 -22.5t18 -37.5l121 -622h58l222 427l74 -427h67l272 622q13 31 34 41.5t75 18.5l3 23h-225l-3 -23
q55 -7 64.5 -33.5t-12.5 -71.5l-192 -451h-2l-69 466q-6 42 8.5 62.5t67.5 27.5l3 23h-267l-3 -23q41 -11 54.5 -22.5t18.5 -37.5z" />
    <glyph glyph-name="wacute" unicode="&#x1e83;" horiz-adv-x="863" 
d="M432 156h-2q-42 -73 -92.5 -119.5t-102.5 -46.5t-74.5 35t-11.5 115l35 257q7 55 -24 55q-41 0 -81 -95l-24 11q51 142 154 142q91 0 75 -113l-35 -255q-6 -41 2 -61.5t35 -20.5q40 0 96 72t67 153l30 215h100l-50 -358q-12 -87 72 -87q32 0 61 11t55 39t38.5 69.5
t7.5 109.5t-32 153q-15 47 19 66q31 17 62 -4q22 -17 28 -47q22 -117 -14 -225.5t-111.5 -172.5t-165.5 -64q-64 0 -95 31t-25 100zM538 561l12 -11l155 104q37 25 22 55q-12 24 -39 21q-19 -3 -33 -20z" />
    <glyph glyph-name="Wdieresis" unicode="&#x1e84;" horiz-adv-x="1010" 
d="M476 815q4 25 22 40.5t41 15.5q24 0 38 -15.5t10 -40.5t-22 -40t-42 -15t-37.5 15.5t-9.5 39.5zM670 815q4 25 22 40.5t42 15.5t38 -16t10 -40t-22 -39.5t-42 -15.5t-38 15.5t-10 39.5zM543 617l22 -132l-186 -364h-2l-86 466q-7 41 9 62t70 28l3 23h-268l-3 -23
q41 -11 54 -22.5t18 -37.5l121 -622h58l222 427l74 -427h67l272 622q13 31 34 41.5t75 18.5l3 23h-225l-3 -23q55 -7 64.5 -33.5t-12.5 -71.5l-192 -451h-2l-69 466q-6 42 8.5 62.5t67.5 27.5l3 23h-267l-3 -23q41 -11 54.5 -22.5t18.5 -37.5z" />
    <glyph glyph-name="wdieresis" unicode="&#x1e85;" horiz-adv-x="863" 
d="M432 156h-2q-42 -73 -92.5 -119.5t-102.5 -46.5t-74.5 35t-11.5 115l35 257q7 55 -24 55q-41 0 -81 -95l-24 11q51 142 154 142q91 0 75 -113l-35 -255q-6 -41 2 -61.5t35 -20.5q40 0 96 72t67 153l30 215h100l-50 -358q-12 -87 72 -87q32 0 61 11t55 39t38.5 69.5
t7.5 109.5t-32 153q-15 47 19 66q31 17 62 -4q22 -17 28 -47q22 -117 -14 -225.5t-111.5 -172.5t-165.5 -64q-64 0 -95 31t-25 100zM403 615q4 25 22 40.5t41 15.5q24 0 38 -15.5t10 -40.5t-22 -40t-42 -15t-37.5 15.5t-9.5 39.5zM597 615q4 25 22 40.5t42 15.5t38 -16
t10 -40t-22 -39.5t-42 -15.5t-38 15.5t-10 39.5z" />
    <glyph glyph-name="Ygrave" unicode="&#x1ef2;" horiz-adv-x="640" 
d="M450 750l-127 104q-29 24 -7 54q18 25 46 22q17 -2 26 -20l75 -149zM163 617l155 -382l-19 -133q-6 -42 -23.5 -57.5t-70.5 -22.5l-3 -22h265l3 22q-51 7 -64 22.5t-7 57.5l25 177l207 338q18 29 38.5 40.5t60.5 19.5l3 23h-205l-3 -23q92 -13 42 -95l-168 -270h-2
l-103 275q-8 21 -10.5 33.5t1 25.5t18.5 20t42 11l3 23h-245l-3 -23q27 -12 40.5 -24.5t22.5 -35.5z" />
    <glyph glyph-name="ygrave" unicode="&#x1ef3;" horiz-adv-x="582" 
d="M285 397l-35 -255q-12 -87 72 -87q32 0 61 11t55 39t38.5 69.5t7.5 109.5t-32 153q-15 46 21 66q32 17 62 -5q22 -15 26 -46q22 -172 -39 -342t-173.5 -275t-234.5 -105q-48 0 -57 35q-8 29 14 45q15 11 35 5q94 -27 203 48.5t159 219.5l-1 1q-89 -94 -197 -94
q-69 0 -100 35t-20 115l35 257q7 55 -24 55q-41 0 -81 -95l-24 11q51 142 154 142q91 0 75 -113zM416 561l-13 -11l-128 104q-30 25 -6 55q20 25 47 21q17 -3 25 -20z" />
    <glyph glyph-name="figuredash" unicode="&#x2012;" horiz-adv-x="610" 
d="M137 287h415l-6 -40h-415z" />
    <glyph glyph-name="endash" unicode="&#x2013;" horiz-adv-x="610" 
d="M137 287h415l-6 -40h-415z" />
    <glyph glyph-name="emdash" unicode="&#x2014;" horiz-adv-x="900" 
d="M137 287h705l-6 -40h-705z" />
    <glyph glyph-name="quoteleft" unicode="&#x2018;" horiz-adv-x="340" 
d="M249 497q-46 0 -60 31.5t-8 71.5q9 65 56.5 116t98.5 68l9 -23q-64 -28 -92 -82q-21 -41 1 -53q5 -3 13 -3q26 0 41.5 -18.5t11.5 -45.5q-4 -25 -25 -43.5t-46 -18.5z" />
    <glyph glyph-name="quoteright" unicode="&#x2019;" horiz-adv-x="340" 
d="M267 772q81 0 69 -102q-10 -66 -57 -116.5t-98 -68.5l-10 23q64 28 92 82q21 41 0 54q-6 3 -14 3q-26 0 -41.5 18t-11.5 45q4 25 25 43.5t46 18.5z" />
    <glyph glyph-name="quotesinglbase" unicode="&#x201a;" horiz-adv-x="340" 
d="M176 123q46 0 60 -31t8 -71q-9 -65 -56.5 -116t-97.5 -68l-10 23q65 28 92 82q21 40 0 53q-6 3 -14 3q-26 0 -41.5 18t-11.5 45q4 25 25 43.5t46 18.5z" />
    <glyph glyph-name="quotedblleft" unicode="&#x201c;" horiz-adv-x="560" 
d="M468 497q-45 0 -59 31.5t-8 71.5q9 65 56.5 116t98.5 68l8 -23q-64 -28 -91 -82q-21 -41 1 -53q5 -3 13 -3q26 0 41.5 -18.5t11.5 -45.5q-4 -25 -25.5 -43.5t-46.5 -18.5zM248 497q-45 0 -59 31.5t-8 71.5q9 65 56.5 116t98.5 68l8 -23q-64 -28 -91 -82q-21 -41 1 -53
q5 -3 13 -3q26 0 41.5 -18.5t11.5 -45.5q-4 -25 -25.5 -43.5t-46.5 -18.5z" />
    <glyph glyph-name="quotedblright" unicode="&#x201d;" horiz-adv-x="560" 
d="M267 772q81 0 69 -102q-10 -66 -57 -116.5t-98 -68.5l-10 23q64 28 92 82q21 41 0 54q-6 3 -14 3q-26 0 -41.5 18t-11.5 45q4 25 25 43.5t46 18.5zM487 772q81 0 69 -102q-10 -66 -57 -116.5t-98 -68.5l-10 23q64 28 92 82q21 41 0 54q-6 3 -14 3q-26 0 -41.5 18
t-11.5 45q4 25 25 43.5t46 18.5z" />
    <glyph glyph-name="quotedblbase" unicode="&#x201e;" horiz-adv-x="560" 
d="M176 123q46 0 60 -31t8 -71q-9 -65 -56.5 -116t-97.5 -68l-10 23q65 28 92 82q21 40 0 53q-6 3 -14 3q-26 0 -41.5 18t-11.5 45q4 25 25 43.5t46 18.5zM396 123q46 0 60 -31t8 -71q-9 -65 -56.5 -116t-97.5 -68l-10 23q65 28 92 82q21 40 0 53q-6 3 -14 3q-26 0 -41.5 18
t-11.5 45q4 25 25 43.5t46 18.5z" />
    <glyph glyph-name="dagger" unicode="&#x2020;" horiz-adv-x="645" 
d="M271 -260l53 375q8 68 7.5 100.5t-4 57t-2.5 32.5q1 5 6 17.5t16.5 49.5t25.5 93q-60 -7 -100 -13t-53.5 -9t-18.5 -3q-16 0 -26 11.5t-8 28.5q2 16 15.5 28t30.5 12q5 0 17.5 -3t50 -9.5t96.5 -12.5q2 62 1.5 105.5t-1.5 48.5t0 21q2 17 15.5 28.5t29.5 11.5
q17 0 27 -12t8 -28q-1 -5 -6 -18.5t-17 -53.5t-27 -103q60 6 99.5 12.5t52.5 9.5t19 3q16 0 26 -11.5t8 -28.5q-2 -16 -15.5 -28t-30.5 -12q-6 0 -18 3t-49.5 9t-95.5 13q-2 -65 -0.5 -95.5t2.5 -44.5t0 -20q-1 -8 -10 -29t-21 -63t-20 -98l-53 -375h-30z" />
    <glyph glyph-name="daggerdbl" unicode="&#x2021;" horiz-adv-x="645" 
d="M395 230q-3 -22 -26 -102.5t-35 -152.5q60 7 99.5 13t52.5 9t19 3q16 0 26 -11.5t8 -28.5q-2 -16 -15.5 -28t-30.5 -12q-6 0 -18 3t-49.5 9.5t-95.5 12.5q-3 -72 -2 -105.5t2 -48.5t0 -21q-2 -17 -15.5 -28.5t-29.5 -11.5q-17 0 -27 12t-8 28q1 5 6 18.5t17 53.5t27 103
q-61 -6 -100.5 -12.5t-53 -9.5t-18.5 -3q-16 0 -26 11.5t-8 28.5q2 16 15.5 28t30.5 12q5 0 17 -3t50 -9t97 -13q7 71 7.5 151t3.5 104q3 23 24 93t34 142q-60 -7 -100 -13t-53.5 -9t-18.5 -3q-16 0 -26 11.5t-8 28.5q2 16 15.5 28t30.5 12q5 0 17.5 -3t50 -9.5t96.5 -12.5
q2 62 1.5 105.5t-1.5 48.5t0 21q2 17 15.5 28.5t29.5 11.5q17 0 27 -12t8 -28q-1 -5 -6 -18.5t-17 -53.5t-27 -103q60 6 99.5 12.5t52.5 9.5t19 3q16 0 26 -11.5t8 -28.5q-2 -16 -15.5 -28t-30.5 -12q-6 0 -18 3t-49.5 9t-95.5 13q-8 -72 -6.5 -145t-1.5 -90z" />
    <glyph glyph-name="bullet" unicode="&#x2022;" horiz-adv-x="397" 
d="M132 232q6 41 38.5 70t73.5 29t66 -29t19 -70t-39 -69.5t-74 -28.5t-65.5 28.5t-18.5 69.5z" />
    <glyph glyph-name="onedotenleader" unicode="&#x2024;" horiz-adv-x="320" 
d="M103 53q4 26 25.5 44.5t47.5 18.5t42 -18.5t12 -44.5t-25 -44.5t-47 -18.5t-42.5 18.5t-12.5 44.5z" />
    <glyph glyph-name="twodotenleader" unicode="&#x2025;" horiz-adv-x="550" 
d="M103 53q4 26 25.5 44.5t47.5 18.5t42 -18.5t12 -44.5t-25 -44.5t-47 -18.5t-42.5 18.5t-12.5 44.5zM333 53q4 26 25.5 44.5t47.5 18.5t42 -18.5t12 -44.5t-25 -44.5t-47 -18.5t-42.5 18.5t-12.5 44.5z" />
    <glyph glyph-name="ellipsis" unicode="&#x2026;" horiz-adv-x="800" 
d="M103 53q4 26 25.5 44.5t47.5 18.5t42 -18.5t12 -44.5t-25 -44.5t-47 -18.5t-42.5 18.5t-12.5 44.5zM343 53q4 26 25.5 44.5t47.5 18.5t42 -18.5t12 -44.5t-25 -44.5t-47 -18.5t-42.5 18.5t-12.5 44.5zM583 53q4 26 25.5 44.5t47.5 18.5t42 -18.5t12 -44.5t-25 -44.5
t-47 -18.5t-42.5 18.5t-12.5 44.5z" />
    <glyph glyph-name="perthousand" unicode="&#x2030;" horiz-adv-x="1390" 
d="M794 770h-44l-458 -830h45zM608 145q10 65 59 110t114 45q62 0 96.5 -45t23.5 -110q-10 -65 -59 -110t-114 -45q-62 0 -96.5 45t-23.5 110zM673 145q-10 -67 6.5 -101.5t56.5 -34.5q80 0 100 136q10 66 -6.5 100.5t-55.5 34.5q-82 0 -101 -135zM176 555q10 66 58.5 110.5
t113.5 44.5q62 0 97 -45t24 -110q-11 -66 -59.5 -110.5t-113.5 -44.5q-62 0 -96.5 45t-23.5 110zM241 555q-20 -136 62 -136q81 0 101 136q18 135 -63 135q-82 0 -100 -135zM1018 145q10 65 59 110t114 45q62 0 96.5 -45t23.5 -110q-10 -65 -59 -110t-114 -45
q-62 0 -96.5 45t-23.5 110zM1083 145q-10 -67 6.5 -101.5t56.5 -34.5q80 0 100 136q10 66 -6.5 100.5t-55.5 34.5q-82 0 -101 -135z" />
    <glyph glyph-name="guilsinglleft" unicode="&#x2039;" horiz-adv-x="480" 
d="M253 269l188 152l6 47l-311 -189l-4 -23l259 -188l7 46z" />
    <glyph glyph-name="guilsinglright" unicode="&#x203a;" horiz-adv-x="480" 
d="M301 269l-145 152l6 47l259 -189l-4 -23l-311 -188l7 46z" />
    <glyph glyph-name="exclamdbl" unicode="&#x203c;" horiz-adv-x="560" 
d="M103 53q4 26 25.5 44.5t47.5 18.5t42 -18.5t12 -44.5t-25 -44.5t-47 -18.5t-42.5 18.5t-12.5 44.5zM201 200h-25l22 497q2 29 19.5 51t51.5 22t43 -21.5t2 -51.5zM343 53q4 26 25.5 44.5t47.5 18.5t42 -18.5t12 -44.5t-25 -44.5t-47 -18.5t-42.5 18.5t-12.5 44.5z
M441 200h-25l22 497q2 29 19.5 51t51.5 22t43 -21.5t2 -51.5z" />
    <glyph glyph-name="fraction" unicode="&#x2044;" horiz-adv-x="480" 
d="M490 770h-44l-358 -830h45z" />
    <glyph glyph-name="zerosuperior" unicode="&#x2070;" 
d="M148 701q11 83 58.5 142t119.5 59t102.5 -59t19.5 -142t-58.5 -142t-119.5 -59q-73 0 -103.5 58t-18.5 143zM226 701q-14 -79 -3.5 -127.5t50.5 -48.5t62.5 45t34.5 131q14 79 3.5 127t-50.5 48t-62.5 -44.5t-34.5 -130.5z" />
    <glyph glyph-name="foursuperior" unicode="&#x2074;" 
d="M315 642h-152l179 192zM433 594l7 48h-53l37 264h-47l-236 -254l-8 -58h175l-12 -84h72l12 84h53z" />
    <glyph glyph-name="fivesuperior" unicode="&#x2075;" 
d="M205 719l30 177h206l-8 -57h-181l-15 -91q57 7 97.5 -4t57.5 -33t23 -44t3 -44q-8 -55 -53 -89t-114 -34q-50 0 -78.5 22.5t-24.5 52.5q5 36 44 36q16 0 23 -7.5t5 -17.5q-13 -58 34 -58q35 0 58.5 22.5t29.5 66.5q7 45 -15.5 73.5t-80.5 28.5h-41z" />
    <glyph glyph-name="sixsuperior" unicode="&#x2076;" 
d="M348 626q-7 -50 -26.5 -75.5t-47.5 -25.5q-37 0 -47.5 53.5t8.5 117.5q31 25 64 25q30 0 43 -25t6 -70zM427 632q8 51 -18.5 86.5t-77.5 35.5q-50 0 -93 -32q41 130 169 165l-2 21q-99 -18 -169.5 -86.5t-83.5 -163.5q-9 -67 22 -112.5t96 -45.5q56 0 102.5 37t54.5 95z
" />
    <glyph glyph-name="sevensuperior" unicode="&#x2077;" 
d="M264 510l188 366l3 24h-255l-18 -105h18q9 31 19 39.5t39 8.5h150l-228 -333h84z" />
    <glyph glyph-name="eightsuperior" unicode="&#x2078;" 
d="M375 811q-7 -57 -47 -80q-77 32 -69 86q4 28 23 43.5t43 15.5q27 0 41 -16t9 -49zM351 595q-4 -31 -24.5 -50.5t-52.5 -19.5q-33 0 -48.5 22t-10.5 62q7 49 52 79q92 -38 84 -93zM424 612q5 36 -12.5 61.5t-64.5 47.5q38 12 61.5 36t27.5 51q6 44 -25.5 69t-79.5 25
q-52 0 -94 -27.5t-48 -74.5q-8 -60 59 -101q-42 -13 -70 -38.5t-32 -56.5q-7 -51 27.5 -77.5t92.5 -26.5t104 30t54 82z" />
    <glyph glyph-name="ninesuperior" unicode="&#x2079;" 
d="M246 772q15 100 74 100q37 0 47.5 -53t-8.5 -117q-31 -26 -63 -26q-30 0 -43 25.5t-7 70.5zM167 766q-7 -51 19.5 -86.5t76.5 -35.5q51 0 94 32q-19 -58 -57.5 -101.5t-112.5 -63.5l2 -21q99 18 170 86.5t84 163.5q9 67 -22 112.5t-96 45.5q-56 0 -103 -37t-55 -95z" />
    <glyph glyph-name="parenleftsuperior" unicode="&#x207d;" 
d="M297 719q-29 -198 30 -334h-18q-57 70 -76 158t-6 176q27 200 176 337h18q-96 -133 -124 -337z" />
    <glyph glyph-name="parenrightsuperior" unicode="&#x207e;" 
d="M305 719q-29 -201 -125 -334h17q148 134 177 334q27 203 -83 337h-17q59 -133 31 -337z" />
    <glyph glyph-name="nsuperior" unicode="&#x207f;" horiz-adv-x="448" 
d="M118 510l2 12q33 7 43 16t14 34l22 157q3 23 -3.5 32t-30.5 14l2 14l101 26h4l-10 -62h1q66 62 123 62q33 0 52 -21t13 -68l-22 -154q-4 -25 3.5 -34t38.5 -16l-2 -12h-147l2 12q27 8 33.5 16t10.5 34l21 152q3 22 -6 36t-30 14q-36 0 -93 -41l-23 -161q-4 -26 3 -34.5
t38 -15.5l-2 -12h-158z" />
    <glyph glyph-name="zeroinferior" unicode="&#x2080;" 
d="M48 -9q12 83 59 142t119 59t103 -59t19 -142q-11 -83 -58.5 -142t-119.5 -59q-73 0 -103.5 58t-18.5 143zM126 -9q-14 -79 -3.5 -127.5t50.5 -48.5t62.5 45t34.5 131q14 79 3.5 127t-50.5 48t-62.5 -44.5t-34.5 -130.5z" />
    <glyph glyph-name="oneinferior" unicode="&#x2081;" 
d="M263 196l-47 -333q-3 -25 8 -34.5t54 -13.5l-2 -15h-210l2 15q45 4 59 13.5t17 34.5l35 246q3 24 -8.5 30t-55.5 6l2 15l140 36h6z" />
    <glyph glyph-name="twoinferior" unicode="&#x2082;" 
d="M223 170q28 0 38 -24.5t4 -63.5q-4 -25 -12.5 -47t-30 -55t-66 -72.5t-110.5 -83.5l-4 -24h258l8 57h-183q64 41 108 76.5t64.5 64.5t29 49t11.5 42q6 43 -22 75t-83 32q-57 0 -91 -22t-38 -53q-5 -36 31 -36q15 0 24.5 8t10.5 18q2 33 14 46t39 13z" />
    <glyph glyph-name="threeinferior" unicode="&#x2083;" 
d="M157 -185q70 0 84 93q5 38 -13 59.5t-54 21.5h-19l3 24h9q37 0 61 22.5t31 65.5q4 30 -10 47.5t-36 17.5q-26 0 -38.5 -13.5t-11.5 -45.5q0 -10 -9.5 -18t-25.5 -8q-14 0 -23 6.5t-8 19.5q1 37 35.5 61t89.5 24q54 0 83 -24.5t24 -64.5q-5 -36 -32.5 -62.5t-69.5 -36.5
v-1q44 -6 70 -30t20 -68q-8 -56 -53.5 -85.5t-112.5 -29.5q-55 0 -82 23t-17 62q6 26 41 26q15 0 22 -7.5t5 -17.5q-5 -33 3.5 -47t33.5 -14z" />
    <glyph glyph-name="fourinferior" unicode="&#x2084;" 
d="M215 -68h-152l179 192zM333 -116l7 48h-53l37 264h-47l-236 -254l-8 -58h175l-12 -84h72l12 84h53z" />
    <glyph glyph-name="fiveinferior" unicode="&#x2085;" 
d="M105 9l31 177h206l-8 -57h-181l-16 -91q58 7 98 -4t57 -33t23 -44t3 -44q-8 -55 -53 -89t-114 -34q-50 0 -78.5 22.5t-23.5 52.5q2 16 13.5 26t30.5 10q16 0 22.5 -7.5t4.5 -17.5q-13 -58 34 -58q35 0 58.5 22.5t29.5 66.5q7 45 -15.5 73.5t-80.5 28.5h-41z" />
    <glyph glyph-name="sixinferior" unicode="&#x2086;" 
d="M249 -84q-15 -101 -75 -101q-38 0 -47.5 53.5t9.5 117.5q30 25 63 25q30 0 43 -25t7 -70zM328 -78q7 51 -19.5 86.5t-76.5 35.5q-51 0 -94 -32q41 130 169 165l-2 21q-99 -18 -169.5 -86.5t-83.5 -163.5q-9 -67 22 -112.5t96 -45.5q56 0 102.5 37t55.5 95z" />
    <glyph glyph-name="seveninferior" unicode="&#x2087;" 
d="M164 -200l188 366l3 24h-255l-18 -105h18q9 31 19 39.5t39 8.5h150l-228 -333h84z" />
    <glyph glyph-name="eightinferior" unicode="&#x2088;" 
d="M276 101q-8 -58 -48 -80q-77 33 -68 86q4 27 22.5 43t42.5 16q59 0 51 -65zM251 -115q-4 -31 -24.5 -50.5t-52.5 -19.5q-33 0 -48.5 22t-10.5 62q7 48 52 79q92 -38 84 -93zM324 -98q5 36 -12.5 61.5t-64.5 47.5q38 12 61.5 36t27.5 51q6 44 -25.5 69t-79.5 25
q-52 0 -94 -27.5t-48 -74.5q-8 -60 59 -101q-42 -13 -69.5 -38.5t-31.5 -56.5q-7 -51 27 -77.5t92 -26.5t104 30t54 82z" />
    <glyph glyph-name="nineinferior" unicode="&#x2089;" 
d="M146 62q15 100 74 100q37 0 47.5 -53t-8.5 -117q-31 -26 -63 -26q-30 0 -43 25.5t-7 70.5zM67 56q-7 -51 19.5 -86.5t76.5 -35.5q51 0 94 32q-19 -58 -57 -101.5t-112 -63.5l2 -21q99 18 169.5 86.5t83.5 163.5q9 67 -22 112.5t-96 45.5q-56 0 -102.5 -37t-55.5 -95z" />
    <glyph glyph-name="parenleftinferior" unicode="&#x208d;" 
d="M197 9q-29 -198 30 -334h-18q-57 70 -76 158t-6 176q29 202 176 337h18q-96 -133 -124 -337z" />
    <glyph glyph-name="parenrightinferior" unicode="&#x208e;" 
d="M205 9q-29 -201 -125 -334h17q148 134 177 334q28 201 -83 337h-17q59 -133 31 -337z" />
    <glyph glyph-name="colonmonetary" unicode="&#x20a1;" horiz-adv-x="640" 
d="M462 -100l15 100q77 18 132 50l29 142h-27q-26 -68 -85.5 -116t-142.5 -48q-99 0 -149 90t-30 232q19 142 95 231.5t175 89.5q83 0 128.5 -48t53.5 -116h27l10 143q-53 33 -118 48l14 102h-40l-13 -95q-30 5 -57 5q-36 0 -74 -8l14 98h-40l-15 -109q-107 -35 -180 -126.5
t-90 -214.5q-18 -124 29.5 -215.5t144.5 -126.5l-16 -108h40l14 98q37 -8 72 -8q26 0 58 5l-14 -95h40z" />
    <glyph glyph-name="franc" unicode="&#x20a3;" horiz-adv-x="575" 
d="M63 186h83l57 411q6 42 -7.5 57.5t-63.5 22.5l3 23h505l-18 -163h-27q1 61 -26.5 93t-80.5 32h-175l-43 -306h90q49 0 78 22t44 79h27l-34 -240h-27q1 57 -22 79t-72 22h-90l-18 -132h112l-6 -38h-112l-6 -46q-6 -42 7 -57.5t64 -22.5l-3 -22h-265l3 22q53 7 70.5 22.5
t23.5 57.5l6 46h-83z" />
    <glyph glyph-name="lira" unicode="&#x20a4;" horiz-adv-x="637" 
d="M134 406h70q-4 77 5 116q16 81 85.5 134.5t167.5 53.5q81 0 123.5 -39t35.5 -90q-4 -25 -24 -40t-46 -15q-21 0 -31.5 10.5t-7.5 26.5q5 32 6 56t-15.5 37.5t-52.5 13.5q-54 0 -90 -31t-46 -87q-10 -55 -14 -146h149l-6 -38h-148q-3 -48 -10 -82h147l-6 -38h-151
q-28 -113 -128 -197v-2q45 20 83.5 29t70 7t51.5 -6.5t48.5 -15t40.5 -13.5q42 -11 72 5.5t58 84.5h27q-35 -87 -73 -126q-65 -68 -158 -51q-11 2 -35.5 12t-52 20t-61 18t-73 5t-78.5 -18l-8 30q70 44 102.5 98t39.5 120h-90l6 38h88q1 27 -1 82h-76z" />
    <glyph glyph-name="peseta" unicode="&#x20a7;" horiz-adv-x="740" 
d="M130 521h83l10 76q6 42 -7.5 57.5t-63.5 22.5l3 23h308q105 0 158 -49.5t46 -129.5h88l-6 -38h-89q-21 -79 -96 -132.5t-208 -53.5h-75l-27 -195q-6 -42 7 -57.5t64 -22.5l-3 -22h-265l3 22q53 7 70.5 22.5t23.5 57.5l53 381h-83zM287 335h70q76 0 135 41.5t64 106.5
h-249zM333 662l-20 -141h249q4 61 -25.5 101t-103.5 40h-100z" />
    <glyph glyph-name="Euro" unicode="&#x20ac;" horiz-adv-x="750" 
d="M117 427h74q41 127 141.5 205t226.5 78q125 0 214 -60l-10 -143h-27q-8 68 -53.5 116t-128.5 48q-85 0 -154 -66.5t-100 -177.5h182l-6 -40h-187l-5 -37q-5 -38 -5 -43h186l-6 -40h-181q2 -109 51.5 -174t133.5 -65q83 0 142.5 48t85.5 116h27l-29 -142
q-106 -60 -231 -60t-203.5 76t-85.5 201h-75l6 40h69q0 5 5 43q2 20 6 37h-69z" />
    <glyph glyph-name="litre" unicode="&#x2113;" horiz-adv-x="489" 
d="M73 167l10 -11l94 83l-7 -52q-10 -74 -4 -107q9 -41 40 -65.5t74 -24.5q53 0 94 35q53 44 86 127h-18q-33 -74 -69 -103q-32 -29 -68 -29q-37 0 -56 29q-18 31 -8 106l24 168q113 112 154 176q40 64 46 112q7 45 -15.5 72t-66.5 27q-57 0 -107 -50q-48 -51 -61 -151
l-34 -243zM269 350l27 193q12 82 34 110q24 28 52 28q29 0 45 -24t10 -65q-13 -87 -168 -242z" />
    <glyph glyph-name="afii61352" unicode="&#x2116;" horiz-adv-x="1080" 
d="M594 172l59 425q6 43 -7.5 58t-70.5 22l3 23h222l-3 -23q-57 -7 -76 -22.5t-25 -57.5l-83 -597h-61l-297 607l-71 -505q-6 -43 7.5 -58t71.5 -22l-3 -22h-223l3 22q56 7 75 22.5t25 57.5l69 495q6 42 -8.5 57.5t-68.5 22.5l3 23h205zM826 555q10 66 58.5 110.5
t113.5 44.5q62 0 97 -45t24 -110q-11 -66 -59.5 -110.5t-113.5 -44.5q-62 0 -96.5 45t-23.5 110zM891 555q-20 -136 62 -136q81 0 101 136q18 135 -63 135q-82 0 -100 -135z" />
    <glyph glyph-name="trademark" unicode="&#x2122;" horiz-adv-x="954" 
d="M478 700h-281l-13 -86h15q9 36 26.5 49.5t48.5 13.5h32l-34 -236q-3 -25 -13.5 -34.5t-40.5 -13.5l-2 -12h156l2 12q-30 4 -38 13.5t-5 34.5l34 236h31q31 0 44.5 -14t12.5 -49h16zM644 700l70 -247l134 247h105l-2 -14q-31 -5 -41 -14t-14 -33l-28 -198q-3 -25 5 -34.5
t37 -13.5l-2 -12h-156l2 12q32 4 42.5 13.5t13.5 34.5l27 191l-138 -254h-29l-73 267l-29 -204q-3 -26 5 -35t42 -13l-2 -12h-133l2 12q36 4 46 13t13 35l28 198q4 25 -4 33.5t-42 13.5l2 14h119z" />
    <glyph glyph-name="estimated" unicode="&#x212e;" horiz-adv-x="776" 
d="M247 349h528q18 178 -67 270q-85 91 -221 91q-149 0 -258 -102t-130 -259q-23 -156 58 -256q76 -103 229 -103q101 0 174 43q71 42 149 134l-42 26q-112 -157 -274 -157q-110 0 -179 78zM633 397h-380l27 189q89 77 200 77q109 0 180 -77z" />
    <glyph glyph-name="onethird" unicode="&#x2153;" horiz-adv-x="900" 
d="M705 15q69 0 83 93q5 38 -13 59.5t-54 21.5h-19l3 24h9q37 0 61.5 22.5t30.5 65.5q4 30 -10 47.5t-36 17.5q-26 0 -38.5 -13.5t-11.5 -45.5q0 -10 -9.5 -18t-25.5 -8q-14 0 -23 6.5t-8 19.5q1 36 36 60.5t90 24.5q54 0 83 -24.5t23 -64.5q-5 -36 -32.5 -62.5t-69.5 -36.5
v-1q44 -6 70 -30t20 -68q-8 -56 -53.5 -85.5t-112.5 -29.5q-55 0 -82 23t-17 62q7 26 41 26q15 0 22 -7.5t5 -17.5q-4 -33 4.5 -47t33.5 -14zM290 706l-47 -333q-4 -25 7.5 -34.5t54.5 -13.5l-2 -15h-210l2 15q45 4 58.5 13.5t17.5 34.5l34 246q4 24 -7.5 30t-55.5 6l2 15
l140 36h6zM686 710h-39l-342 -720h40z" />
    <glyph glyph-name="twothirds" unicode="&#x2154;" horiz-adv-x="900" 
d="M705 15q69 0 83 93q5 38 -13 59.5t-54 21.5h-19l3 24h9q37 0 61.5 22.5t30.5 65.5q4 30 -10 47.5t-36 17.5q-26 0 -38.5 -13.5t-11.5 -45.5q0 -10 -9.5 -18t-25.5 -8q-14 0 -23 6.5t-8 19.5q1 36 36 60.5t90 24.5q54 0 83 -24.5t23 -64.5q-5 -36 -32.5 -62.5t-69.5 -36.5
v-1q44 -6 70 -30t20 -68q-8 -56 -53.5 -85.5t-112.5 -29.5q-55 0 -82 23t-17 62q7 26 41 26q15 0 22 -7.5t5 -17.5q-4 -33 4.5 -47t33.5 -14zM706 710h-39l-342 -720h40zM274 680q53 0 42 -88q-4 -25 -12.5 -47t-30 -55t-66.5 -72.5t-111 -83.5l-3 -24h258l8 57h-183
q64 41 108 76.5t64.5 64.5t29 49t11.5 42q6 43 -22 75t-83 32q-57 0 -91 -22t-39 -53q-2 -16 6 -26t26 -10q15 0 24.5 8t10.5 18q2 33 14 46t39 13z" />
    <glyph glyph-name="oneeighth" unicode="&#x215b;" horiz-adv-x="900" 
d="M290 706l-47 -333q-4 -25 7.5 -34.5t54.5 -13.5l-2 -15h-210l2 15q45 4 58.5 13.5t17.5 34.5l34 246q4 24 -7.5 30t-55.5 6l2 15l140 36h6zM686 710h-39l-342 -720h40zM816 301q-8 -58 -47 -80q-77 32 -69 86q4 27 22.5 43t42.5 16q59 0 51 -65zM791 85q-4 -31 -24 -50.5
t-52 -19.5q-33 0 -49 22t-11 62q7 49 53 79q91 -38 83 -93zM864 102q5 36 -12.5 61.5t-64.5 47.5q38 12 61.5 36t27.5 51q6 44 -25 69t-79 25q-52 0 -94.5 -28t-48.5 -74q-8 -60 59 -101q-42 -13 -69.5 -38.5t-31.5 -56.5q-7 -51 27 -77.5t92 -26.5t104.5 30t53.5 82z" />
    <glyph glyph-name="threeeighths" unicode="&#x215c;" horiz-adv-x="900" 
d="M686 710h-39l-342 -720h40zM816 301q-8 -58 -47 -80q-77 32 -69 86q4 27 22.5 43t42.5 16q59 0 51 -65zM791 85q-4 -31 -24 -50.5t-52 -19.5q-33 0 -49 22t-11 62q7 49 53 79q91 -38 83 -93zM864 102q5 36 -12.5 61.5t-64.5 47.5q38 12 61.5 36t27.5 51q6 44 -25 69
t-79 25q-52 0 -94.5 -28t-48.5 -74q-8 -60 59 -101q-42 -13 -69.5 -38.5t-31.5 -56.5q-7 -51 27 -77.5t92 -26.5t104.5 30t53.5 82zM210 325q71 0 83 93q5 38 -12.5 59.5t-53.5 21.5h-19l3 24h9q37 0 61 22.5t30 65.5q4 30 -9.5 47.5t-35.5 17.5q-52 0 -51 -59
q1 -10 -8.5 -18t-25.5 -8q-32 0 -32 26q2 37 36.5 61t89.5 24q54 0 83 -24.5t24 -64.5q-5 -36 -32.5 -62.5t-69.5 -36.5v-1q44 -6 70 -30t20 -68q-8 -56 -53.5 -85.5t-112.5 -29.5q-55 0 -82 23t-17 62q7 26 40 26q15 0 22 -7.5t6 -17.5q-5 -33 3.5 -47t33.5 -14z" />
    <glyph glyph-name="fiveeighths" unicode="&#x215d;" horiz-adv-x="900" 
d="M686 710h-39l-342 -720h40zM816 301q-8 -58 -47 -80q-77 32 -69 86q4 27 22.5 43t42.5 16q59 0 51 -65zM791 85q-4 -31 -24 -50.5t-52 -19.5q-33 0 -49 22t-11 62q7 49 53 79q91 -38 83 -93zM864 102q5 36 -12.5 61.5t-64.5 47.5q38 12 61.5 36t27.5 51q6 44 -25 69
t-79 25q-52 0 -94.5 -28t-48.5 -74q-8 -60 59 -101q-42 -13 -69.5 -38.5t-31.5 -56.5q-7 -51 27 -77.5t92 -26.5t104.5 30t53.5 82zM158 519l31 177h206l-8 -57h-181l-15 -91q57 7 97.5 -4t57.5 -33t23 -44t3 -44q-8 -55 -53 -89t-114 -34q-50 0 -78.5 22.5t-24.5 52.5
q5 36 44 36q15 0 22.5 -7.5t5.5 -17.5q-13 -58 34 -58q35 0 58.5 22.5t29.5 66.5q7 45 -16 73.5t-81 28.5h-41z" />
    <glyph glyph-name="seveneighths" unicode="&#x215e;" horiz-adv-x="900" 
d="M646 710h-39l-342 -720h40zM816 301q-8 -58 -47 -80q-77 32 -69 86q4 27 22.5 43t42.5 16q59 0 51 -65zM791 85q-4 -31 -24 -50.5t-52 -19.5q-33 0 -49 22t-11 62q7 49 53 79q91 -38 83 -93zM864 102q5 36 -12.5 61.5t-64.5 47.5q38 12 61.5 36t27.5 51q6 44 -25 69
t-79 25q-52 0 -94.5 -28t-48.5 -74q-8 -60 59 -101q-42 -13 -69.5 -38.5t-31.5 -56.5q-7 -51 27 -77.5t92 -26.5t104.5 30t53.5 82zM215 310l188 366l3 24h-255l-18 -105h18q9 31 19 39.5t39 8.5h150l-228 -333h84z" />
    <glyph glyph-name="partialdiff" unicode="&#x2202;" horiz-adv-x="579" 
d="M184 240q67 215 203 215q134 0 67 -215q-69 -215 -203 -215q-136 0 -67 215zM402 490q-107 0 -200 -71t-128 -179q-36 -108 9 -179t152 -71q109 0 203.5 74.5t132.5 197.5q41 141 24 254t-78 183.5t-142 70.5q-42 0 -61 -39q-16 -32 2 -49q13 -14 43 -2q57 23 94.5 7.5
t50 -57t15 -95t-9.5 -106.5q-29 61 -107 61z" />
    <glyph glyph-name="product" unicode="&#x220f;" horiz-adv-x="740" 
d="M400 -260h265l3 23q-50 7 -63 22.5t-8 57.5l106 754q6 42 23.5 57.5t70.5 22.5l3 23h-665l-3 -23q50 -7 63.5 -22.5t7.5 -57.5l-106 -754q-5 -42 -23 -57.5t-71 -22.5l-3 -23h265l3 23q-50 7 -63 22.5t-8 57.5l116 822h300l-116 -822q-5 -42 -23 -57.5t-71 -22.5z" />
    <glyph glyph-name="summation" unicode="&#x2211;" horiz-adv-x="588" 
d="M263 662l147 -313l-235 -312h220q53 0 89.5 32t52.5 93h28l-27 -162h-493l4 30l239 320l-149 320l4 30h468l-18 -163h-28q1 61 -26.5 93t-80.5 32h-195z" />
    <glyph glyph-name="minus" unicode="&#x2212;" horiz-adv-x="560" 
d="M137 287h365l-6 -40h-365z" />
    <glyph glyph-name="uni2215" unicode="&#x2215;" horiz-adv-x="480" 
d="M490 770h-44l-358 -830h45z" />
    <glyph glyph-name="uni2219" unicode="&#x2219;" horiz-adv-x="356" 
d="M129 248q5 34 33 58t62 24t54.5 -24t15.5 -58q-4 -34 -31.5 -58.5t-61.5 -24.5t-55.5 24t-16.5 59z" />
    <glyph glyph-name="radical" unicode="&#x221a;" horiz-adv-x="785" 
d="M794 710h30l-379 -710h-35l-104 385h-192l5 35h264l81 -320z" />
    <glyph glyph-name="infinity" unicode="&#x221e;" horiz-adv-x="949" 
d="M286 130q62 0 120.5 41t84.5 84q-14 47 -63 81t-106 34q-79 0 -124.5 -33t-52.5 -82q-7 -50 27.5 -87.5t113.5 -37.5zM733 370q-62 0 -121 -41t-85 -84q14 -47 63 -81t107 -34q79 0 124 32.5t52 82.5t-27 87.5t-113 37.5zM326 400q69 0 119 -37t70 -88q102 125 230 125
q81 0 124 -44t34 -111q-9 -65 -65.5 -105t-144.5 -40q-69 0 -120 36.5t-71 86.5q-100 -123 -228 -123q-81 0 -124.5 44t-34.5 111q9 65 66 105t145 40z" />
    <glyph glyph-name="integral" unicode="&#x222b;" horiz-adv-x="310" 
d="M248 500l-88 -500q-20 -107 -113 -188.5t-152 -81.5q-45 0 -47 33q-2 28 22 46q17 12 34 6q29 -10 49.5 -13t35.5 4.5t24.5 17.5t17 34t12 46.5t11.5 61.5q4 22 6 34l88 500q10 56 44.5 108.5t76 86.5t81.5 54.5t65 20.5q45 0 47 -33q2 -28 -22 -46q-17 -12 -34 -6
q-82 29 -111 -9q-21 -26 -38 -127q-1 -5 -3 -17q-4 -21 -6 -32z" />
    <glyph glyph-name="approxequal" unicode="&#x2248;" horiz-adv-x="550" 
d="M156 297l-18 13q72 115 121 115q20 0 76 -31.5t75 -31.5q16 0 33 11t23.5 18t27.5 31l18 -12q-19 -29 -32.5 -47.5t-37.5 -38t-45 -19.5q-23 0 -78 31t-78 31q-13 0 -25.5 -7.5t-19 -14.5t-20.5 -24.5t-20 -23.5zM135 147l-18 13q72 115 121 115q20 0 76 -31.5t75 -31.5
q16 0 33 11t23.5 18t27.5 31l18 -12q-67 -105 -115 -105q-24 0 -78 31t-78 31q-13 0 -25.5 -7.5t-19 -14.5t-20.5 -24.5t-20 -23.5z" />
    <glyph glyph-name="notequal" unicode="&#x2260;" horiz-adv-x="560" 
d="M127 217h144l43 100h-173l6 40h185l77 178h44l-77 -178h136l-6 -40h-148l-43 -100h177l-6 -40h-189l-75 -177h-45l76 177h-132z" />
    <glyph glyph-name="lessequal" unicode="&#x2264;" horiz-adv-x="560" 
d="M478 114l-290 155l333 152l6 47l-391 -189l-4 -23l304 -169h-327l-6 -40h365z" />
    <glyph glyph-name="greaterequal" unicode="&#x2265;" horiz-adv-x="560" 
d="M113 114l333 155l-290 152l6 47l339 -189l-4 -23l-350 -169h327l-6 -40h-365z" />
    <glyph glyph-name="lozenge" unicode="&#x25ca;" horiz-adv-x="612" 
d="M311 39l-115 305l201 304l114 -304zM148 344l142 -374h22l248 374l-143 374h-22z" />
    <glyph glyph-name="undercommaaccent" unicode="&#xf005;" horiz-adv-x="340" 
d="M152 -46q24 0 40.5 -10.5t22 -26t7.5 -33.5t-1 -33q-10 -65 -57 -116t-98 -68l-10 23q65 28 92 82q21 40 0 53l-14 3q-26 0 -41.5 18.5t-11.5 45.5q4 25 25 43.5t46 18.5z" />
    <glyph glyph-name="Abreve.small" unicode="&#xf66d;" horiz-adv-x="590" 
d="M370 620q63 0 101.5 45t46.5 106h-25q-13 -37 -45 -57.5t-68 -20.5t-62 20.5t-29 57.5h-26q-8 -61 18 -106t89 -45zM523 82l-130 463h-53l-241 -463q-15 -29 -33 -40.5t-56 -19.5l-3 -22h205l3 22q-51 7 -64.5 29.5t7.5 60.5l29 56h200l15 -56q13 -37 0 -60t-64 -30
l-3 -22h247l3 22q-31 11 -43 23t-19 37zM319 427h2l56 -221h-172z" />
    <glyph glyph-name="Amacron.small" unicode="&#xf66e;" horiz-adv-x="590" 
d="M227 687h315l-6 -40h-315zM523 82l-130 463h-53l-241 -463q-15 -29 -33 -40.5t-56 -19.5l-3 -22h205l3 22q-51 7 -64.5 29.5t7.5 60.5l29 56h200l15 -56q13 -37 0 -60t-64 -30l-3 -22h247l3 22q-31 11 -43 23t-19 37zM319 427h2l56 -221h-172z" />
    <glyph glyph-name="AEacute.small" unicode="&#xf670;" horiz-adv-x="750" 
d="M490 291l30 211h95q56 0 83.5 -23.5t26.5 -81.5h27l15 143h-322l-331 -458q-21 -29 -42.5 -40.5t-61.5 -19.5l-3 -22h203l3 22q-49 7 -56 29.5t22 60.5l93 129h111l-19 -139q-6 -42 -23.5 -57.5t-70.5 -22.5l-3 -22h435l29 142h-27q-27 -105 -144 -105h-105l30 216h20
q46 0 65.5 -17t19.5 -74h27l31 220h-27q-14 -56 -39.5 -73.5t-71.5 -17.5h-20zM408 428h2l-21 -150h-90zM486 611l12 -11l155 104q37 25 22 55q-12 24 -39 21q-19 -2 -33 -20z" />
    <glyph glyph-name="Cacute.small" unicode="&#xf671;" horiz-adv-x="560" 
d="M328 28q-72 0 -113 55.5t-23 186.5q19 131 75 186t129 55q77 0 113.5 -46.5t43.5 -117.5h27l10 143q-86 60 -191 60q-53 0 -102 -15t-94.5 -46t-77.5 -87.5t-43 -131.5q-10 -75 6 -131.5t53 -87.5t81.5 -46t97.5 -15q103 0 209 60l29 142h-27q-14 -37 -27 -60.5
t-36 -50.5t-58 -40t-82 -13zM384 611l12 -11l155 104q37 25 22 55q-12 24 -39 21q-19 -2 -33 -20z" />
    <glyph glyph-name="Ccaron.small" unicode="&#xf672;" horiz-adv-x="560" 
d="M328 28q-72 0 -113 55.5t-23 186.5q19 131 75 186t129 55q77 0 113.5 -46.5t43.5 -117.5h27l10 143q-86 60 -191 60q-53 0 -102 -15t-94.5 -46t-77.5 -87.5t-43 -131.5q-10 -75 6 -131.5t53 -87.5t81.5 -46t97.5 -15q103 0 209 60l29 142h-27q-14 -37 -27 -60.5
t-36 -50.5t-58 -40t-82 -13zM423 690l-100 90h-27l100 -180h30l150 180h-28z" />
    <glyph glyph-name="Ccircumflex.small" unicode="&#xf673;" horiz-adv-x="560" 
d="M328 28q-72 0 -113 55.5t-23 186.5q19 131 75 186t129 55q77 0 113.5 -46.5t43.5 -117.5h27l10 143q-86 60 -191 60q-53 0 -102 -15t-94.5 -46t-77.5 -87.5t-43 -131.5q-10 -75 6 -131.5t53 -87.5t81.5 -46t97.5 -15q103 0 209 60l29 142h-27q-14 -37 -27 -60.5
t-36 -50.5t-58 -40t-82 -13zM413 690l-125 -90h-27l150 180h30l100 -180h-28z" />
    <glyph glyph-name="Cdotaccent.small" unicode="&#xf674;" horiz-adv-x="560" 
d="M328 28q-72 0 -113 55.5t-23 186.5q19 131 75 186t129 55q77 0 113.5 -46.5t43.5 -117.5h27l10 143q-86 60 -191 60q-53 0 -102 -15t-94.5 -46t-77.5 -87.5t-43 -131.5q-10 -75 6 -131.5t53 -87.5t81.5 -46t97.5 -15q103 0 209 60l29 142h-27q-14 -37 -27 -60.5
t-36 -50.5t-58 -40t-82 -13zM363 677q3 25 23 42.5t45 17.5t40 -17.5t12 -42.5q-4 -25 -24 -42.5t-45 -17.5t-40 17t-11 43z" />
    <glyph glyph-name="Dcaron.small" unicode="&#xf675;" horiz-adv-x="660" 
d="M225 37h75q62 0 107.5 18.5t72 53t41 73t21.5 88.5q17 119 -22 175.5t-165 56.5h-65zM295 0h-258l3 22q53 7 70.5 22.5t23.5 57.5l47 335q6 42 -7.5 57.5t-64.5 22.5l3 23h258q160 0 230.5 -69t51.5 -201q-17 -125 -108.5 -197.5t-248.5 -72.5zM417 690l-100 90h-27
l100 -180h30l150 180h-28z" />
    <glyph glyph-name="Ebreve.small" unicode="&#xf677;" horiz-adv-x="560" 
d="M290 502l-30 -211h50q52 0 79.5 17.5t41.5 73.5h27l-31 -220h-27q2 56 -20.5 73.5t-74.5 17.5h-50l-30 -216h145q117 0 144 105h27l-29 -142h-475l3 22q53 7 70.5 22.5t23.5 57.5l47 335q6 42 -7.5 57.5t-64.5 22.5l3 23h465l-15 -143h-27q1 58 -26.5 81.5t-83.5 23.5
h-135zM400 620q63 0 101.5 45t46.5 106h-25q-13 -37 -45 -57.5t-68 -20.5t-62 20.5t-29 57.5h-26q-8 -61 18 -106t89 -45z" />
    <glyph glyph-name="Ecaron.small" unicode="&#xf678;" horiz-adv-x="560" 
d="M290 502l-30 -211h50q52 0 79.5 17.5t41.5 73.5h27l-31 -220h-27q2 56 -20.5 73.5t-74.5 17.5h-50l-30 -216h145q117 0 144 105h27l-29 -142h-475l3 22q53 7 70.5 22.5t23.5 57.5l47 335q6 42 -7.5 57.5t-64.5 22.5l3 23h465l-15 -143h-27q1 58 -26.5 81.5t-83.5 23.5
h-135zM418 690l-100 90h-27l100 -180h30l150 180h-28z" />
    <glyph glyph-name="Edotaccent.small" unicode="&#xf679;" horiz-adv-x="560" 
d="M290 502l-30 -211h50q52 0 79.5 17.5t41.5 73.5h27l-31 -220h-27q2 56 -20.5 73.5t-74.5 17.5h-50l-30 -216h145q117 0 144 105h27l-29 -142h-475l3 22q53 7 70.5 22.5t23.5 57.5l47 335q6 42 -7.5 57.5t-64.5 22.5l3 23h465l-15 -143h-27q1 58 -26.5 81.5t-83.5 23.5
h-135zM353 677q3 25 23 42.5t45 17.5t40 -17.5t12 -42.5q-4 -25 -24 -42.5t-45 -17.5t-40 17t-11 43z" />
    <glyph glyph-name="Emacron.small" unicode="&#xf67a;" horiz-adv-x="560" 
d="M290 502l-30 -211h50q52 0 79.5 17.5t41.5 73.5h27l-31 -220h-27q2 56 -20.5 73.5t-74.5 17.5h-50l-30 -216h145q117 0 144 105h27l-29 -142h-475l3 22q53 7 70.5 22.5t23.5 57.5l47 335q6 42 -7.5 57.5t-64.5 22.5l3 23h465l-15 -143h-27q1 58 -26.5 81.5t-83.5 23.5
h-135zM242 687h315l-6 -40h-315z" />
    <glyph glyph-name="Gbreve.small" unicode="&#xf67d;" horiz-adv-x="630" 
d="M328 28q-72 0 -113 55.5t-23 186.5q19 131 75 186t129 55q77 0 113.5 -46.5t43.5 -117.5h27l10 143q-86 60 -191 60q-53 0 -102 -15t-94.5 -46t-77.5 -87.5t-43 -131.5q-10 -75 6 -131.5t53 -87.5t81.5 -46t97.5 -15q119 0 236 80l10 70q6 43 20 58t58 22l4 22h-250
l-4 -22q53 -7 65.5 -22.5t6.5 -57.5l-9 -65q-58 -47 -129 -47zM408 620q63 0 101.5 45t46.5 106h-25q-13 -37 -45 -57.5t-68 -20.5t-62 20.5t-29 57.5h-26q-8 -61 18 -106t89 -45z" />
    <glyph glyph-name="Gcircumflex.small" unicode="&#xf67e;" horiz-adv-x="630" 
d="M328 28q-72 0 -113 55.5t-23 186.5q19 131 75 186t129 55q77 0 113.5 -46.5t43.5 -117.5h27l10 143q-86 60 -191 60q-53 0 -102 -15t-94.5 -46t-77.5 -87.5t-43 -131.5q-10 -75 6 -131.5t53 -87.5t81.5 -46t97.5 -15q119 0 236 80l10 70q6 43 20 58t58 22l4 22h-250
l-4 -22q53 -7 65.5 -22.5t6.5 -57.5l-9 -65q-58 -47 -129 -47zM418 690l-125 -90h-27l150 180h30l100 -180h-28z" />
    <glyph glyph-name="Gcommaaccent.small" unicode="&#xf67f;" horiz-adv-x="630" 
d="M328 28q-72 0 -113 55.5t-23 186.5q19 131 75 186t129 55q77 0 113.5 -46.5t43.5 -117.5h27l10 143q-86 60 -191 60q-53 0 -102 -15t-94.5 -46t-77.5 -87.5t-43 -131.5q-10 -75 6 -131.5t53 -87.5t81.5 -46t97.5 -15q119 0 236 80l10 70q6 43 20 58t58 22l4 22h-250
l-4 -22q53 -7 65.5 -22.5t6.5 -57.5l-9 -65q-58 -47 -129 -47zM308 -46q24 0 40.5 -10.5t22 -26t7.5 -33.5t-1 -33q-10 -65 -57 -116t-98 -68l-10 23q65 28 92 82q21 40 0 53l-14 3q-26 0 -41.5 18.5t-11.5 45.5q4 25 25 43.5t46 18.5z" />
    <glyph glyph-name="Gdotaccent.small" unicode="&#xf680;" horiz-adv-x="630" 
d="M328 28q-72 0 -113 55.5t-23 186.5q19 131 75 186t129 55q77 0 113.5 -46.5t43.5 -117.5h27l10 143q-86 60 -191 60q-53 0 -102 -15t-94.5 -46t-77.5 -87.5t-43 -131.5q-10 -75 6 -131.5t53 -87.5t81.5 -46t97.5 -15q119 0 236 80l10 70q6 43 20 58t58 22l4 22h-250
l-4 -22q53 -7 65.5 -22.5t6.5 -57.5l-9 -65q-58 -47 -129 -47zM364 677q3 25 23 42.5t45 17.5t40 -17.5t12 -42.5q-4 -25 -24 -42.5t-45 -17.5t-40 17t-11 43z" />
    <glyph glyph-name="Hcircumflex.small" unicode="&#xf682;" horiz-adv-x="710" 
d="M651 437l-47 -335q-6 -42 7 -57.5t64 -22.5l-3 -22h-265l3 22q53 7 70.5 22.5t23.5 57.5l22 156h-270l-22 -156q-6 -42 7 -57.5t64 -22.5l-3 -22h-265l3 22q53 7 70.5 22.5t23.5 57.5l47 335q6 42 -7.5 57.5t-64.5 22.5l3 23h265l-3 -23q-52 -7 -69.5 -22.5t-23.5 -57.5
l-20 -141h270l20 141q6 42 -7.5 57.5t-64.5 22.5l3 23h265l-3 -23q-52 -7 -69.5 -22.5t-23.5 -57.5zM455 690l-125 -90h-27l150 180h30l100 -180h-28z" />
    <glyph glyph-name="Ibreve.small" unicode="&#xf683;" horiz-adv-x="340" 
d="M281 437l-47 -335q-6 -42 7 -57.5t64 -22.5l-3 -22h-265l3 22q53 7 70.5 22.5t23.5 57.5l47 335q6 42 -7.5 57.5t-64.5 22.5l3 23h265l-3 -23q-52 -7 -69.5 -22.5t-23.5 -57.5zM255 620q63 0 101.5 45t46.5 106h-25q-13 -37 -45 -57.5t-68 -20.5t-62 20.5t-29 57.5h-26
q-8 -61 18 -106t89 -45z" />
    <glyph glyph-name="Imacron.small" unicode="&#xf685;" horiz-adv-x="340" 
d="M282 437l-47 -335q-6 -42 7 -57.5t64 -22.5l-3 -22h-265l3 22q53 7 70.5 22.5t23.5 57.5l47 335q6 42 -7.5 57.5t-64.5 22.5l3 23h265l-3 -23q-52 -7 -69.5 -22.5t-23.5 -57.5zM108 687h315l-6 -40h-315z" />
    <glyph glyph-name="Itilde.small" unicode="&#xf687;" horiz-adv-x="340" 
d="M282 437l-47 -335q-6 -42 7 -57.5t64 -22.5l-3 -22h-265l3 22q53 7 70.5 22.5t23.5 57.5l47 335q6 42 -7.5 57.5t-64.5 22.5l3 23h265l-3 -23q-52 -7 -69.5 -22.5t-23.5 -57.5zM96 617l-18 13q72 115 121 115q20 0 78 -20t77 -20q27 0 43.5 7.5t36.5 29.5l18 -12
q-19 -29 -32.5 -47.5t-37.5 -38t-45 -19.5q-23 0 -79 20t-80 20q-25 0 -41.5 -10.5t-40.5 -37.5z" />
    <glyph glyph-name="Jcircumflex.small" unicode="&#xf688;" 
d="M341 437l-26 -182q-17 -123 -85.5 -194t-156.5 -71q-51 0 -57 35q-4 27 20 44q21 14 45 2q73 -35 95.5 -11.5t31.5 143.5l33 234q6 42 -7.5 57.5t-64.5 22.5l3 23h265l-3 -23q-52 -7 -69.5 -22.5t-23.5 -57.5zM326 690l-125 -90h-27l150 180h30l100 -180h-28z" />
    <glyph glyph-name="Kcommaaccent.small" unicode="&#xf689;" horiz-adv-x="640" 
d="M260 290l21 147q6 42 23.5 57.5t69.5 22.5l3 23h-265l-3 -23q51 -7 64.5 -22.5t7.5 -57.5l-47 -335q-6 -42 -23.5 -57.5t-70.5 -22.5l-3 -22h265l3 22q-51 7 -64 22.5t-7 57.5l21 150q24 0 38 -8t28 -29l78 -114q27 -41 24 -58t-35 -21l-3 -22h230l3 22q-30 8 -51.5 28
t-45.5 56l-133 196l161 158q44 43 123 57l3 23h-220l-3 -23q50 -7 53.5 -32.5t-30.5 -54.5l-110 -105q-22 -21 -43.5 -28t-61.5 -7zM318 -46q24 0 40.5 -10.5t22 -26t7.5 -33.5t-1 -33q-10 -65 -57 -116t-98 -68l-10 23q65 28 92 82q21 40 0 53l-14 3q-26 0 -41.5 18.5
t-11.5 45.5q4 25 25 43.5t46 18.5z" />
    <glyph glyph-name="Lacute.small" unicode="&#xf68a;" horiz-adv-x="540" 
d="M134 102l47 335q6 42 -7.5 57.5t-64.5 22.5l3 23h265l-3 -23q-52 -7 -69.5 -22.5t-23.5 -57.5l-56 -400h145q117 0 144 105h27l-29 -142h-475l3 22q53 7 70.5 22.5t23.5 57.5zM247 611l12 -11l155 104q37 25 22 55q-12 24 -39 21q-19 -3 -33 -20z" />
    <glyph glyph-name="Lcaron.small" unicode="&#xf68b;" horiz-adv-x="540" 
d="M134 102l47 335q6 42 -7.5 57.5t-64.5 22.5l3 23h265l-3 -23q-52 -7 -69.5 -22.5t-23.5 -57.5l-56 -400h145q117 0 144 105h27l-29 -142h-475l3 22q53 7 70.5 22.5t23.5 57.5zM502 554q24 0 40.5 -10.5t22 -26t7.5 -33.5t-1 -33q-10 -65 -57 -116t-98 -68l-10 23
q65 28 92 82q21 40 0 53q-6 3 -14 3q-26 0 -41.5 18.5t-11.5 45.5q4 25 25 43.5t46 18.5z" />
    <glyph glyph-name="Lcommaaccent.small" unicode="&#xf68c;" horiz-adv-x="540" 
d="M134 102l47 335q6 42 -7.5 57.5t-64.5 22.5l3 23h265l-3 -23q-52 -7 -69.5 -22.5t-23.5 -57.5l-56 -400h145q117 0 144 105h27l-29 -142h-475l3 22q53 7 70.5 22.5t23.5 57.5zM285 -46q24 0 40.5 -10.5t22 -26t7.5 -33.5t-1 -33q-10 -65 -57 -116t-98 -68l-10 23
q65 28 92 82q21 40 0 53l-14 3q-26 0 -41.5 18.5t-11.5 45.5q4 25 25 43.5t46 18.5z" />
    <glyph glyph-name="Ldot.small" unicode="&#xf68d;" horiz-adv-x="540" 
d="M134 102l47 335q6 42 -7.5 57.5t-64.5 22.5l3 23h265l-3 -23q-52 -7 -69.5 -22.5t-23.5 -57.5l-56 -400h145q117 0 144 105h27l-29 -142h-475l3 22q53 7 70.5 22.5t23.5 57.5zM416 289q3 25 23 42.5t45 17.5t40 -17.5t12 -42.5q-4 -25 -24 -42.5t-45 -17.5t-40 17t-11 43
z" />
    <glyph glyph-name="Nacute.small" unicode="&#xf68e;" horiz-adv-x="670" 
d="M531 153l40 284q6 43 -7.5 58t-71.5 22l3 23h222l-3 -23q-56 -7 -75 -22.5t-25 -57.5l-61 -437h-61l-260 447l-48 -345q-6 -43 7.5 -58t71.5 -22l-3 -22h-223l3 22q56 7 75 22.5t25 57.5l47 335q6 42 -8.5 57.5t-69.5 22.5l3 23h189zM420 611l12 -11l155 104q37 25 22 55
q-12 24 -39 21q-19 -2 -33 -20z" />
    <glyph glyph-name="Ncaron.small" unicode="&#xf68f;" horiz-adv-x="670" 
d="M531 153l40 284q6 43 -7.5 58t-71.5 22l3 23h222l-3 -23q-56 -7 -75 -22.5t-25 -57.5l-61 -437h-61l-260 447l-48 -345q-6 -43 7.5 -58t71.5 -22l-3 -22h-223l3 22q56 7 75 22.5t25 57.5l47 335q6 42 -8.5 57.5t-69.5 22.5l3 23h189zM445 690l-100 90h-27l100 -180h30
l150 180h-28z" />
    <glyph glyph-name="Ncommaaccent.small" unicode="&#xf690;" horiz-adv-x="670" 
d="M531 153l40 284q6 43 -7.5 58t-71.5 22l3 23h222l-3 -23q-56 -7 -75 -22.5t-25 -57.5l-61 -437h-61l-260 447l-48 -345q-6 -43 7.5 -58t71.5 -22l-3 -22h-223l3 22q56 7 75 22.5t25 57.5l47 335q6 42 -8.5 57.5t-69.5 22.5l3 23h189zM320 -46q24 0 40.5 -10.5t22 -26
t7.5 -33.5t-1 -33q-10 -65 -57 -116t-98 -68l-10 23q65 28 92 82q21 40 0 53l-14 3q-26 0 -41.5 18.5t-11.5 45.5q4 25 25 43.5t46 18.5z" />
    <glyph glyph-name="Obreve.small" unicode="&#xf691;" horiz-adv-x="660" 
d="M82 270q13 89 64.5 154.5t119 95.5t141.5 30q116 0 190 -74t55 -206q-12 -90 -63.5 -155t-119 -95t-141.5 -30q-116 0 -190 73.5t-56 206.5zM192 270q-18 -130 24.5 -186t116.5 -56t132.5 56t76.5 186q8 71 1.5 117.5t-30.5 74t-51 38.5t-61 11q-74 0 -132 -55.5
t-77 -185.5zM418 620q63 0 101.5 45t46.5 106h-25q-13 -37 -45 -57.5t-68 -20.5t-62 20.5t-29 57.5h-26q-8 -61 18 -106t89 -45z" />
    <glyph glyph-name="Ohungarumlaut.small" unicode="&#xf692;" horiz-adv-x="660" 
d="M82 270q13 89 64.5 154.5t119 95.5t141.5 30q116 0 190 -74t55 -206q-12 -90 -63.5 -155t-119 -95t-141.5 -30q-116 0 -190 73.5t-56 206.5zM192 270q-18 -130 24.5 -186t116.5 -56t132.5 56t76.5 186q8 71 1.5 117.5t-30.5 74t-51 38.5t-61 11q-74 0 -132 -55.5
t-77 -185.5zM317 607l16 -7l121 145q27 32 2 55q-21 19 -48 7q-16 -8 -23 -26zM477 607l16 -7l121 145q27 32 2 55q-21 19 -48 7q-16 -8 -23 -26z" />
    <glyph glyph-name="Omacron.small" unicode="&#xf693;" horiz-adv-x="660" 
d="M82 270q13 89 64.5 154.5t119 95.5t141.5 30q116 0 190 -74t55 -206q-12 -90 -63.5 -155t-119 -95t-141.5 -30q-116 0 -190 73.5t-56 206.5zM192 270q-18 -130 24.5 -186t116.5 -56t132.5 56t76.5 186q8 71 1.5 117.5t-30.5 74t-51 38.5t-61 11q-74 0 -132 -55.5
t-77 -185.5zM262 687h315l-6 -40h-315z" />
    <glyph glyph-name="Oslashacute.small" unicode="&#xf694;" horiz-adv-x="660" 
d="M404 611l12 -11l155 104q37 25 22 55q-12 24 -39 21q-19 -2 -33 -20zM99 -11l-25 26l59 53q-68 76 -51 202q13 89 64.5 154.5t119 95.5t141.5 30q113 0 181 -67l64 58l22 -31l-61 -55q55 -74 39 -185q-12 -90 -63.5 -155t-119 -95t-141.5 -30q-103 0 -168 53zM192 270
q-12 -90 6 -142l332 302q-33 81 -129 81q-74 0 -132 -55.5t-77 -185.5zM542 270q10 66 -2 119l-328 -298q38 -63 121 -63q74 0 132.5 56t76.5 186z" />
    <glyph glyph-name="Racute.small" unicode="&#xf695;" horiz-adv-x="610" 
d="M357 611l12 -11l155 104q37 25 22 55q-12 24 -39 21q-19 -3 -33 -20zM589 385q-7 -50 -53.5 -89.5t-124.5 -55.5l97 -144q33 -49 90 -74l-3 -22h-144q-38 27 -62 70l-90 160h-47l-18 -128q-6 -42 7 -57.5t64 -22.5l-3 -22h-265l3 22q53 7 70.5 22.5t23.5 57.5l47 335
q6 42 -7.5 57.5t-64.5 22.5l3 23h268q115 0 167.5 -37t41.5 -118zM257 267h35q175 0 192 118q8 61 -22.5 89t-111.5 28h-60z" />
    <glyph glyph-name="Rcaron.small" unicode="&#xf696;" horiz-adv-x="610" 
d="M389 690l-100 90h-27l100 -180h30l150 180h-28zM589 385q-7 -50 -53.5 -89.5t-124.5 -55.5l97 -144q33 -49 90 -74l-3 -22h-144q-38 27 -62 70l-90 160h-47l-18 -128q-6 -42 7 -57.5t64 -22.5l-3 -22h-265l3 22q53 7 70.5 22.5t23.5 57.5l47 335q6 42 -7.5 57.5
t-64.5 22.5l3 23h268q115 0 167.5 -37t41.5 -118zM257 267h35q175 0 192 118q8 61 -22.5 89t-111.5 28h-60z" />
    <glyph glyph-name="Rcommaaccent.small" unicode="&#xf697;" horiz-adv-x="610" 
d="M321 -46q24 0 40.5 -10.5t22 -26t7.5 -33.5t-1 -33q-10 -65 -57 -116t-98 -68l-10 23q65 28 92 82q21 40 0 53l-14 3q-26 0 -41.5 18.5t-11.5 45.5q4 25 25 43.5t46 18.5zM589 385q-7 -50 -53.5 -89.5t-124.5 -55.5l97 -144q33 -49 90 -74l-3 -22h-144q-38 27 -62 70
l-90 160h-47l-18 -128q-6 -42 7 -57.5t64 -22.5l-3 -22h-265l3 22q53 7 70.5 22.5t23.5 57.5l47 335q6 42 -7.5 57.5t-64.5 22.5l3 23h268q115 0 167.5 -37t41.5 -118zM257 267h35q175 0 192 118q8 61 -22.5 89t-111.5 28h-60z" />
    <glyph glyph-name="Sacute.small" unicode="&#xf698;" horiz-adv-x="475" 
d="M457 375h-31q-3 64 -36.5 100t-85.5 36q-39 0 -67 -17.5t-34 -54.5q-6 -45 19.5 -69.5t76.5 -43.5q39 -15 64 -28.5t49 -33.5t33 -47.5t4 -62.5q-10 -75 -75 -119.5t-151 -44.5q-95 0 -162 39l10 146h32q0 -44 11.5 -75t31 -45.5t38.5 -20.5t41 -6q46 0 78.5 25.5
t39.5 69.5q3 21 -4 38t-25.5 31t-34.5 22.5t-47 22.5q-75 32 -107.5 67.5t-23.5 99.5q9 66 66 106t147 40q84 0 151 -35zM294 611l12 -11l155 104q37 25 22 55q-12 24 -39 21q-19 -3 -33 -20z" />
    <glyph glyph-name="Scircumflex.small" unicode="&#xf69a;" horiz-adv-x="475" 
d="M457 375h-31q-3 64 -36.5 100t-85.5 36q-39 0 -67 -17.5t-34 -54.5q-6 -45 19.5 -69.5t76.5 -43.5q39 -15 64 -28.5t49 -33.5t33 -47.5t4 -62.5q-10 -75 -75 -119.5t-151 -44.5q-95 0 -162 39l10 146h32q0 -44 11.5 -75t31 -45.5t38.5 -20.5t41 -6q46 0 78.5 25.5
t39.5 69.5q3 21 -4 38t-25.5 31t-34.5 22.5t-47 22.5q-75 32 -107.5 67.5t-23.5 99.5q9 66 66 106t147 40q84 0 151 -35zM324 690l-125 -90h-27l150 180h30l100 -180h-28z" />
    <glyph glyph-name="Scommaaccent.small" unicode="&#xf69b;" horiz-adv-x="475" 
d="M457 375h-31q-3 64 -36.5 100t-85.5 36q-39 0 -67 -17.5t-34 -54.5q-6 -45 19.5 -69.5t76.5 -43.5q39 -15 64 -28.5t49 -33.5t33 -47.5t4 -62.5q-10 -75 -75 -119.5t-151 -44.5q-95 0 -162 39l10 146h32q0 -44 11.5 -75t31 -45.5t38.5 -20.5t41 -6q46 0 78.5 25.5
t39.5 69.5q3 21 -4 38t-25.5 31t-34.5 22.5t-47 22.5q-75 32 -107.5 67.5t-23.5 99.5q9 66 66 106t147 40q84 0 151 -35zM213 -46q24 0 40.5 -10.5t22 -26t7.5 -33.5t-1 -33q-10 -65 -57 -116t-98 -68l-10 23q65 28 92 82q21 40 0 53l-14 3q-26 0 -41.5 18.5t-11.5 45.5
q4 25 25 43.5t46 18.5z" />
    <glyph glyph-name="Tcaron.small" unicode="&#xf69d;" horiz-adv-x="540" 
d="M582 540h-475l-25 -143h28q16 60 44.5 82.5t82.5 22.5h53l-56 -400q-6 -42 -23.5 -57.5t-70.5 -22.5l-3 -22h265l3 22q-51 7 -64 22.5t-7 57.5l56 400h52q54 0 76.5 -23t21.5 -82h27zM365 690l-100 90h-27l100 -180h30l150 180h-28z" />
    <glyph glyph-name="Tcommaaccent.small" unicode="&#xf69e;" horiz-adv-x="540" 
d="M582 540h-475l-25 -143h28q16 60 44.5 82.5t82.5 22.5h53l-56 -400q-6 -42 -23.5 -57.5t-70.5 -22.5l-3 -22h265l3 22q-51 7 -64 22.5t-7 57.5l56 400h52q54 0 76.5 -23t21.5 -82h27zM251 -46q24 0 40.5 -10.5t22 -26t7.5 -33.5t-1 -33q-10 -65 -57 -116t-98 -68l-10 23
q65 28 92 82q21 40 0 53l-14 3q-26 0 -41.5 18.5t-11.5 45.5q4 25 25 43.5t46 18.5z" />
    <glyph glyph-name="Ubreve.small" unicode="&#xf69f;" horiz-adv-x="700" 
d="M573 250l26 187q6 42 -8 57.5t-72 22.5l3 23h225l-3 -23q-58 -7 -76.5 -22.5t-24.5 -57.5l-28 -197q-17 -124 -90 -187t-182 -63q-235 0 -200 250l28 197q6 42 -7.5 57.5t-64.5 22.5l3 23h265l-3 -23q-52 -7 -69.5 -22.5t-23.5 -57.5l-26 -187q-16 -112 14.5 -163.5
t111.5 -51.5q171 0 202 215zM456 620q63 0 101.5 45t46.5 106h-25q-13 -37 -45 -57.5t-68 -20.5t-62 20.5t-29 57.5h-26q-8 -61 18 -106t89 -45z" />
    <glyph glyph-name="Uhungarumlaut.small" unicode="&#xf6a0;" horiz-adv-x="700" 
d="M573 250l26 187q6 42 -8 57.5t-72 22.5l3 23h225l-3 -23q-58 -7 -76.5 -22.5t-24.5 -57.5l-28 -197q-17 -124 -90 -187t-182 -63q-235 0 -200 250l28 197q6 42 -7.5 57.5t-64.5 22.5l3 23h265l-3 -23q-52 -7 -69.5 -22.5t-23.5 -57.5l-26 -187q-16 -112 14.5 -163.5
t111.5 -51.5q171 0 202 215zM353 607l16 -7l121 145q27 32 2 55q-21 19 -48 7q-16 -8 -23 -26zM513 607l16 -7l121 145q27 32 2 55q-21 19 -48 7q-16 -8 -23 -26z" />
    <glyph glyph-name="Umacron.small" unicode="&#xf6a1;" horiz-adv-x="700" 
d="M573 250l26 187q6 42 -8 57.5t-72 22.5l3 23h225l-3 -23q-58 -7 -76.5 -22.5t-24.5 -57.5l-28 -197q-17 -124 -90 -187t-182 -63q-235 0 -200 250l28 197q6 42 -7.5 57.5t-64.5 22.5l3 23h265l-3 -23q-52 -7 -69.5 -22.5t-23.5 -57.5l-26 -187q-16 -112 14.5 -163.5
t111.5 -51.5q171 0 202 215zM308 687h315l-6 -40h-315z" />
    <glyph glyph-name="Uring.small" unicode="&#xf6a3;" horiz-adv-x="700" 
d="M573 250l26 187q6 42 -8 57.5t-72 22.5l3 23h225l-3 -23q-58 -7 -76.5 -22.5t-24.5 -57.5l-28 -197q-17 -124 -90 -187t-182 -63q-235 0 -200 250l28 197q6 42 -7.5 57.5t-64.5 22.5l3 23h265l-3 -23q-52 -7 -69.5 -22.5t-23.5 -57.5l-26 -187q-16 -112 14.5 -163.5
t111.5 -51.5q171 0 202 215zM375 687q5 38 35 64t68 26q37 0 59.5 -26t17.5 -64t-35 -64t-68 -26t-60 26t-17 64zM408 687q-3 -24 11 -40.5t38 -16.5t43 16.5t22 40.5q4 24 -10.5 40.5t-38.5 16.5t-42.5 -16.5t-22.5 -40.5z" />
    <glyph glyph-name="Utilde.small" unicode="&#xf6a4;" horiz-adv-x="700" 
d="M573 250l26 187q6 42 -8 57.5t-72 22.5l3 23h225l-3 -23q-58 -7 -76.5 -22.5t-24.5 -57.5l-28 -197q-17 -124 -90 -187t-182 -63q-235 0 -200 250l28 197q6 42 -7.5 57.5t-64.5 22.5l3 23h265l-3 -23q-52 -7 -69.5 -22.5t-23.5 -57.5l-26 -187q-16 -112 14.5 -163.5
t111.5 -51.5q171 0 202 215zM299 617l-18 13q72 115 121 115q20 0 78 -20t77 -20q27 0 43.5 7.5t36.5 29.5l18 -12q-67 -105 -115 -105q-24 0 -80 20t-79 20q-25 0 -41.5 -10.5t-40.5 -37.5z" />
    <glyph glyph-name="Wacute.small" unicode="&#xf6a5;" horiz-adv-x="880" 
d="M475 457l7 -42l-161 -303h-2l-57 315q-8 44 2.5 63.5t62.5 26.5l3 23h-248l-3 -23q32 -11 44.5 -23t17.5 -37l101 -462h56l194 371l69 -371h57l237 462q15 29 32.5 40.5t56.5 19.5l3 23h-205l-3 -23q51 -7 64 -29.5t-7 -60.5l-157 -315h-2l-47 315q-7 44 4.5 63.5
t62.5 26.5l3 23h-248l-3 -23q34 -12 48 -23.5t18 -36.5zM530 611l12 -11l155 104q37 25 22 55q-12 24 -39 21q-19 -2 -33 -20z" />
    <glyph glyph-name="Wcircumflex.small" unicode="&#xf6a6;" horiz-adv-x="880" 
d="M475 457l7 -42l-161 -303h-2l-57 315q-8 44 2.5 63.5t62.5 26.5l3 23h-248l-3 -23q32 -11 44.5 -23t17.5 -37l101 -462h56l194 371l69 -371h57l237 462q15 29 32.5 40.5t56.5 19.5l3 23h-205l-3 -23q51 -7 64 -29.5t-7 -60.5l-157 -315h-2l-47 315q-7 44 4.5 63.5
t62.5 26.5l3 23h-248l-3 -23q34 -12 48 -23.5t18 -36.5zM558 690l-125 -90h-27l150 180h30l100 -180h-28z" />
    <glyph glyph-name="Wdieresis.small" unicode="&#xf6a7;" horiz-adv-x="880" 
d="M475 457l7 -42l-161 -303h-2l-57 315q-8 44 2.5 63.5t62.5 26.5l3 23h-248l-3 -23q32 -11 44.5 -23t17.5 -37l101 -462h56l194 371l69 -371h57l237 462q15 29 32.5 40.5t56.5 19.5l3 23h-205l-3 -23q51 -7 64 -29.5t-7 -60.5l-157 -315h-2l-47 315q-7 44 4.5 63.5
t62.5 26.5l3 23h-248l-3 -23q34 -12 48 -23.5t18 -36.5zM404 665q4 25 22 40.5t41 15.5q24 0 38 -15.5t10 -40.5t-22 -40t-42 -15t-37.5 15.5t-9.5 39.5zM598 665q4 25 22 40.5t42 15.5t38 -16t10 -40t-22 -39.5t-42 -15.5t-38 15.5t-10 39.5z" />
    <glyph glyph-name="Wgrave.small" unicode="&#xf6a8;" horiz-adv-x="880" 
d="M475 457l7 -42l-161 -303h-2l-57 315q-8 44 2.5 63.5t62.5 26.5l3 23h-248l-3 -23q32 -11 44.5 -23t17.5 -37l101 -462h56l194 371l69 -371h57l237 462q15 29 32.5 40.5t56.5 19.5l3 23h-205l-3 -23q51 -7 64 -29.5t-7 -60.5l-157 -315h-2l-47 315q-7 44 4.5 63.5
t62.5 26.5l3 23h-248l-3 -23q34 -12 48 -23.5t18 -36.5zM556 611l-13 -11l-128 104q-30 25 -6 55q20 25 47 21q17 -3 25 -20z" />
    <glyph glyph-name="Ycircumflex.small" unicode="&#xf6a9;" horiz-adv-x="560" 
d="M149 457l117 -302l-7 -53q-6 -42 -23.5 -57.5t-70.5 -22.5l-3 -22h265l3 22q-51 7 -64 22.5t-7 57.5l13 97l157 258q16 28 37 40t61 20l3 23h-205l-3 -23q93 -13 43 -95l-117 -190h-2l-74 195q-8 21 -10.5 33.5t0.5 25t18 20t42 11.5l3 23h-245l-3 -23q32 -8 47 -21.5
t25 -38.5zM396 690l-125 -90h-27l150 180h30l100 -180h-28z" />
    <glyph glyph-name="Ygrave.small" unicode="&#xf6aa;" horiz-adv-x="560" 
d="M149 457l117 -302l-7 -53q-6 -42 -23.5 -57.5t-70.5 -22.5l-3 -22h265l3 22q-51 7 -64 22.5t-7 57.5l13 97l157 258q16 28 37 40t61 20l3 23h-205l-3 -23q93 -13 43 -95l-117 -190h-2l-74 195q-8 21 -10.5 33.5t0.5 25t18 20t42 11.5l3 23h-245l-3 -23q32 -8 47 -21.5
t25 -38.5zM388 611l-13 -11l-128 104q-30 25 -6 55q20 25 47 21q17 -3 25 -20z" />
    <glyph glyph-name="Zacute.small" unicode="&#xf6ab;" horiz-adv-x="535" 
d="M172 37l382 473l4 30h-422l-25 -143h28q16 58 50 81.5t90 23.5h149l-389 -475l-3 -27h451l29 142h-27q-15 -58 -51 -81.5t-93 -23.5h-173zM326 611l12 -11l155 104q37 25 22 55q-12 24 -39 21q-19 -3 -33 -20z" />
    <glyph glyph-name="Zdotaccent.small" unicode="&#xf6ac;" horiz-adv-x="535" 
d="M172 37l382 473l4 30h-422l-25 -143h28q16 58 50 81.5t90 23.5h149l-389 -475l-3 -27h451l29 142h-27q-15 -58 -51 -81.5t-93 -23.5h-173zM313 677q3 25 23 42.5t45 17.5t40 -17.5t12 -42.5q-4 -25 -24 -42.5t-45 -17.5t-40 17t-11 43z" />
    <glyph glyph-name="Idotaccent.small" unicode="&#xf6ad;" horiz-adv-x="340" 
d="M281 437l-47 -335q-6 -42 7 -57.5t64 -22.5l-3 -22h-265l3 22q53 7 70.5 22.5t23.5 57.5l47 335q6 42 -7.5 57.5t-64.5 22.5l3 23h265l-3 -23q-52 -7 -69.5 -22.5t-23.5 -57.5zM203 677q3 25 23 42.5t45 17.5t40 -17.5t12 -42.5q-4 -25 -24 -42.5t-45 -17.5t-40 17
t-11 43z" />
    <glyph glyph-name="dotlessj" unicode="&#xf6be;" horiz-adv-x="297" 
d="M135 45l49 352q7 55 -23 55q-41 0 -82 -95l-23 11q50 142 153 142q90 0 75 -112l-49 -353q-17 -123 -91 -219t-132 -96q-47 0 -51 35q-3 29 20 45q15 11 31 5q27 -10 46 -10.5t31 9.5t18.5 23t10.5 38t5.5 48t4.5 58.5t7 63.5z" />
    <glyph glyph-name="commaaccent" unicode="&#xf6c3;" horiz-adv-x="340" 
d="M152 -46q24 0 40.5 -10.5t22 -26t7.5 -33.5t-1 -33q-10 -65 -57 -116t-98 -68l-10 23q65 28 92 82q21 40 0 53l-14 3q-26 0 -41.5 18.5t-11.5 45.5q4 25 25 43.5t46 18.5z" />
    <glyph glyph-name="Acute" unicode="&#xf6c9;" horiz-adv-x="369" 
d="M203 761l12 -11l156 104q37 25 21 55q-12 24 -39 21q-19 -2 -33 -20z" />
    <glyph glyph-name="Caron" unicode="&#xf6ca;" horiz-adv-x="470" 
d="M353 840l-101 90h-27l100 -180h30l150 180h-28z" />
    <glyph glyph-name="Dieresis" unicode="&#xf6cb;" horiz-adv-x="500" 
d="M211 815q4 25 22 40.5t41 15.5q24 0 38 -15.5t10 -40.5t-22 -40t-42 -15t-37.5 15.5t-9.5 39.5zM405 815q4 25 22 40.5t42 15.5t38 -16t10 -40t-22 -39.5t-42 -15.5t-38 15.5t-10 39.5z" />
    <glyph glyph-name="DieresisAcute" unicode="&#xf6cc;" horiz-adv-x="580" 
d="M211 815q4 25 22 40.5t41 15.5q24 0 38 -15.5t10 -40.5t-22 -40t-42 -15t-37.5 15.5t-9.5 39.5zM485 815q4 25 22 40.5t42 15.5t38 -16t10 -40t-22 -39.5t-42 -15.5t-38 15.5t-10 39.5zM375 807l16 -7l121 145q27 32 2 55q-21 19 -48 7q-16 -8 -23 -26z" />
    <glyph glyph-name="DieresisGrave" unicode="&#xf6cd;" horiz-adv-x="580" 
d="M597 815q4 24 -10 40t-38 16t-42 -15.5t-22 -40.5q-4 -24 10 -39.5t38 -15.5t42 15.5t22 39.5zM322 815q4 25 -10 40.5t-38 15.5q-23 0 -41 -15.5t-22 -40.5q-4 -24 9.5 -39.5t37.5 -15.5t42 15t22 40zM412 800l-80 145q-18 32 13 55q27 19 51 7q13 -8 15 -26l19 -174z
" />
    <glyph glyph-name="Grave" unicode="&#xf6ce;" horiz-adv-x="369" 
d="M364 750l-127 104q-29 24 -7 54q18 25 46 22q17 -2 26 -20l75 -149z" />
    <glyph glyph-name="Hungarumlaut" unicode="&#xf6cf;" horiz-adv-x="480" 
d="M219 750l121 145q27 32 2 55q-21 19 -48 7q-16 -8 -23 -26l-68 -174zM379 750l121 145q27 32 2 55q-21 19 -48 7q-16 -8 -23 -26l-68 -174z" />
    <glyph glyph-name="Macron" unicode="&#xf6d0;" horiz-adv-x="510" 
d="M214 837h315l-5 -40h-315z" />
    <glyph glyph-name="cyrBreve" unicode="&#xf6d1;" horiz-adv-x="450" 
d="M333 770q63 0 101.5 45t46.5 106h-25q-13 -37 -45 -57.5t-68 -20.5t-62 20.5t-29 57.5h-26q-8 -61 18 -106t89 -45z" />
    <glyph glyph-name="cyrFlex" unicode="&#xf6d2;" horiz-adv-x="470" 
d="M353 840l-126 -90h-27l150 180h30l100 -180h-28z" />
    <glyph glyph-name="dblGrave" unicode="&#xf6d3;" horiz-adv-x="480" 
d="M489 757l-18 -7l-81 145q-18 32 13 55q27 19 51 7q13 -8 15 -26zM329 757l-18 -7l-81 145q-18 32 13 55q27 19 51 7q13 -8 15 -26z" />
    <glyph glyph-name="cyrbreve" unicode="&#xf6d4;" horiz-adv-x="450" 
d="M305 570q63 0 101.5 45t46.5 106h-25q-13 -37 -45 -57.5t-68 -20.5t-62 20.5t-29 57.5h-26q-8 -61 18 -106t89 -45z" />
    <glyph glyph-name="cyrflex" unicode="&#xf6d5;" horiz-adv-x="470" 
d="M324 640l-125 -90h-27l150 180h30l100 -180h-28z" />
    <glyph glyph-name="dblgrave" unicode="&#xf6d6;" horiz-adv-x="480" 
d="M461 557l-18 -7l-81 145q-18 32 13 55q27 19 51 7q13 -8 15 -26zM283 550l-81 145q-18 32 13 55q27 19 51 7q13 -8 15 -26l20 -174z" />
    <glyph glyph-name="dieresisacute" unicode="&#xf6d7;" horiz-adv-x="580" 
d="M183 615q4 25 22 40.5t41 15.5q24 0 38 -15.5t10 -40.5t-22 -40t-42 -15t-37.5 15.5t-9.5 39.5zM457 615q4 25 22 40.5t42 15.5t38 -16t10 -40t-22 -39.5t-42 -15.5t-38 15.5t-10 39.5zM347 607l16 -7l121 145q27 32 2 55q-21 19 -48 7q-16 -8 -23 -26z" />
    <glyph glyph-name="dieresisgrave" unicode="&#xf6d8;" horiz-adv-x="580" 
d="M569 615q4 24 -10 40t-38 16t-42 -15.5t-22 -40.5q-4 -24 10 -39.5t38 -15.5t42 15.5t22 39.5zM294 615q4 25 -10 40.5t-38 15.5q-23 0 -41 -15.5t-22 -40.5q-4 -24 9.5 -39.5t37.5 -15.5t42 15t22 40zM384 600l-80 145q-18 32 13 55q27 19 51 7q13 -8 15 -26l19 -174z
" />
    <glyph glyph-name="rupiah" unicode="&#xf6dd;" horiz-adv-x="1280" 
d="M862 20l-25 -177q-5 -42 8 -57.5t63 -22.5l-3 -23h-255l3 23q48 7 63.5 22.5t20.5 57.5l23 157h-233q-28 21 -62 84l-114 223h-68l-29 -205q-6 -42 7 -57.5t64 -22.5l-3 -22h-265l3 22q53 7 70.5 22.5t23.5 57.5l69 495q6 42 -7.5 57.5t-63.5 22.5l3 23h298
q110 0 163 -51t41 -136q-23 -153 -195 -194l118 -206q27 -48 66 -66t117 -20l48 340q5 38 -7 53t-55 22l3 23l174 45h8l-13 -70h2q72 70 163 70q96 0 143 -73t31 -187q-17 -115 -103.5 -187.5t-188.5 -72.5q-67 0 -106 30zM1033 447q-63 0 -117 -42l-33 -240
q-11 -77 18 -108.5t72 -31.5q74 0 122.5 61.5t59.5 163.5q9 94 -26 145.5t-96 51.5zM288 345h70q95 0 138.5 42t53.5 116q10 69 -18 114t-109 45h-90z" />
    <glyph glyph-name="threequartersemdash" unicode="&#xf6de;" horiz-adv-x="900" 
d="M137 287h705l-6 -40h-705z" />
    <glyph glyph-name="centinferior" unicode="&#xf6df;" 
d="M199 -310l14 101q69 2 129 35l16 87h-17q-15 -41 -50 -69t-86 -28q-57 0 -85 45.5t-16 129.5t52.5 129.5t97.5 45.5q51 0 78 -28.5t31 -68.5h17l8 86q-57 34 -119 36l15 101h-35l-15 -102q-82 -7 -138.5 -60t-69.5 -139q-12 -87 29.5 -140t122.5 -59l-14 -102h35z" />
    <glyph glyph-name="centsuperior" unicode="&#xf6e0;" 
d="M299 400l14 101q69 2 129 35l16 87h-17q-16 -41 -51 -69t-86 -28q-57 0 -84.5 45.5t-15.5 129.5t52.5 129.5t97.5 45.5q51 0 78 -28.5t31 -68.5h17l8 86q-57 34 -119 36l14 101h-35l-14 -102q-83 -7 -139.5 -60t-68.5 -139q-13 -87 29 -140t123 -59l-14 -102h35z" />
    <glyph glyph-name="commainferior" unicode="&#xf6e1;" 
d="M176 -111q62 0 52 -77q-7 -49 -43 -87.5t-75 -51.5l-8 20q52 22 72 64q15 30 -5 36q-3 1 -7 1q-19 0 -31 13t-9 35q3 19 19 33t35 14z" />
    <glyph glyph-name="commasuperior" unicode="&#xf6e2;" 
d="M276 599q62 0 52 -77q-7 -49 -43.5 -87.5t-75.5 -51.5l-7 20q52 22 71 64q15 30 -5 36q-3 1 -7 1q-19 0 -30.5 13t-8.5 35q3 19 19 33t35 14z" />
    <glyph glyph-name="dollarinferior" unicode="&#xf6e3;" 
d="M260 292l-15 -101q52 -3 93 -26l-9 -103h-18q-2 54 -21 78t-58 24q-27 0 -49 -13.5t-26 -43.5q-4 -27 11 -42t49 -30q26 -11 42.5 -20t34.5 -24t25.5 -35t3.5 -45q-7 -52 -43.5 -83t-90.5 -36l-14 -102h-35l14 101q-70 2 -106 29l5 107h18q-2 -61 24.5 -85.5t66.5 -24.5
q32 0 56.5 18t28.5 50q3 22 -8 38.5t-24 23.5t-40 20q-52 24 -76.5 49.5t-17.5 72.5q6 42 41 70t88 32l15 101h35z" />
    <glyph glyph-name="dollarsuperior" unicode="&#xf6e4;" 
d="M359 1002l-14 -101q53 -3 92 -26l-8 -103h-18q-2 54 -21.5 78t-58.5 24q-27 0 -48.5 -13t-26.5 -44q-3 -27 12 -42t49 -30q26 -11 42.5 -20t34.5 -24t25.5 -35t3.5 -45q-7 -52 -43.5 -83t-90.5 -36l-14 -102h-35l14 101q-72 2 -106 29l5 107h18q-2 -61 24.5 -85.5
t66.5 -24.5q32 0 56.5 18t28.5 50q3 22 -8 38.5t-24 23.5t-40 20q-52 23 -76.5 49t-17.5 73q6 42 41 70t88 32l14 101h35z" />
    <glyph glyph-name="hypheninferior" unicode="&#xf6e5;" 
d="M17 20h370l-6 -45h-370z" />
    <glyph glyph-name="hyphensuperior" unicode="&#xf6e6;" 
d="M117 730h370l-6 -45h-370z" />
    <glyph glyph-name="periodinferior" unicode="&#xf6e7;" 
d="M125 -159q3 21 20.5 36.5t38.5 15.5t34 -15.5t10 -36.5q-3 -20 -20 -35.5t-38 -15.5t-34.5 15.5t-10.5 35.5z" />
    <glyph glyph-name="periodsuperior" unicode="&#xf6e8;" 
d="M225 551q3 21 20.5 36.5t38.5 15.5t34 -15.5t10 -36.5q-3 -20 -20 -35.5t-38 -15.5t-34.5 15.5t-10.5 35.5z" />
    <glyph glyph-name="asuperior" unicode="&#xf6e9;" horiz-adv-x="365" 
d="M366 731l-24 -146q-5 -33 8 -39.5t41 0.5l-1 -10q-54 -36 -80 -36q-41 0 -33 48h-1q-33 -26 -53.5 -37t-45.5 -11q-26 0 -41 20.5t-11 51.5q7 53 83 67q29 5 85 15l10 59q10 70 -47 70q-24 0 -39.5 -11.5t-16 -24.5t4.5 -22q15 -16 -14 -31q-26 -13 -37 -3l-2 4
q-12 31 35 74.5t109 43.5q39 0 58 -21.5t12 -60.5zM279 566l11 70q-29 -6 -71 -17q-40 -10 -38 -46q0 -33 29 -33q30 0 69 26z" />
    <glyph glyph-name="bsuperior" unicode="&#xf6ea;" horiz-adv-x="417" 
d="M325 774q-38 0 -69 -26l-20 -143q-7 -46 10.5 -64.5t43.5 -18.5q44 0 73 36t36 97q5 56 -16.5 87.5t-57.5 31.5zM286 967l-27 -196q45 42 98 42q58 0 85 -44.5t18 -113.5q-10 -68 -61.5 -111.5t-112.5 -43.5q-42 0 -81 30l-28 -25h-16l53 377q4 22 -3.5 31t-33.5 13l2 15
l101 26h6z" />
    <glyph glyph-name="dsuperior" unicode="&#xf6eb;" horiz-adv-x="431" 
d="M272 537q36 0 69 25l21 145q6 46 -11 65.5t-42 19.5q-45 0 -74 -37.5t-35 -99.5q-6 -56 14.5 -87t57.5 -31zM374 795l12 87q4 22 -3 31t-33 13l2 15l100 26h7l-53 -379q-4 -29 6.5 -36.5t43.5 -5.5l-2 -16l-114 -30h-7l6 43h-1q-45 -43 -97 -43q-57 0 -85.5 44t-18.5 111
q9 70 61.5 114t114.5 44q34 0 61 -18z" />
    <glyph glyph-name="esuperior" unicode="&#xf6ec;" horiz-adv-x="352" 
d="M302 792q-34 0 -60 -23.5t-38 -63.5h135q15 46 3.5 66.5t-40.5 20.5zM258 500q-66 0 -98.5 45t-23.5 109q11 73 62 116t111 43q52 0 79 -31t5 -101h-194q-10 -61 13 -97.5t71 -36.5q56 0 99 25l-4 -25l-7 -5q-7 -5 -9 -6.5t-9.5 -6.5t-12 -7.5t-13 -6.5t-15.5 -6
t-16 -4.5t-18.5 -3.5t-19.5 -1z" />
    <glyph glyph-name="isuperior" unicode="&#xf6ed;" horiz-adv-x="255" 
d="M271 815l-34 -243q-4 -26 3 -34.5t38 -15.5l-2 -12h-158l2 12q33 7 43 16t14 34l22 157q3 23 -3.5 32t-30.5 14l2 14l98 26h6zM215 912q2 17 15 29t30 12t27.5 -12.5t8.5 -28.5t-16 -28t-31 -12t-26.5 11.5t-7.5 28.5z" />
    <glyph glyph-name="lsuperior" unicode="&#xf6ee;" horiz-adv-x="255" 
d="M293 971l-56 -399q-4 -26 3 -34.5t38 -15.5l-2 -12h-158l2 12q33 7 43 16t14 34l44 314q3 22 -4 31t-30 14l2 13l98 27h6z" />
    <glyph glyph-name="msuperior" unicode="&#xf6ef;" horiz-adv-x="626" 
d="M444 733l-23 -161q-4 -25 4.5 -34t39.5 -16l-2 -12h-147l2 12q27 8 33.5 16t10.5 34l21 152q8 50 -34 50q-37 0 -89 -41l-23 -161q-4 -26 3 -34.5t38 -15.5l-2 -12h-158l2 12q33 7 43 16t14 34l22 157q3 23 -3.5 32t-30.5 14l2 14l101 26h4q-1 -10 -4.5 -30.5t-5.5 -31.5
h1q59 62 117 62q27 0 45.5 -16t20.5 -49q56 65 120 65q33 0 51 -21t12 -68l-22 -154q-4 -25 4 -34t38 -16l-2 -12h-145l2 12q27 8 33.5 16t10.5 34l21 152q4 23 -5 36.5t-29 13.5q-36 0 -91 -41z" />
    <glyph glyph-name="osuperior" unicode="&#xf6f0;" horiz-adv-x="387" 
d="M138 655q11 67 58.5 112.5t110.5 45.5q64 0 98.5 -45.5t23.5 -112.5q-11 -65 -59.5 -110t-110.5 -45q-64 0 -98 45t-23 110zM203 655q-20 -133 62 -133q79 0 99 133q18 137 -61 137q-39 0 -65 -35t-35 -102z" />
    <glyph glyph-name="rsuperior" unicode="&#xf6f1;" horiz-adv-x="330" 
d="M237 572l22 155q50 46 95 27q21 -8 33 16q13 26 -5 39q-7 6 -20 6q-47 0 -100 -68h-1l11 68h-4l-101 -26l-2 -14q24 -5 30.5 -14t3.5 -32l-22 -157q-4 -25 -14 -34t-43 -16l-2 -12h158l2 12q-31 7 -38 15.5t-3 34.5z" />
    <glyph glyph-name="ssuperior" unicode="&#xf6f2;" horiz-adv-x="304" 
d="M341 716h-16q-1 35 -19.5 55.5t-45.5 20.5q-21 0 -38 -12.5t-20 -34.5q-2 -16 6.5 -27.5t18 -16t28.5 -12.5q45 -19 66.5 -40t16.5 -58q-6 -41 -42 -66t-83 -25q-50 0 -85 22l3 80h16q-1 -80 68 -80q25 0 41.5 14t19.5 37q3 22 -11.5 35t-46.5 27q-41 19 -58.5 39
t-12.5 55q5 37 37 60.5t80 23.5q33 0 82 -19z" />
    <glyph glyph-name="tsuperior" unicode="&#xf6f3;" horiz-adv-x="298" 
d="M254 781l-28 -199q-3 -26 7 -35t32 -9q24 0 58 8l-1 -10q-47 -36 -102 -36q-64 0 -54 72l29 209h-39l3 20l41 12l55 82h15l-12 -90h85l-4 -24h-85z" />
    <glyph glyph-name="Brevesmall" unicode="&#xf6f4;" horiz-adv-x="450" 
d="M312 620q63 0 101.5 45t46.5 106h-25q-13 -37 -45 -57.5t-68 -20.5t-62 20.5t-29 57.5h-26q-8 -61 18 -106t89 -45z" />
    <glyph glyph-name="Caronsmall" unicode="&#xf6f5;" horiz-adv-x="470" 
d="M331 690l-100 90h-27l100 -180h30l150 180h-28z" />
    <glyph glyph-name="Circumflexsmall" unicode="&#xf6f6;" horiz-adv-x="470" 
d="M331 690l-125 -90h-27l150 180h30l100 -180h-28z" />
    <glyph glyph-name="Dotaccentsmall" unicode="&#xf6f7;" horiz-adv-x="314" 
d="M192 677q3 25 23 42.5t45 17.5t40 -17.5t12 -42.5q-4 -25 -24 -42.5t-45 -17.5t-40 17t-11 43z" />
    <glyph glyph-name="Hungarumlautsmall" unicode="&#xf6f8;" horiz-adv-x="480" 
d="M182 607l16 -7l121 145q27 32 2 55q-21 19 -48 7q-16 -8 -23 -26zM342 607l16 -7l121 145q27 32 2 55q-21 19 -48 7q-16 -8 -23 -26z" />
    </font>
</defs>
</svg>
