<svg xmlns="http://www.w3.org/2000/svg" viewBox="0 0 20.48 20.48"><defs><style>.cls-1{fill:#07090a;fill-rule:evenodd;}</style></defs><title>icon-face</title><g id="Layer_2" data-name="Layer 2"><g id="Layer_1-2" data-name="Layer 1"><path class="cls-1" d="M11.07,8.13c0-.47,0-.72.74-.72h.92V5.61H11.25c-1.77,0-2.4.87-2.4,2.34V9H7.74v1.8H8.85v5.23h2.22V10.83h1.48L12.74,9H11.07ZM10.24,0A10.24,10.24,0,1,0,20.48,10.24,10.25,10.25,0,0,0,10.24,0Zm0,19.62a9.38,9.38,0,1,1,9.38-9.38A9.38,9.38,0,0,1,10.24,19.62Z"/></g></g></svg>