<svg xmlns="http://www.w3.org/2000/svg" viewBox="0 0 20.5 20.5"><defs><style>.cls-1{fill:#07090a;fill-rule:evenodd;}</style></defs><title>icon-pinterest</title><g id="Layer_2" data-name="Layer 2"><g id="Layer_1-2" data-name="Layer 1"><path class="cls-1" d="M10.25,0A10.25,10.25,0,1,0,20.5,10.25,10.25,10.25,0,0,0,10.25,0Zm0,19.63a9.38,9.38,0,1,1,9.38-9.38A9.38,9.38,0,0,1,10.25,19.63Z"/><path class="cls-1" d="M4.66,10.25A5.59,5.59,0,0,0,8,15.37a4.69,4.69,0,0,1,.09-1.28L8.82,11a2.14,2.14,0,0,1-.18-.88c0-.83.48-1.45,1.08-1.45a.75.75,0,0,1,.76.84,11.93,11.93,0,0,1-.5,2,.87.87,0,0,0,.89,1.08c1.05,0,1.77-1.36,1.77-3a2.1,2.1,0,0,0-2.33-2.15,2.65,2.65,0,0,0-2.75,2.68,1.6,1.6,0,0,0,.37,1.1.27.27,0,0,1,.08.31c0,.1-.09.35-.12.45a.19.19,0,0,1-.28.14A2.16,2.16,0,0,1,6.47,10a3.7,3.7,0,0,1,4-3.49A3.34,3.34,0,0,1,14,9.74c0,2.2-1.21,3.83-3,3.83a1.61,1.61,0,0,1-1.37-.69s-.32,1.29-.39,1.53a4.58,4.58,0,0,1-.56,1.2,5.49,5.49,0,0,0,1.58.23,5.59,5.59,0,1,0-5.59-5.59Z"/></g></g></svg>