<svg xmlns="http://www.w3.org/2000/svg" viewBox="0 0 20.48 20.48"><defs><style>.cls-1{fill:#07090a;fill-rule:evenodd;}</style></defs><title>icon-youtube</title><g id="Layer_2" data-name="Layer 2"><g id="Layer_1-2" data-name="Layer 1"><path class="cls-1" d="M-265.78-2888.94h-6a1.53,1.53,0,0,0-1.56,1.56v3.24a1.53,1.53,0,0,0,1.56,1.56h6a1.53,1.53,0,0,0,1.57-1.56v-3.24A1.53,1.53,0,0,0-265.78-2888.94ZM-270-2884v-3.49l3,1.75Zm1.21-12A10.25,10.25,0,0,0-279-2885.76a10.24,10.24,0,0,0,10.24,10.24,10.23,10.23,0,0,0,10.24-10.24A10.24,10.24,0,0,0-268.76-2896Zm0,19.62a9.38,9.38,0,0,1-9.37-9.38,9.37,9.37,0,0,1,9.37-9.37,9.37,9.37,0,0,1,9.38,9.37A9.38,9.38,0,0,1-268.76-2876.38Z" transform="translate(279 2896)"/></g></g></svg>