<svg xmlns="http://www.w3.org/2000/svg" viewBox="0 0 20.48 20.48"><defs><style>.cls-1{fill:#07090a;fill-rule:evenodd;}</style></defs><title>icon-twitter</title><g id="Layer_2" data-name="Layer 2"><g id="Layer_1-2" data-name="Layer 1"><path class="cls-1" d="M15,6.8a3.69,3.69,0,0,1-1.25.5,1.89,1.89,0,0,0-1.42-.65,2,2,0,0,0-2,2.07,1.83,1.83,0,0,0,.05.47A5.49,5.49,0,0,1,6.36,7a2.14,2.14,0,0,0-.26,1A2.11,2.11,0,0,0,7,9.79a1.92,1.92,0,0,1-.89-.26v0a2,2,0,0,0,1.57,2,1.77,1.77,0,0,1-.52.07,2.19,2.19,0,0,1-.36,0A2,2,0,0,0,8.6,13.05a3.86,3.86,0,0,1-2.44.88l-.46,0a5.34,5.34,0,0,0,3,.92A5.7,5.7,0,0,0,14.27,9V8.69a4.13,4.13,0,0,0,1-1.07,3.9,3.9,0,0,1-1.12.32A2.07,2.07,0,0,0,15,6.8ZM10.24,0A10.24,10.24,0,1,0,20.48,10.24,10.25,10.25,0,0,0,10.24,0Zm0,19.62a9.38,9.38,0,1,1,9.38-9.38A9.38,9.38,0,0,1,10.24,19.62Z"/></g></g></svg>