<svg xmlns="http://www.w3.org/2000/svg" xmlns:xlink="http://www.w3.org/1999/xlink" viewBox="0 0 60 60"><defs><style>.cls-1,.cls-3,.cls-5{fill:#fff;}.cls-1{clip-rule:evenodd;}.cls-2{opacity:0.6;}.cls-3{fill-rule:evenodd;}.cls-4{clip-path:url(#clip-path);}</style><clipPath id="clip-path"><path class="cls-1" d="M43.64,34.86V25.14s0-4.69-4.7-4.69H21.06s-4.69,0-4.69,4.69v9.72s0,4.69,4.69,4.69H38.94s4.7,0,4.7-4.69M35.29,30l-8.92,5.23V24.78L35.29,30"/></clipPath></defs><title>icon-ideo</title><g id="Layer_2" data-name="Layer 2"><g id="Layer_1-2" data-name="Layer 1"><g class="cls-2"><path class="cls-3" d="M43.64,34.86V25.14s0-4.69-4.7-4.69H21.06s-4.69,0-4.69,4.69v9.72s0,4.69,4.69,4.69H38.94s4.7,0,4.7-4.69M35.29,30l-8.92,5.23V24.78L35.29,30"/><g class="cls-4"><rect class="cls-5" x="9.55" y="13.64" width="40.91" height="32.73"/></g><path class="cls-5" d="M30,0A30,30,0,1,0,60,30,30,30,0,0,0,30,0Zm0,57.27A27.27,27.27,0,1,1,57.27,30,27.3,27.3,0,0,1,30,57.27Z"/></g></g></g></svg>