<svg xmlns="http://www.w3.org/2000/svg" viewBox="0 0 20.5 20.5"><defs><style>.cls-1{fill:#0a0c0d;}.cls-1,.cls-2{fill-rule:evenodd;}.cls-2{fill:#020202;}</style></defs><title>icon-gooplus</title><g id="Layer_2" data-name="Layer 2"><g id="Layer_1-2" data-name="Layer 1"><path class="cls-1" d="M10.25,0A10.25,10.25,0,1,0,20.5,10.25,10.25,10.25,0,0,0,10.25,0m0,19.63a9.38,9.38,0,1,1,9.38-9.38,9.38,9.38,0,0,1-9.38,9.38"/><path class="cls-2" d="M7.73,9.38v1.74H10.1a2.17,2.17,0,0,1-2.37,1.75,2.62,2.62,0,0,1,0-5.23,2.49,2.49,0,0,1,1.7.64c.36-.36.33-.41,1.25-1.28a4.39,4.39,0,1,0-2.95,7.65c3.62,0,4.51-3.16,4.22-5.27Zm7.91.09V7.94H14.55V9.47H13v1.08h1.56v1.57h1.09V10.55h1.52V9.47Z"/></g></g></svg>