<svg xmlns="http://www.w3.org/2000/svg" viewBox="0 0 20.48 20.48"><defs><style>.cls-1{fill:#fff;fill-rule:evenodd;}</style></defs><title>icon-youtube-white</title><g id="Layer_2" data-name="Layer 2"><g id="Layer_1-2" data-name="Layer 1"><path class="cls-1" d="M13.22,7.06h-6A1.53,1.53,0,0,0,5.7,8.62v3.24a1.53,1.53,0,0,0,1.56,1.56h6a1.53,1.53,0,0,0,1.57-1.56V8.62A1.53,1.53,0,0,0,13.22,7.06ZM9,12V8.5l3,1.75ZM10.24,0A10.24,10.24,0,1,0,20.48,10.24,10.25,10.25,0,0,0,10.24,0Zm0,19.62a9.38,9.38,0,1,1,9.38-9.38A9.38,9.38,0,0,1,10.24,19.62Z"/></g></g></svg>