<svg xmlns="http://www.w3.org/2000/svg" xmlns:xlink="http://www.w3.org/1999/xlink" viewBox="0 0 20.5 20.5"><defs><style>.cls-1{fill:none;clip-rule:evenodd;}.cls-2{fill:#07090a;fill-rule:evenodd;}.cls-3{clip-path:url(#clip-path);}.cls-4{fill:#010101;}</style><clipPath id="clip-path"><path class="cls-1" d="M5.83,8.58H7.64v6.33H5.83V8.58Zm.86-.79h0a1.06,1.06,0,0,1-1.08-1.1A1.06,1.06,0,0,1,6.7,5.59a1,1,0,0,1,1.09,1.1,1.06,1.06,0,0,1-1.1,1.1Zm8.22,7.12H12.85V11.63c0-.85-.32-1.44-1-1.44a1.06,1.06,0,0,0-1,.78,1.34,1.34,0,0,0-.05.51v3.43h-2s0-5.8,0-6.33h2v1A1.84,1.84,0,0,1,12.6,8.52c1.29,0,2.31.91,2.31,2.87v3.52Z"/></clipPath></defs><title>icon-linkedin</title><g id="Layer_2" data-name="Layer 2"><g id="Layer_1-2" data-name="Layer 1"><path class="cls-2" d="M10.25,0A10.25,10.25,0,1,0,20.5,10.25,10.25,10.25,0,0,0,10.25,0Zm0,19.63a9.38,9.38,0,1,1,9.38-9.38A9.38,9.38,0,0,1,10.25,19.63Z"/><g class="cls-3"><rect class="cls-4" x="3.26" y="3.26" width="13.98" height="13.98"/></g></g></g></svg>