<svg xmlns="http://www.w3.org/2000/svg" viewBox="0 0 20.5 20.5"><defs><style>.cls-1{fill:#07090a;fill-rule:evenodd;}</style></defs><title>Asset 1</title><g id="Layer_2" data-name="Layer 2"><g id="Layer_1-2" data-name="Layer 1"><path class="cls-1" d="M10.25,0A10.25,10.25,0,1,0,20.5,10.25,10.25,10.25,0,0,0,10.25,0Zm0,19.63a9.38,9.38,0,1,1,9.38-9.38A9.38,9.38,0,0,1,10.25,19.63Z"/><path class="cls-1" d="M6.11,8.82l1.17.76,1.5,1L9,10.7l.31.2.3.18a2.16,2.16,0,0,0,.33.14,1,1,0,0,0,.28,0h0a1,1,0,0,0,.29,0,2.16,2.16,0,0,0,.33-.14l.3-.18.31-.2.24-.16L14.4,8.82a2.68,2.68,0,0,0,.69-.65,1.31,1.31,0,0,0,.29-.8.81.81,0,0,0-.28-.6.93.93,0,0,0-.64-.25H6a.87.87,0,0,0-.68.28,1,1,0,0,0-.24.69,1.2,1.2,0,0,0,.32.72,2.71,2.71,0,0,0,.67.61Zm8.69.57c-1.25.78-2.2,1.39-2.85,1.82l-.52.35a3.24,3.24,0,0,1-.55.25,1.67,1.67,0,0,1-.63.14h0a1.67,1.67,0,0,1-.62-.14,3.24,3.24,0,0,1-.55-.25l-.52-.35c-.52-.34-1.47-1-2.85-1.82a3.36,3.36,0,0,1-.58-.46v4.2a.8.8,0,0,0,.27.6A1,1,0,0,0,6,14h8.42a1,1,0,0,0,.65-.25.8.8,0,0,0,.27-.6V8.93a3.36,3.36,0,0,1-.58.46Z"/></g></g></svg>