<svg xmlns="http://www.w3.org/2000/svg" viewBox="0 0 20.48 20.48"><defs><style>.cls-1{fill:#07090a;fill-rule:evenodd;}</style></defs><title>icon-insta</title><g id="Layer_2" data-name="Layer 2"><g id="Layer_1-2" data-name="Layer 1"><path class="cls-1" d="M10.25,7.68a2.57,2.57,0,1,0,2.57,2.57A2.57,2.57,0,0,0,10.25,7.68Zm0,4.24a1.67,1.67,0,1,1,1.67-1.67A1.67,1.67,0,0,1,10.25,11.92ZM12.9,7a.58.58,0,0,0-.59.59.59.59,0,0,0,.59.6.6.6,0,0,0,.6-.6A.59.59,0,0,0,12.9,7ZM15,7a2.49,2.49,0,0,0-.58-.89,2.45,2.45,0,0,0-.88-.58,4,4,0,0,0-1.22-.23c-.53,0-.7,0-2.06,0s-1.53,0-2.06,0A3.93,3.93,0,0,0,7,5.5,2.57,2.57,0,0,0,5.5,7a3.93,3.93,0,0,0-.23,1.21c0,.53,0,.7,0,2.06s0,1.53,0,2.06a3.94,3.94,0,0,0,.23,1.22,2.37,2.37,0,0,0,.58.88A2.49,2.49,0,0,0,7,15a3.66,3.66,0,0,0,1.21.23c.53,0,.7,0,2.06,0s1.53,0,2.06,0A3.72,3.72,0,0,0,13.52,15a2.45,2.45,0,0,0,.88-.58,2.37,2.37,0,0,0,.58-.88,3.67,3.67,0,0,0,.23-1.22c0-.53,0-.7,0-2.06s0-1.53,0-2.06A3.66,3.66,0,0,0,15,7Zm-.67,5.29a2.7,2.7,0,0,1-.17.93,1.59,1.59,0,0,1-1,1,2.7,2.7,0,0,1-.93.17c-.53,0-.68,0-2,0s-1.49,0-2,0a2.76,2.76,0,0,1-.93-.17,1.56,1.56,0,0,1-.57-.37,1.58,1.58,0,0,1-.38-.58,3,3,0,0,1-.17-.93c0-.52,0-.68,0-2s0-1.49,0-2a3,3,0,0,1,.17-.93,1.47,1.47,0,0,1,.38-.57,1.59,1.59,0,0,1,.57-.38,3,3,0,0,1,.93-.17c.53,0,.69,0,2,0s1.49,0,2,0a3,3,0,0,1,.93.17,1.72,1.72,0,0,1,.58.38,1.56,1.56,0,0,1,.37.57,2.7,2.7,0,0,1,.17.93c0,.53,0,.69,0,2S14.33,11.74,14.31,12.26ZM10.24,0A10.24,10.24,0,1,0,20.48,10.24,10.25,10.25,0,0,0,10.24,0Zm0,19.62a9.38,9.38,0,1,1,9.38-9.38A9.38,9.38,0,0,1,10.24,19.62Z"/></g></g></svg>