<?xml version="1.0" encoding="utf-8"?>
<!-- Generator: Adobe Illustrator 15.1.0, SVG Export Plug-In . SVG Version: 6.00 Build 0)  -->
<!DOCTYPE svg PUBLIC "-//W3C//DTD SVG 1.1//EN" "http://www.w3.org/Graphics/SVG/1.1/DTD/svg11.dtd">
<svg version="1.1" id="Layer_1" xmlns="http://www.w3.org/2000/svg" xmlns:xlink="http://www.w3.org/1999/xlink" x="0px" y="0px"
	 width="793.701px" height="159.157px" viewBox="0 0 793.701 159.157" enable-background="new 0 0 793.701 159.157"
	 xml:space="preserve">
<g>
	<path d="M53.18,112.015c0,20.838-6.506,28.378-17.822,28.378c-11.316,0-17.819-7.54-17.819-28.378V3.865H0v110.318
		c0,30.362,13.201,43.561,35.358,43.561c22.157,0,35.358-13.198,35.358-43.561V3.865H53.18V112.015z"/>
	<polygon points="148.346,79.013 148.816,97.022 138.445,78.73 91.208,0 91.208,155.952 108.744,155.952 108.744,80.9 
		108.177,64.493 118.457,80.9 165.788,159.158 165.788,3.865 148.346,3.865 	"/>
	<path d="M362.175,60.438c-8.393-11.031-10.466-17.161-10.466-23.005c0-10.561,6.696-16.784,16.972-16.784
		c6.129,0,11.127,2.264,15.558,4.905l7.544-14.615c-8.015-4.717-16.594-6.886-24.893-6.886c-20.839,0-33.38,13.862-33.38,32.72
		c0,11.22,4.433,23.29,16.595,38.658l12.165,15.366c11.784,14.899,15.649,23.669,15.649,31.967c0,12.351-8.67,17.725-18.572,17.725
		c-8.014,0-14.616-3.491-20.744-7.072l-8.109,15.651c7.259,4.999,17.819,8.676,28.853,8.676c21.402,0,36.772-13.859,36.772-36.397
		c0-15.46-7.166-25.644-16.311-37.712L362.175,60.438z"/>
	<path d="M742.596,137.379V24.42c16.126,5.092,32.908,21.311,32.908,56.48C775.504,116.067,758.722,132.286,742.596,137.379
		 M725.059,4.054v153.69c41.398-2.263,68.643-30.172,68.643-76.844C793.701,34.226,766.457,6.317,725.059,4.054"/>
	<polygon points="267.665,155.952 318.201,155.952 318.201,139.359 285.204,139.359 285.204,107.297 313.488,107.297 
		313.488,90.702 285.204,90.702 285.204,20.462 318.201,20.462 318.201,3.865 267.665,3.865 	"/>
	<polygon points="411.485,155.952 462.024,155.952 462.024,139.359 429.023,139.359 429.023,107.297 457.31,107.297 457.31,90.702 
		429.023,90.702 429.023,20.462 462.024,20.462 462.024,3.865 411.485,3.865 	"/>
	<polygon points="654.031,155.952 704.57,155.952 704.57,139.359 671.572,139.359 671.572,107.297 699.858,107.297 699.858,90.702 
		671.572,90.702 671.572,20.462 704.57,20.462 704.57,3.865 654.031,3.865 	"/>
	<polygon points="598.931,84.67 594.783,102.677 590.826,84.67 569.961,3.865 551.09,3.865 594.879,159.157 638.502,4.451 
		638.662,3.865 619.799,3.865 	"/>
	<path d="M500.05,89.479V22.346c16.028,1.413,27.72,12.161,27.72,33.566C527.77,77.313,516.078,88.064,500.05,89.479
		 M545.967,55.913c0-32.154-20.365-53.933-63.454-52.047v152.086h17.537V107.3c0.003-0.001,0.006-0.011,0.006-0.011
		c4.511-0.593,8.683-1.512,12.515-2.745l13.889,51.408h18.848l-16.7-59.704C540.266,86.971,545.967,72.909,545.967,55.913"/>
	<path d="M203.815,89.479V22.346c16.03,1.413,27.722,12.161,27.722,33.566C231.537,77.313,219.845,88.064,203.815,89.479
		 M249.734,55.913c0-32.154-20.367-53.933-63.458-52.047v152.086h17.539V107.3c0.003-0.001,0.005-0.011,0.008-0.011
		c4.512-0.593,8.683-1.512,12.51-2.745l13.894,51.408h18.846l-16.702-59.704C244.031,86.971,249.734,72.909,249.734,55.913"/>
</g>
</svg>
